<svg width="193" height="193" viewBox="0 0 193 193" fill="none" xmlns="http://www.w3.org/2000/svg">
<path d="M69.7188 90.4688H81.7812V102.531H69.7188V90.4688Z" fill="#E5E5E5"/>
<path d="M45 90.4688H57.0625V102.531H45V90.4688Z" fill="#E5E5E5"/>
<path d="M94.7188 90H106.781V102.062H94.7188V90Z" fill="#E5E5E5"/>
<path d="M174.906 12.0625H18.0938C14.8957 12.0661 11.8296 13.3381 9.56824 15.5995C7.30686 17.8609 6.03484 20.9269 6.03125 24.125V132.688C6.03484 135.886 7.30686 138.952 9.56824 141.213C11.8296 143.474 14.8957 144.746 18.0938 144.75H42.2188V186.969H53.7637L95.9824 144.75H174.906C178.104 144.746 181.17 143.474 183.432 141.213C185.693 138.952 186.965 135.886 186.969 132.688V24.125C186.965 20.9269 185.693 17.8609 183.432 15.5995C181.17 13.3381 178.104 12.0661 174.906 12.0625ZM174.906 132.688H90.9863L54.2812 169.393V132.688H18.0938V24.125H174.906V132.688Z" fill="#E5E5E5"/>
<path d="M147.219 70.7148C149.704 70.7148 151.719 68.7001 151.719 66.2148C151.719 63.7296 149.704 61.7148 147.219 61.7148C144.733 61.7148 142.719 63.7296 142.719 66.2148C142.719 68.7001 144.733 70.7148 147.219 70.7148Z" fill="#E5E5E5"/>
<path d="M140.469 94.25H135.969C135.969 97.9625 132.931 101 129.219 101C125.506 101 122.469 97.9625 122.469 94.25C122.469 90.5375 125.506 87.5 129.219 87.5V83C123.009 83 117.969 88.04 117.969 94.25C117.969 100.46 123.009 105.5 129.219 105.5C135.429 105.5 140.469 100.46 140.469 94.25ZM147.219 86.375H143.034L146.791 78.1175C148.164 75.125 145.959 71.75 142.629 71.75H130.929C129.106 71.75 127.464 72.8075 126.721 74.45L126.091 76.16C125.619 77.42 126.339 78.7925 127.621 79.1525C128.724 79.4675 129.871 78.905 130.321 77.8475L130.996 76.25H135.969L131.851 85.475C130.501 88.4675 132.729 92 136.014 92H147.219V101C147.219 102.238 148.231 103.25 149.469 103.25C150.706 103.25 151.719 102.238 151.719 101V90.875C151.719 88.4 149.694 86.375 147.219 86.375Z" fill="#E5E5E5"/>
</svg>
