<svg width="193" height="193" viewBox="0 0 193 193" fill="none" xmlns="http://www.w3.org/2000/svg">
<path d="M75.7405 91.9999C89.9863 91.9999 101.536 80.444 101.536 66.1861C101.535 62.7974 100.867 59.442 99.5696 56.3115C98.272 53.1811 96.3706 50.3368 93.9738 47.9412C91.5771 45.5456 88.732 43.6455 85.6009 42.3494C82.4698 41.0533 79.1141 40.3867 75.7254 40.3874C72.3367 40.3882 68.9813 41.0565 65.8508 42.354C62.7204 43.6516 59.8761 45.553 57.4805 47.9497C55.0849 50.3465 53.1848 53.1916 51.8887 56.3227C50.5926 59.4538 49.9259 62.8095 49.9267 66.1982C49.9267 69.5875 50.5945 72.9437 51.8919 76.0749C53.1893 79.206 55.091 82.0509 57.4881 84.447C59.8853 86.8431 62.7311 88.7434 65.8629 90.0393C68.9947 91.3353 72.3511 92.0015 75.7405 91.9999ZM94.4615 91.8189C89.0467 95.8353 82.4882 98.0124 75.7465 98.0311C68.9988 98.0149 62.4338 95.8379 57.0135 91.8189C52.49 95.5885 47.9786 100.986 44.2875 107.639C35.705 123.097 34.7581 138.953 42.1766 143.066C45.4938 144.954 48.9678 143.549 52.5624 140.081C51.8942 143.809 51.5592 147.59 51.5612 151.378C51.5612 169.097 58.4368 183.416 66.8987 183.416C72.0011 183.416 74.5282 178.199 75.7405 170.219C76.9467 178.12 79.4799 183.416 84.5461 183.416C92.9718 183.416 99.8956 169.091 99.8956 151.378C99.8956 147.397 99.5217 143.597 98.8884 140.081C102.495 143.543 105.969 144.978 109.292 143.073C116.699 138.971 115.746 123.109 107.163 107.651C103.484 100.986 98.9729 95.6005 94.4494 91.831L94.4615 91.8189ZM119.551 22.3811L111.017 30.9154C115.662 35.5451 119.347 41.046 121.861 47.1026C124.375 53.1592 125.669 59.6525 125.669 66.2102C125.669 72.768 124.375 79.2613 121.861 85.3179C119.347 91.3745 115.662 96.8754 111.017 101.505L119.539 110.009C125.306 104.264 129.881 97.4357 133.001 89.9174C136.122 82.399 137.727 74.3384 137.724 66.1982C137.724 49.1056 130.776 33.6053 119.545 22.3811H119.551ZM98.237 88.7068L106.753 97.2229C114.714 89.2798 119.636 78.3029 119.636 66.1982C119.636 54.0935 114.714 43.1226 106.765 35.1614L98.237 43.6956C101.197 46.6477 103.546 50.1549 105.149 54.0163C106.752 57.8777 107.577 62.0174 107.577 66.1982C107.577 70.379 106.752 74.5187 105.149 78.3801C103.546 82.2415 101.197 85.7487 98.237 88.7008V88.7068ZM132.326 9.58887L123.822 18.1171C130.148 24.4211 135.167 31.9128 138.589 40.162C142.012 48.4111 143.772 57.2551 143.767 66.1861C143.767 84.9433 136.137 101.951 123.816 114.273L132.338 122.801C139.79 115.38 145.702 106.558 149.733 96.8445C153.765 87.1305 155.836 76.7155 155.829 66.1982C155.829 44.1238 146.843 24.1001 132.344 9.5949L132.326 9.58887Z" fill="#E5E5E5"/>
</svg>
