<svg width="25" height="75" viewBox="0 0 25 75" fill="none" xmlns="http://www.w3.org/2000/svg">
<rect x="1.20969" y="53.2258" width="21.7742" height="21.7742" rx="10.8871" fill="#449DD1"/>
<path d="M9.18599 62.9303C9.18599 63.0958 9.25171 63.2544 9.36868 63.3714C9.48566 63.4883 9.64431 63.5541 9.80973 63.5541C9.97516 63.5541 10.1338 63.4883 10.2508 63.3714C10.3678 63.2544 10.4335 63.0958 10.4335 62.9303C10.4335 62.7649 10.3678 62.6062 10.2508 62.4893C10.1338 62.3723 9.97516 62.3066 9.80973 62.3066C9.64431 62.3066 9.48566 62.3723 9.36868 62.4893C9.25171 62.6062 9.18599 62.7649 9.18599 62.9303ZM13.7601 62.9303C13.7601 63.0958 13.8258 63.2544 13.9428 63.3714C14.0597 63.4883 14.2184 63.5541 14.3838 63.5541C14.5493 63.5541 14.7079 63.4883 14.8249 63.3714C14.9419 63.2544 15.0076 63.0958 15.0076 62.9303C15.0076 62.7649 14.9419 62.6062 14.8249 62.4893C14.7079 62.3723 14.5493 62.3066 14.3838 62.3066C14.2184 62.3066 14.0597 62.3723 13.9428 62.4893C13.8258 62.6062 13.7601 62.7649 13.7601 62.9303ZM12.0968 58.2913C8.88192 58.2913 6.27521 60.898 6.27521 64.1128C6.27521 67.3277 8.88192 69.9344 12.0968 69.9344C15.3116 69.9344 17.9184 67.3277 17.9184 64.1128C17.9184 60.898 15.3116 58.2913 12.0968 58.2913ZM15.5144 67.5304C15.0699 67.9748 14.5528 68.3231 13.9771 68.5674C13.3832 68.8195 12.7504 68.9468 12.0968 68.9468C11.4432 68.9468 10.8103 68.8195 10.2152 68.5674C9.64038 68.3246 9.11827 67.9724 8.67791 67.5304C8.23349 67.086 7.88524 66.5688 7.64094 65.9931C7.39014 65.3993 7.2628 64.7665 7.2628 64.1128C7.2628 63.4592 7.39014 62.8264 7.64224 62.2312C7.88499 61.6564 8.23718 61.1343 8.6792 60.694C9.12362 60.2495 9.6408 59.9013 10.2165 59.657C10.8103 59.4062 11.4432 59.2788 12.0968 59.2788C12.7504 59.2788 13.3832 59.4062 13.9784 59.6583C14.5532 59.901 15.0753 60.2532 15.5157 60.6953C15.9601 61.1397 16.3083 61.6569 16.5526 62.2325C16.8034 62.8264 16.9308 63.4592 16.9308 64.1128C16.9308 64.7665 16.8034 65.3993 16.5513 65.9944C16.3089 66.569 15.9566 67.0907 15.5144 67.5304ZM14.072 64.3857H13.4469C13.3923 64.3857 13.3456 64.4273 13.3417 64.4819C13.2923 65.1251 12.753 65.6332 12.0968 65.6332C11.4406 65.6332 10.9 65.1251 10.8519 64.4819C10.848 64.4273 10.8012 64.3857 10.7466 64.3857H10.1216C10.1075 64.3857 10.0935 64.3886 10.0806 64.3941C10.0676 64.3996 10.0559 64.4078 10.0462 64.418C10.0365 64.4282 10.0289 64.4403 10.024 64.4535C10.0191 64.4667 10.0169 64.4808 10.0176 64.4949C10.0748 65.5903 10.9857 66.4649 12.0968 66.4649C13.2078 66.4649 14.1187 65.5903 14.1759 64.4949C14.1766 64.4808 14.1745 64.4667 14.1695 64.4535C14.1646 64.4403 14.1571 64.4282 14.1474 64.418C14.1376 64.4078 14.1259 64.3996 14.113 64.3941C14.1 64.3886 14.0861 64.3857 14.072 64.3857Z" fill="#E5E5E5"/>
<path d="M12.0968 -4.36233e-07C18.6925 -1.98377e-07 23.959 5.49602 23.6777 12.0858L22.5022 39.626C22.2643 45.2002 17.676 49.5968 12.0968 49.5968C6.51752 49.5968 1.92927 45.2002 1.69135 39.626L0.515848 12.0858C0.234579 5.49601 5.50102 -6.74088e-07 12.0968 -4.36233e-07Z" fill="#449DD1"/>
</svg>
