<svg width="193" height="193" viewBox="0 0 193 193" fill="none" xmlns="http://www.w3.org/2000/svg">
<path d="M36.1875 36.1875C36.1875 29.7892 38.7292 23.6529 43.2535 19.1285C47.7779 14.6042 53.9142 12.0625 60.3125 12.0625C66.7108 12.0625 72.8471 14.6042 77.3715 19.1285C81.8958 23.6529 84.4375 29.7892 84.4375 36.1875C84.4375 42.5858 81.8958 48.7221 77.3715 53.2465C72.8471 57.7708 66.7108 60.3125 60.3125 60.3125C53.9142 60.3125 47.7779 57.7708 43.2535 53.2465C38.7292 48.7221 36.1875 42.5858 36.1875 36.1875Z" fill="#E5E5E5"/>
<path d="M117.959 55.2945L118.466 55.6805C123.584 59.4743 129.995 61.0896 136.299 60.1739C142.604 59.2583 148.29 55.8861 152.118 50.7932C155.945 45.7003 157.603 39.3003 156.729 32.9898C155.855 26.6792 152.52 20.9706 147.453 17.1096C142.385 13.2487 135.996 11.5489 129.68 12.3812C123.364 13.2135 117.633 16.5104 113.739 21.5523C109.845 26.5942 108.103 32.9718 108.893 39.2933C109.684 45.6148 112.943 51.367 117.959 55.2945Z" fill="#E5E5E5"/>
<path d="M75.6088 72.3761C77.1238 69.5072 79.202 66.9734 81.719 64.9262C84.2359 62.879 87.14 61.3605 90.2573 60.4616C93.3747 59.5627 96.6413 59.3018 99.8619 59.6945C103.082 60.0872 106.191 61.1255 109.001 62.7472C111.811 64.3689 114.265 66.5407 116.216 69.1328C118.167 71.7248 119.576 74.6838 120.357 77.8327C121.138 80.9816 121.276 84.2558 120.763 87.4593C120.249 90.6628 119.095 93.7299 117.369 96.477C114.049 101.762 108.809 105.554 102.751 107.057C96.6932 108.56 90.2886 107.657 84.8827 104.537C79.4769 101.417 75.4906 96.3236 73.7612 90.3265C72.0318 84.3293 72.6941 77.8953 75.6088 72.3761Z" fill="#E5E5E5"/>
<path d="M30.1563 72.375H62.3631C61.0363 76.1506 60.3125 80.2156 60.3125 84.4375C60.3125 93.7015 63.7986 102.169 69.5283 108.562H66.3438C60.1248 108.562 54.0575 110.483 48.9724 114.063C43.8872 117.643 40.0328 122.707 37.9366 128.562C33.8876 126.936 30.0965 124.729 26.6823 122.012C17.6112 114.714 12.0625 103.93 12.0625 90.4687C12.0625 85.67 13.9688 81.0678 17.362 77.6745C20.7553 74.2813 25.3575 72.375 30.1563 72.375Z" fill="#E5E5E5"/>
<path d="M126.657 108.562C139.745 108.562 150.891 116.898 155.052 128.562C159.154 126.885 162.953 124.702 166.319 122.012C175.39 114.714 180.938 103.93 180.938 90.4687C180.938 85.67 179.032 81.0678 175.639 77.6745C172.246 74.2813 167.643 72.375 162.845 72.375H130.638C131.965 76.1506 132.688 80.2156 132.688 84.4375C132.7 93.341 129.417 101.934 123.473 108.562H126.657Z" fill="#E5E5E5"/>
<path d="M143.387 131.819C144.268 133.942 144.75 136.282 144.75 138.719C144.75 152.181 139.213 162.964 130.13 170.262C121.192 177.439 109.202 180.938 96.5001 180.938C83.7983 180.938 71.8081 177.439 62.8698 170.262C53.7988 162.964 48.2501 152.181 48.2501 138.719C48.2437 136.341 48.7074 133.985 49.6144 131.787C50.5214 129.589 51.854 127.592 53.5354 125.91C55.2168 124.229 57.214 122.896 59.4121 121.989C61.6102 121.082 63.9659 120.619 66.3438 120.625H126.656C130.24 120.624 133.743 121.688 136.722 123.681C139.701 125.674 142.02 128.506 143.387 131.819Z" fill="#E5E5E5"/>
</svg>
