<svg width="16" height="16" viewBox="0 0 16 16" fill="none" xmlns="http://www.w3.org/2000/svg">
<path d="M8 4.5C8.39556 4.5 8.78224 4.3827 9.11114 4.16294C9.44004 3.94318 9.69638 3.63082 9.84776 3.26537C9.99913 2.89992 10.0387 2.49778 9.96157 2.10982C9.8844 1.72186 9.69392 1.36549 9.41421 1.08579C9.13451 0.806082 8.77814 0.615601 8.39018 0.53843C8.00222 0.46126 7.60009 0.500867 7.23463 0.652242C6.86918 0.803617 6.55682 1.05996 6.33706 1.38886C6.1173 1.71776 6 2.10444 6 2.5C6.0006 3.03025 6.2115 3.53861 6.58644 3.91356C6.96139 4.2885 7.46975 4.49941 8 4.5ZM8 1.5C8.19778 1.5 8.39112 1.55865 8.55557 1.66853C8.72002 1.77841 8.84819 1.93459 8.92388 2.11732C8.99957 2.30004 9.01937 2.50111 8.98079 2.69509C8.9422 2.88907 8.84696 3.06726 8.70711 3.20711C8.56725 3.34696 8.38907 3.4422 8.19509 3.48079C8.00111 3.51937 7.80004 3.49957 7.61732 3.42388C7.43459 3.34819 7.27841 3.22002 7.16853 3.05557C7.05865 2.89112 7 2.69778 7 2.5C7.0003 2.23488 7.10575 1.98069 7.29322 1.79322C7.48069 1.60575 7.73487 1.5003 8 1.5Z" fill="#E5E5E5"/>
<path d="M8 11.5C7.60444 11.5 7.21776 11.6173 6.88886 11.8371C6.55996 12.0568 6.30362 12.3692 6.15224 12.7346C6.00087 13.1001 5.96126 13.5022 6.03843 13.8902C6.1156 14.2781 6.30608 14.6345 6.58579 14.9142C6.86549 15.1939 7.22186 15.3844 7.60982 15.4616C7.99778 15.5387 8.39992 15.4991 8.76537 15.3478C9.13082 15.1964 9.44318 14.94 9.66294 14.6111C9.8827 14.2822 10 13.8956 10 13.5C9.99941 12.9697 9.7885 12.4614 9.41356 12.0864C9.03861 11.7115 8.53025 11.5006 8 11.5ZM8 14.5C7.80222 14.5 7.60888 14.4414 7.44443 14.3315C7.27998 14.2216 7.15181 14.0654 7.07612 13.8827C7.00043 13.7 6.98063 13.4989 7.01922 13.3049C7.0578 13.1109 7.15304 12.9327 7.29289 12.7929C7.43275 12.653 7.61093 12.5578 7.80491 12.5192C7.99889 12.4806 8.19996 12.5004 8.38268 12.5761C8.56541 12.6518 8.72159 12.78 8.83147 12.9444C8.94135 13.1089 9 13.3022 9 13.5C8.9997 13.7651 8.89425 14.0193 8.70678 14.2068C8.51931 14.3942 8.26513 14.4997 8 14.5Z" fill="#E5E5E5"/>
<path d="M8 6C7.60444 6 7.21776 6.1173 6.88886 6.33706C6.55996 6.55682 6.30362 6.86918 6.15224 7.23463C6.00087 7.60009 5.96126 8.00222 6.03843 8.39018C6.1156 8.77814 6.30608 9.13451 6.58579 9.41421C6.86549 9.69392 7.22186 9.8844 7.60982 9.96157C7.99778 10.0387 8.39992 9.99913 8.76537 9.84776C9.13082 9.69638 9.44318 9.44004 9.66294 9.11114C9.8827 8.78224 10 8.39556 10 8C9.99941 7.46975 9.7885 6.96139 9.41356 6.58644C9.03861 6.2115 8.53025 6.0006 8 6V6ZM8 9C7.80222 9 7.60888 8.94135 7.44443 8.83147C7.27998 8.72159 7.15181 8.56541 7.07612 8.38268C7.00043 8.19996 6.98063 7.99889 7.01922 7.80491C7.0578 7.61093 7.15304 7.43275 7.29289 7.29289C7.43275 7.15304 7.61093 7.0578 7.80491 7.01921C7.99889 6.98063 8.19996 7.00043 8.38268 7.07612C8.56541 7.15181 8.72159 7.27998 8.83147 7.44443C8.94135 7.60888 9 7.80222 9 8C8.9997 8.26513 8.89425 8.51931 8.70678 8.70678C8.51931 8.89425 8.26513 8.9997 8 9Z" fill="#E5E5E5"/>
</svg>
