<svg width="53" height="84" viewBox="0 0 53 84" fill="none" xmlns="http://www.w3.org/2000/svg">
<rect x="15" y="61.7256" width="21.7742" height="21.7742" rx="10.8871" fill="#449DD1"/>
<path d="M22.9763 71.4301C22.9763 71.5955 23.042 71.7542 23.159 71.8711C23.276 71.9881 23.4346 72.0538 23.6 72.0538C23.7655 72.0538 23.9241 71.9881 24.0411 71.8711C24.1581 71.7542 24.2238 71.5955 24.2238 71.4301C24.2238 71.2647 24.1581 71.106 24.0411 70.989C23.9241 70.8721 23.7655 70.8063 23.6 70.8063C23.4346 70.8063 23.276 70.8721 23.159 70.989C23.042 71.106 22.9763 71.2647 22.9763 71.4301ZM27.5504 71.4301C27.5504 71.5955 27.6161 71.7542 27.7331 71.8711C27.8501 71.9881 28.0087 72.0538 28.1741 72.0538C28.3396 72.0538 28.4982 71.9881 28.6152 71.8711C28.7322 71.7542 28.7979 71.5955 28.7979 71.4301C28.7979 71.2647 28.7322 71.106 28.6152 70.989C28.4982 70.8721 28.3396 70.8063 28.1741 70.8063C28.0087 70.8063 27.8501 70.8721 27.7331 70.989C27.6161 71.106 27.5504 71.2647 27.5504 71.4301ZM25.8871 66.791C22.6722 66.791 20.0655 69.3977 20.0655 72.6126C20.0655 75.8274 22.6722 78.4342 25.8871 78.4342C29.102 78.4342 31.7087 75.8274 31.7087 72.6126C31.7087 69.3977 29.102 66.791 25.8871 66.791ZM29.3047 76.0302C28.8603 76.4746 28.3431 76.8228 27.7674 77.0671C27.1736 77.3192 26.5407 77.4466 25.8871 77.4466C25.2335 77.4466 24.6006 77.3192 24.0055 77.0671C23.4307 76.8244 22.9086 76.4722 22.4682 76.0302C22.0238 75.5857 21.6755 75.0686 21.4313 74.4929C21.1805 73.8991 21.0531 73.2662 21.0531 72.6126C21.0531 71.959 21.1805 71.3261 21.4326 70.731C21.6753 70.1562 22.0275 69.6341 22.4695 69.1937C22.9139 68.7493 23.4311 68.401 24.0068 68.1567C24.6006 67.906 25.2335 67.7786 25.8871 67.7786C26.5407 67.7786 27.1736 67.906 27.7687 68.158C28.3435 68.4008 28.8656 68.753 29.306 69.195C29.7504 69.6394 30.0986 70.1566 30.3429 70.7323C30.5937 71.3261 30.7211 71.959 30.7211 72.6126C30.7211 73.2662 30.5937 73.8991 30.3416 74.4942C30.0992 75.0688 29.7469 75.5905 29.3047 76.0302ZM27.8623 72.8855H27.2372C27.1827 72.8855 27.1359 72.9271 27.132 72.9816C27.0826 73.6249 26.5433 74.133 25.8871 74.133C25.2309 74.133 24.6903 73.6249 24.6422 72.9816C24.6383 72.9271 24.5915 72.8855 24.537 72.8855H23.9119C23.8978 72.8855 23.8839 72.8883 23.8709 72.8939C23.8579 72.8994 23.8462 72.9075 23.8365 72.9177C23.8268 72.9279 23.8192 72.94 23.8143 72.9532C23.8094 72.9665 23.8073 72.9805 23.808 72.9946C23.8651 74.0901 24.7761 74.9646 25.8871 74.9646C26.9981 74.9646 27.9091 74.0901 27.9662 72.9946C27.9669 72.9805 27.9648 72.9665 27.9599 72.9532C27.9549 72.94 27.9474 72.9279 27.9377 72.9177C27.928 72.9075 27.9163 72.8994 27.9033 72.8939C27.8903 72.8883 27.8764 72.8855 27.8623 72.8855Z" fill="#E5E5E5"/>
<path d="M49.7511 10.5379C47.5999 7.28993 44.5252 4.69205 40.6042 2.8101C36.7078 0.946459 32.1699 0 27.1132 0C21.6678 0 16.8184 1.13185 12.711 3.36749C8.59867 5.60557 5.42216 8.47666 3.26728 11.9015C1.10013 15.3434 0 18.8036 0 22.1893C0 23.9981 0.757949 25.6849 2.24319 27.2009C3.73578 28.7243 5.59263 29.4963 7.76223 29.4963C11.4661 29.4963 13.9853 27.3363 15.2706 23.1004C16.4406 19.5963 17.8817 16.9241 19.5509 15.1555C21.1195 13.487 23.6644 12.6406 27.1132 12.6406C30.0874 12.6406 32.4336 13.47 34.2941 15.1787C36.1277 16.8631 37.0218 18.8743 37.0218 21.3258C37.0318 22.5125 36.7313 23.6814 36.1497 24.7177C35.5288 25.8214 34.7578 26.8347 33.8587 27.729C32.9058 28.6779 31.3335 30.105 29.1835 31.9759C26.6791 34.1591 24.6591 36.0703 23.1873 37.6571C21.6241 39.3485 20.3705 41.2989 19.4835 43.42C18.5538 45.6069 18.0804 48.2218 18.0804 51.1832C18.0804 53.714 18.7905 55.674 20.1923 57.0071C21.5795 58.3268 23.3075 59 25.33 59C29.197 59 31.6278 56.8997 32.3514 52.9663C32.7181 51.3332 32.9953 50.1904 33.1805 49.5391C33.3485 48.9475 33.5901 48.3426 33.9016 47.7364C34.2034 47.1485 34.6841 46.4789 35.328 45.7484C36.0013 44.9787 36.9089 44.0738 38.0238 43.0639C42.19 39.3573 45.1311 36.6741 46.7622 35.0873C48.4449 33.4529 49.9106 31.4868 51.1223 29.2463C52.3708 26.9521 53 24.2518 53 21.2221C53 17.3948 51.9085 13.7993 49.756 10.5391" fill="#449DD1"/>
</svg>
