<svg width="513" height="123" viewBox="0 0 513 123" fill="none" xmlns="http://www.w3.org/2000/svg">
<rect x="480.7" y="91.8" width="30.6" height="30.6" rx="15.3" fill="#449DD1"/>
<path d="M491.909 105.438C491.909 105.671 492.002 105.894 492.166 106.058C492.331 106.223 492.554 106.315 492.786 106.315C493.019 106.315 493.241 106.223 493.406 106.058C493.57 105.894 493.663 105.671 493.663 105.438C493.663 105.206 493.57 104.983 493.406 104.819C493.241 104.654 493.019 104.562 492.786 104.562C492.554 104.562 492.331 104.654 492.166 104.819C492.002 104.983 491.909 105.206 491.909 105.438ZM498.338 105.438C498.338 105.671 498.43 105.894 498.594 106.058C498.759 106.223 498.982 106.315 499.214 106.315C499.447 106.315 499.67 106.223 499.834 106.058C499.998 105.894 500.091 105.671 500.091 105.438C500.091 105.206 499.998 104.983 499.834 104.819C499.67 104.654 499.447 104.562 499.214 104.562C498.982 104.562 498.759 104.654 498.594 104.819C498.43 104.983 498.338 105.206 498.338 105.438ZM496 98.9189C491.482 98.9189 487.819 102.582 487.819 107.1C487.819 111.618 491.482 115.281 496 115.281C500.518 115.281 504.181 111.618 504.181 107.1C504.181 102.582 500.518 98.9189 496 98.9189ZM500.803 111.903C500.178 112.528 499.452 113.017 498.643 113.36C497.808 113.715 496.919 113.894 496 113.894C495.082 113.894 494.192 113.715 493.356 113.36C492.548 113.019 491.814 112.524 491.195 111.903C490.571 111.278 490.081 110.552 489.738 109.743C489.386 108.908 489.207 108.019 489.207 107.1C489.207 106.182 489.386 105.292 489.74 104.456C490.081 103.648 490.576 102.914 491.197 102.296C491.822 101.671 492.549 101.182 493.358 100.838C494.192 100.486 495.082 100.307 496 100.307C496.919 100.307 497.808 100.486 498.644 100.84C499.452 101.181 500.186 101.676 500.805 102.297C501.429 102.922 501.919 103.649 502.262 104.458C502.614 105.292 502.793 106.182 502.793 107.1C502.793 108.019 502.614 108.908 502.26 109.744C501.919 110.552 501.424 111.285 500.803 111.903ZM498.776 107.484H497.897C497.821 107.484 497.755 107.542 497.75 107.619C497.68 108.523 496.922 109.237 496 109.237C495.078 109.237 494.318 108.523 494.251 107.619C494.245 107.542 494.179 107.484 494.103 107.484H493.224C493.205 107.484 493.185 107.488 493.167 107.495C493.148 107.503 493.132 107.515 493.118 107.529C493.105 107.543 493.094 107.56 493.087 107.579C493.08 107.598 493.077 107.617 493.078 107.637C493.159 109.177 494.439 110.406 496 110.406C497.561 110.406 498.842 109.177 498.922 107.637C498.923 107.617 498.92 107.598 498.913 107.579C498.906 107.56 498.896 107.543 498.882 107.529C498.868 107.515 498.852 107.503 498.834 107.495C498.815 107.488 498.796 107.484 498.776 107.484Z" fill="#E5E5E5"/>
<path d="M496.303 17C505.407 17 512.676 24.5863 512.288 33.6823L510.623 72.6878C510.289 80.5213 503.841 86.7 496 86.7C488.159 86.7 481.711 80.5213 481.377 72.6878L479.712 33.6823C479.324 24.5863 486.593 17 495.697 17L496.303 17Z" fill="#449DD1"/>
<path d="M32.6719 83.9844C32.6719 82.3281 31.8438 81.0312 30.1875 80.0938C28.5625 79.125 25.9375 78.2656 22.3125 77.5156C10.25 74.9844 4.21875 69.8594 4.21875 62.1406C4.21875 57.6406 6.07812 53.8906 9.79688 50.8906C13.5469 47.8594 18.4375 46.3438 24.4688 46.3438C30.9062 46.3438 36.0469 47.8594 39.8906 50.8906C43.7656 53.9219 45.7031 57.8594 45.7031 62.7031H32.1562C32.1562 60.7656 31.5312 59.1719 30.2812 57.9219C29.0312 56.6406 27.0781 56 24.4219 56C22.1406 56 20.375 56.5156 19.125 57.5469C17.875 58.5781 17.25 59.8906 17.25 61.4844C17.25 62.9844 17.9531 64.2031 19.3594 65.1406C20.7969 66.0469 23.2031 66.8438 26.5781 67.5312C29.9531 68.1875 32.7969 68.9375 35.1094 69.7812C42.2656 72.4062 45.8438 76.9531 45.8438 83.4219C45.8438 88.0469 43.8594 91.7969 39.8906 94.6719C35.9219 97.5156 30.7969 98.9375 24.5156 98.9375C20.2656 98.9375 16.4844 98.1875 13.1719 96.6875C9.89062 95.1562 7.3125 93.0781 5.4375 90.4531C3.5625 87.7969 2.625 84.9375 2.625 81.875H15.4688C15.5938 84.2812 16.4844 86.125 18.1406 87.4062C19.7969 88.6875 22.0156 89.3281 24.7969 89.3281C27.3906 89.3281 29.3438 88.8438 30.6562 87.875C32 86.875 32.6719 85.5781 32.6719 83.9844ZM100.266 73.1094C100.266 80.9219 98.4844 87.1875 94.9219 91.9062C91.3906 96.5938 86.6094 98.9375 80.5781 98.9375C75.4531 98.9375 71.3125 97.1562 68.1562 93.5938V117.5H54.6094V47.2812H67.1719L67.6406 52.25C70.9219 48.3125 75.2031 46.3438 80.4844 46.3438C86.7344 46.3438 91.5938 48.6562 95.0625 53.2812C98.5312 57.9062 100.266 64.2812 100.266 72.4062V73.1094ZM86.7188 72.125C86.7188 67.4062 85.875 63.7656 84.1875 61.2031C82.5312 58.6406 80.1094 57.3594 76.9219 57.3594C72.6719 57.3594 69.75 58.9844 68.1562 62.2344V83C69.8125 86.3438 72.7656 88.0156 77.0156 88.0156C83.4844 88.0156 86.7188 82.7188 86.7188 72.125ZM132.047 98.9375C124.609 98.9375 118.547 96.6562 113.859 92.0938C109.203 87.5312 106.875 81.4531 106.875 73.8594V72.5469C106.875 67.4531 107.859 62.9062 109.828 58.9062C111.797 54.875 114.578 51.7812 118.172 49.625C121.797 47.4375 125.922 46.3438 130.547 46.3438C137.484 46.3438 142.938 48.5312 146.906 52.9062C150.906 57.2812 152.906 63.4844 152.906 71.5156V77.0469H120.609C121.047 80.3594 122.359 83.0156 124.547 85.0156C126.766 87.0156 129.562 88.0156 132.938 88.0156C138.156 88.0156 142.234 86.125 145.172 82.3438L151.828 89.7969C149.797 92.6719 147.047 94.9219 143.578 96.5469C140.109 98.1406 136.266 98.9375 132.047 98.9375ZM130.5 57.3125C127.812 57.3125 125.625 58.2188 123.938 60.0312C122.281 61.8438 121.219 64.4375 120.75 67.8125H139.594V66.7344C139.531 63.7344 138.719 61.4219 137.156 59.7969C135.594 58.1406 133.375 57.3125 130.5 57.3125ZM190.031 98C189.406 96.7812 188.953 95.2656 188.672 93.4531C185.391 97.1094 181.125 98.9375 175.875 98.9375C170.906 98.9375 166.781 97.5 163.5 94.625C160.25 91.75 158.625 88.125 158.625 83.75C158.625 78.375 160.609 74.25 164.578 71.375C168.578 68.5 174.344 67.0469 181.875 67.0156H188.109V64.1094C188.109 61.7656 187.5 59.8906 186.281 58.4844C185.094 57.0781 183.203 56.375 180.609 56.375C178.328 56.375 176.531 56.9219 175.219 58.0156C173.938 59.1094 173.297 60.6094 173.297 62.5156H159.75C159.75 59.5781 160.656 56.8594 162.469 54.3594C164.281 51.8594 166.844 49.9062 170.156 48.5C173.469 47.0625 177.188 46.3438 181.312 46.3438C187.562 46.3438 192.516 47.9219 196.172 51.0781C199.859 54.2031 201.703 58.6094 201.703 64.2969V86.2812C201.734 91.0938 202.406 94.7344 203.719 97.2031V98H190.031ZM178.828 88.5781C180.828 88.5781 182.672 88.1406 184.359 87.2656C186.047 86.3594 187.297 85.1562 188.109 83.6562V74.9375H183.047C176.266 74.9375 172.656 77.2812 172.219 81.9688L172.172 82.7656C172.172 84.4531 172.766 85.8438 173.953 86.9375C175.141 88.0312 176.766 88.5781 178.828 88.5781ZM230.531 77.6562L225.656 82.5312V98H212.109V26H225.656V65.8906L228.281 62.5156L241.266 47.2812H257.531L239.203 68.4219L259.125 98H243.562L230.531 77.6562ZM305.344 68.4219H278.344V86.7031H310.031V98H264.281V29.75H309.938V41.1406H278.344V57.4062H305.344V68.4219ZM346.781 98C346.156 96.7812 345.703 95.2656 345.422 93.4531C342.141 97.1094 337.875 98.9375 332.625 98.9375C327.656 98.9375 323.531 97.5 320.25 94.625C317 91.75 315.375 88.125 315.375 83.75C315.375 78.375 317.359 74.25 321.328 71.375C325.328 68.5 331.094 67.0469 338.625 67.0156H344.859V64.1094C344.859 61.7656 344.25 59.8906 343.031 58.4844C341.844 57.0781 339.953 56.375 337.359 56.375C335.078 56.375 333.281 56.9219 331.969 58.0156C330.688 59.1094 330.047 60.6094 330.047 62.5156H316.5C316.5 59.5781 317.406 56.8594 319.219 54.3594C321.031 51.8594 323.594 49.9062 326.906 48.5C330.219 47.0625 333.938 46.3438 338.062 46.3438C344.312 46.3438 349.266 47.9219 352.922 51.0781C356.609 54.2031 358.453 58.6094 358.453 64.2969V86.2812C358.484 91.0938 359.156 94.7344 360.469 97.2031V98H346.781ZM335.578 88.5781C337.578 88.5781 339.422 88.1406 341.109 87.2656C342.797 86.3594 344.047 85.1562 344.859 83.6562V74.9375H339.797C333.016 74.9375 329.406 77.2812 328.969 81.9688L328.922 82.7656C328.922 84.4531 329.516 85.8438 330.703 86.9375C331.891 88.0312 333.516 88.5781 335.578 88.5781ZM396.328 83.9844C396.328 82.3281 395.5 81.0312 393.844 80.0938C392.219 79.125 389.594 78.2656 385.969 77.5156C373.906 74.9844 367.875 69.8594 367.875 62.1406C367.875 57.6406 369.734 53.8906 373.453 50.8906C377.203 47.8594 382.094 46.3438 388.125 46.3438C394.562 46.3438 399.703 47.8594 403.547 50.8906C407.422 53.9219 409.359 57.8594 409.359 62.7031H395.812C395.812 60.7656 395.188 59.1719 393.938 57.9219C392.688 56.6406 390.734 56 388.078 56C385.797 56 384.031 56.5156 382.781 57.5469C381.531 58.5781 380.906 59.8906 380.906 61.4844C380.906 62.9844 381.609 64.2031 383.016 65.1406C384.453 66.0469 386.859 66.8438 390.234 67.5312C393.609 68.1875 396.453 68.9375 398.766 69.7812C405.922 72.4062 409.5 76.9531 409.5 83.4219C409.5 88.0469 407.516 91.7969 403.547 94.6719C399.578 97.5156 394.453 98.9375 388.172 98.9375C383.922 98.9375 380.141 98.1875 376.828 96.6875C373.547 95.1562 370.969 93.0781 369.094 90.4531C367.219 87.7969 366.281 84.9375 366.281 81.875H379.125C379.25 84.2812 380.141 86.125 381.797 87.4062C383.453 88.6875 385.672 89.3281 388.453 89.3281C391.047 89.3281 393 88.8438 394.312 87.875C395.656 86.875 396.328 85.5781 396.328 83.9844ZM437.203 78.8281L446.578 47.2812H461.109L440.719 105.875L439.594 108.547C436.562 115.172 431.562 118.484 424.594 118.484C422.625 118.484 420.625 118.188 418.594 117.594V107.328L420.656 107.375C423.219 107.375 425.125 106.984 426.375 106.203C427.656 105.422 428.656 104.125 429.375 102.312L430.969 98.1406L413.203 47.2812H427.781L437.203 78.8281Z" fill="#E5E5E5"/>
<path d="M399.559 15.0742C399.559 13.3086 399.793 11.6133 400.262 9.98828C400.738 8.36328 401.445 6.88672 402.383 5.55859C403.32 4.23047 404.293 3.29297 405.301 2.74609L405.746 4.17578C404.605 5.05078 403.668 6.38672 402.934 8.18359C402.207 9.98047 401.809 11.9922 401.738 14.2188L401.727 15.2148C401.727 18.2305 402.277 20.8477 403.379 23.0664C404.043 24.3945 404.832 25.4336 405.746 26.1836L405.301 27.5078C404.262 26.9297 403.27 25.9609 402.324 24.6016C400.48 21.9453 399.559 18.7695 399.559 15.0742ZM459.957 15.1914C459.957 16.9336 459.727 18.6055 459.266 20.207C458.812 21.8008 458.113 23.2734 457.168 24.625C456.23 25.9766 455.246 26.9375 454.215 27.5078L453.758 26.1836C454.961 25.2617 455.926 23.832 456.652 21.8945C457.387 19.9492 457.762 17.793 457.777 15.4258V15.0508C457.777 13.4102 457.605 11.8867 457.262 10.4805C456.918 9.06641 456.438 7.80078 455.82 6.68359C455.211 5.56641 454.523 4.69531 453.758 4.07031L454.215 2.74609C455.246 3.31641 456.227 4.26953 457.156 5.60547C458.094 6.94141 458.793 8.41406 459.254 10.0234C459.723 11.6328 459.957 13.3555 459.957 15.1914Z" fill="#449DD1"/>
<path d="M418.578 15.8008C418.578 17.7383 418.133 19.2969 417.242 20.4766C416.352 21.6484 415.156 22.2344 413.656 22.2344C412.055 22.2344 410.816 21.668 409.941 20.5352L409.836 22H407.844V4H410.012V10.7148C410.887 9.62891 412.094 9.08594 413.633 9.08594C415.172 9.08594 416.379 9.66797 417.254 10.832C418.137 11.9961 418.578 13.5898 418.578 15.6133V15.8008ZM416.41 15.5547C416.41 14.0781 416.125 12.9375 415.555 12.1328C414.984 11.3281 414.164 10.9258 413.094 10.9258C411.664 10.9258 410.637 11.5898 410.012 12.918V18.4023C410.676 19.7305 411.711 20.3945 413.117 20.3945C414.156 20.3945 414.965 19.9922 415.543 19.1875C416.121 18.3828 416.41 17.1719 416.41 15.5547ZM426.582 22.2344C424.863 22.2344 423.465 21.6719 422.387 20.5469C421.309 19.4141 420.77 17.9023 420.77 16.0117V15.6133C420.77 14.3555 421.008 13.2344 421.484 12.25C421.969 11.2578 422.641 10.4844 423.5 9.92969C424.367 9.36719 425.305 9.08594 426.312 9.08594C427.961 9.08594 429.242 9.62891 430.156 10.7148C431.07 11.8008 431.527 13.3555 431.527 15.3789V16.2812H422.938C422.969 17.5312 423.332 18.543 424.027 19.3164C424.73 20.082 425.621 20.4648 426.699 20.4648C427.465 20.4648 428.113 20.3086 428.645 19.9961C429.176 19.6836 429.641 19.2695 430.039 18.7539L431.363 19.7852C430.301 21.418 428.707 22.2344 426.582 22.2344ZM426.312 10.8672C425.438 10.8672 424.703 11.1875 424.109 11.8281C423.516 12.4609 423.148 13.3516 423.008 14.5H429.359V14.3359C429.297 13.2344 429 12.3828 428.469 11.7812C427.938 11.1719 427.219 10.8672 426.312 10.8672ZM436.988 6.25V9.32031H439.355V10.9961H436.988V18.8594C436.988 19.3672 437.094 19.75 437.305 20.0078C437.516 20.2578 437.875 20.3828 438.383 20.3828C438.633 20.3828 438.977 20.3359 439.414 20.2422V22C438.844 22.1562 438.289 22.2344 437.75 22.2344C436.781 22.2344 436.051 21.9414 435.559 21.3555C435.066 20.7695 434.82 19.9375 434.82 18.8594V10.9961H432.512V9.32031H434.82V6.25H436.988ZM449.727 22C449.602 21.75 449.5 21.3047 449.422 20.6641C448.414 21.7109 447.211 22.2344 445.812 22.2344C444.562 22.2344 443.535 21.8828 442.73 21.1797C441.934 20.4688 441.535 19.5703 441.535 18.4844C441.535 17.1641 442.035 16.1406 443.035 15.4141C444.043 14.6797 445.457 14.3125 447.277 14.3125H449.387V13.3164C449.387 12.5586 449.16 11.957 448.707 11.5117C448.254 11.0586 447.586 10.832 446.703 10.832C445.93 10.832 445.281 11.0273 444.758 11.418C444.234 11.8086 443.973 12.2812 443.973 12.8359H441.793C441.793 12.2031 442.016 11.5938 442.461 11.0078C442.914 10.4141 443.523 9.94531 444.289 9.60156C445.062 9.25781 445.91 9.08594 446.832 9.08594C448.293 9.08594 449.438 9.45312 450.266 10.1875C451.094 10.9141 451.523 11.918 451.555 13.1992V19.0352C451.555 20.1992 451.703 21.125 452 21.8125V22H449.727ZM446.129 20.3477C446.809 20.3477 447.453 20.1719 448.062 19.8203C448.672 19.4688 449.113 19.0117 449.387 18.4492V15.8477H447.688C445.031 15.8477 443.703 16.625 443.703 18.1797C443.703 18.8594 443.93 19.3906 444.383 19.7734C444.836 20.1562 445.418 20.3477 446.129 20.3477Z" fill="#E5E5E5"/>
</svg>
