<svg width="360" height="86" viewBox="0 0 360 86" fill="none" xmlns="http://www.w3.org/2000/svg">
<rect x="336.21" y="60.2258" width="21.7742" height="21.7742" rx="10.8871" fill="#449DD1"/>
<path d="M344.186 69.9303C344.186 70.0958 344.252 70.2544 344.369 70.3714C344.486 70.4883 344.644 70.5541 344.81 70.5541C344.975 70.5541 345.134 70.4883 345.251 70.3714C345.368 70.2544 345.433 70.0958 345.433 69.9303C345.433 69.7649 345.368 69.6062 345.251 69.4893C345.134 69.3723 344.975 69.3066 344.81 69.3066C344.644 69.3066 344.486 69.3723 344.369 69.4893C344.252 69.6062 344.186 69.7649 344.186 69.9303ZM348.76 69.9303C348.76 70.0958 348.826 70.2544 348.943 70.3714C349.06 70.4883 349.218 70.5541 349.384 70.5541C349.549 70.5541 349.708 70.4883 349.825 70.3714C349.942 70.2544 350.008 70.0958 350.008 69.9303C350.008 69.7649 349.942 69.6062 349.825 69.4893C349.708 69.3723 349.549 69.3066 349.384 69.3066C349.218 69.3066 349.06 69.3723 348.943 69.4893C348.826 69.6062 348.76 69.7649 348.76 69.9303ZM347.097 65.2913C343.882 65.2913 341.275 67.898 341.275 71.1128C341.275 74.3277 343.882 76.9344 347.097 76.9344C350.312 76.9344 352.918 74.3277 352.918 71.1128C352.918 67.898 350.312 65.2913 347.097 65.2913ZM350.514 74.5304C350.07 74.9748 349.553 75.3231 348.977 75.5674C348.383 75.8195 347.75 75.9468 347.097 75.9468C346.443 75.9468 345.81 75.8195 345.215 75.5674C344.64 75.3246 344.118 74.9724 343.678 74.5304C343.233 74.086 342.885 73.5688 342.641 72.9931C342.39 72.3993 342.263 71.7665 342.263 71.1128C342.263 70.4592 342.39 69.8264 342.642 69.2312C342.885 68.6564 343.237 68.1343 343.679 67.694C344.124 67.2495 344.641 66.9013 345.216 66.657C345.81 66.4062 346.443 66.2788 347.097 66.2788C347.75 66.2788 348.383 66.4062 348.978 66.6583C349.553 66.901 350.075 67.2532 350.516 67.6953C350.96 68.1397 351.308 68.6569 351.553 69.2325C351.803 69.8264 351.931 70.4592 351.931 71.1128C351.931 71.7665 351.803 72.3993 351.551 72.9944C351.309 73.569 350.957 74.0907 350.514 74.5304ZM349.072 71.3857H348.447C348.392 71.3857 348.345 71.4273 348.342 71.4819C348.292 72.1251 347.753 72.6332 347.097 72.6332C346.44 72.6332 345.9 72.1251 345.852 71.4819C345.848 71.4273 345.801 71.3857 345.747 71.3857H345.122C345.107 71.3857 345.093 71.3886 345.081 71.3941C345.068 71.3996 345.056 71.4078 345.046 71.418C345.036 71.4282 345.029 71.4403 345.024 71.4535C345.019 71.4667 345.017 71.4808 345.018 71.4949C345.075 72.5903 345.986 73.4649 347.097 73.4649C348.208 73.4649 349.119 72.5903 349.176 71.4949C349.177 71.4808 349.174 71.4667 349.169 71.4535C349.165 71.4403 349.157 71.4282 349.147 71.418C349.138 71.4078 349.126 71.3996 349.113 71.3941C349.1 71.3886 349.086 71.3857 349.072 71.3857Z" fill="#E5E5E5"/>
<path d="M347.097 7C353.693 7 358.959 12.496 358.678 19.0858L357.502 46.626C357.264 52.2002 352.676 56.5968 347.097 56.5968C341.518 56.5968 336.929 52.2002 336.691 46.626L335.516 19.0858C335.235 12.496 340.501 7 347.097 7Z" fill="#449DD1"/>
<path d="M21.7812 60.6562C21.7812 59.5521 21.2292 58.6875 20.125 58.0625C19.0417 57.4167 17.2917 56.8438 14.875 56.3438C6.83333 54.6562 2.8125 51.2396 2.8125 46.0938C2.8125 43.0938 4.05208 40.5938 6.53125 38.5938C9.03125 36.5729 12.2917 35.5625 16.3125 35.5625C20.6042 35.5625 24.0312 36.5729 26.5938 38.5938C29.1771 40.6146 30.4688 43.2396 30.4688 46.4688H21.4375C21.4375 45.1771 21.0208 44.1146 20.1875 43.2812C19.3542 42.4271 18.0521 42 16.2812 42C14.7604 42 13.5833 42.3438 12.75 43.0312C11.9167 43.7188 11.5 44.5938 11.5 45.6562C11.5 46.6562 11.9688 47.4688 12.9062 48.0938C13.8646 48.6979 15.4688 49.2292 17.7188 49.6875C19.9688 50.125 21.8646 50.625 23.4062 51.1875C28.1771 52.9375 30.5625 55.9688 30.5625 60.2812C30.5625 63.3646 29.2396 65.8646 26.5938 67.7812C23.9479 69.6771 20.5312 70.625 16.3438 70.625C13.5104 70.625 10.9896 70.125 8.78125 69.125C6.59375 68.1042 4.875 66.7188 3.625 64.9688C2.375 63.1979 1.75 61.2917 1.75 59.25H10.3125C10.3958 60.8542 10.9896 62.0833 12.0938 62.9375C13.1979 63.7917 14.6771 64.2188 16.5312 64.2188C18.2604 64.2188 19.5625 63.8958 20.4375 63.25C21.3333 62.5833 21.7812 61.7188 21.7812 60.6562ZM66.8438 53.4062C66.8438 58.6146 65.6562 62.7917 63.2812 65.9375C60.9271 69.0625 57.7396 70.625 53.7188 70.625C50.3021 70.625 47.5417 69.4375 45.4375 67.0625V83H36.4062V36.1875H44.7812L45.0938 39.5C47.2812 36.875 50.1354 35.5625 53.6562 35.5625C57.8229 35.5625 61.0625 37.1042 63.375 40.1875C65.6875 43.2708 66.8438 47.5208 66.8438 52.9375V53.4062ZM57.8125 52.75C57.8125 49.6042 57.25 47.1771 56.125 45.4688C55.0208 43.7604 53.4062 42.9062 51.2812 42.9062C48.4479 42.9062 46.5 43.9896 45.4375 46.1562V60C46.5417 62.2292 48.5104 63.3438 51.3438 63.3438C55.6562 63.3438 57.8125 59.8125 57.8125 52.75ZM88.0312 70.625C83.0729 70.625 79.0312 69.1042 75.9062 66.0625C72.8021 63.0208 71.25 58.9688 71.25 53.9062V53.0312C71.25 49.6354 71.9062 46.6042 73.2188 43.9375C74.5312 41.25 76.3854 39.1875 78.7812 37.75C81.1979 36.2917 83.9479 35.5625 87.0312 35.5625C91.6562 35.5625 95.2917 37.0208 97.9375 39.9375C100.604 42.8542 101.938 46.9896 101.938 52.3438V56.0312H80.4062C80.6979 58.2396 81.5729 60.0104 83.0312 61.3438C84.5104 62.6771 86.375 63.3438 88.625 63.3438C92.1042 63.3438 94.8229 62.0833 96.7812 59.5625L101.219 64.5312C99.8646 66.4479 98.0312 67.9479 95.7188 69.0312C93.4062 70.0938 90.8438 70.625 88.0312 70.625ZM87 42.875C85.2083 42.875 83.75 43.4792 82.625 44.6875C81.5208 45.8958 80.8125 47.625 80.5 49.875H93.0625V49.1562C93.0208 47.1562 92.4792 45.6146 91.4375 44.5312C90.3958 43.4271 88.9167 42.875 87 42.875ZM126.688 70C126.271 69.1875 125.969 68.1771 125.781 66.9688C123.594 69.4062 120.75 70.625 117.25 70.625C113.938 70.625 111.188 69.6667 109 67.75C106.833 65.8333 105.75 63.4167 105.75 60.5C105.75 56.9167 107.073 54.1667 109.719 52.25C112.385 50.3333 116.229 49.3646 121.25 49.3438H125.406V47.4062C125.406 45.8438 125 44.5938 124.188 43.6562C123.396 42.7188 122.135 42.25 120.406 42.25C118.885 42.25 117.688 42.6146 116.812 43.3438C115.958 44.0729 115.531 45.0729 115.531 46.3438H106.5C106.5 44.3854 107.104 42.5729 108.312 40.9062C109.521 39.2396 111.229 37.9375 113.438 37C115.646 36.0417 118.125 35.5625 120.875 35.5625C125.042 35.5625 128.344 36.6146 130.781 38.7188C133.24 40.8021 134.469 43.7396 134.469 47.5312V62.1875C134.49 65.3958 134.938 67.8229 135.812 69.4688V70H126.688ZM119.219 63.7188C120.552 63.7188 121.781 63.4271 122.906 62.8438C124.031 62.2396 124.865 61.4375 125.406 60.4375V54.625H122.031C117.51 54.625 115.104 56.1875 114.812 59.3125L114.781 59.8438C114.781 60.9688 115.177 61.8958 115.969 62.625C116.76 63.3542 117.844 63.7188 119.219 63.7188ZM153.688 56.4375L150.438 59.6875V70H141.406V22H150.438V48.5938L152.188 46.3438L160.844 36.1875H171.688L159.469 50.2812L172.75 70H162.375L153.688 56.4375ZM203.562 50.2812H185.562V62.4688H206.688V70H176.188V24.5H206.625V32.0938H185.562V42.9375H203.562V50.2812ZM231.188 70C230.771 69.1875 230.469 68.1771 230.281 66.9688C228.094 69.4062 225.25 70.625 221.75 70.625C218.438 70.625 215.688 69.6667 213.5 67.75C211.333 65.8333 210.25 63.4167 210.25 60.5C210.25 56.9167 211.573 54.1667 214.219 52.25C216.885 50.3333 220.729 49.3646 225.75 49.3438H229.906V47.4062C229.906 45.8438 229.5 44.5938 228.688 43.6562C227.896 42.7188 226.635 42.25 224.906 42.25C223.385 42.25 222.188 42.6146 221.312 43.3438C220.458 44.0729 220.031 45.0729 220.031 46.3438H211C211 44.3854 211.604 42.5729 212.812 40.9062C214.021 39.2396 215.729 37.9375 217.938 37C220.146 36.0417 222.625 35.5625 225.375 35.5625C229.542 35.5625 232.844 36.6146 235.281 38.7188C237.74 40.8021 238.969 43.7396 238.969 47.5312V62.1875C238.99 65.3958 239.438 67.8229 240.312 69.4688V70H231.188ZM223.719 63.7188C225.052 63.7188 226.281 63.4271 227.406 62.8438C228.531 62.2396 229.365 61.4375 229.906 60.4375V54.625H226.531C222.01 54.625 219.604 56.1875 219.312 59.3125L219.281 59.8438C219.281 60.9688 219.677 61.8958 220.469 62.625C221.26 63.3542 222.344 63.7188 223.719 63.7188ZM264.219 60.6562C264.219 59.5521 263.667 58.6875 262.562 58.0625C261.479 57.4167 259.729 56.8438 257.312 56.3438C249.271 54.6562 245.25 51.2396 245.25 46.0938C245.25 43.0938 246.49 40.5938 248.969 38.5938C251.469 36.5729 254.729 35.5625 258.75 35.5625C263.042 35.5625 266.469 36.5729 269.031 38.5938C271.615 40.6146 272.906 43.2396 272.906 46.4688H263.875C263.875 45.1771 263.458 44.1146 262.625 43.2812C261.792 42.4271 260.49 42 258.719 42C257.198 42 256.021 42.3438 255.188 43.0312C254.354 43.7188 253.938 44.5938 253.938 45.6562C253.938 46.6562 254.406 47.4688 255.344 48.0938C256.302 48.6979 257.906 49.2292 260.156 49.6875C262.406 50.125 264.302 50.625 265.844 51.1875C270.615 52.9375 273 55.9688 273 60.2812C273 63.3646 271.677 65.8646 269.031 67.7812C266.385 69.6771 262.969 70.625 258.781 70.625C255.948 70.625 253.427 70.125 251.219 69.125C249.031 68.1042 247.312 66.7188 246.062 64.9688C244.812 63.1979 244.188 61.2917 244.188 59.25H252.75C252.833 60.8542 253.427 62.0833 254.531 62.9375C255.635 63.7917 257.115 64.2188 258.969 64.2188C260.698 64.2188 262 63.8958 262.875 63.25C263.771 62.5833 264.219 61.7188 264.219 60.6562ZM291.469 57.2188L297.719 36.1875H307.406L293.812 75.25L293.062 77.0312C291.042 81.4479 287.708 83.6562 283.062 83.6562C281.75 83.6562 280.417 83.4583 279.062 83.0625V76.2188L280.438 76.25C282.146 76.25 283.417 75.9896 284.25 75.4688C285.104 74.9479 285.771 74.0833 286.25 72.875L287.312 70.0938L275.469 36.1875H285.188L291.469 57.2188Z" fill="#E5E5E5"/>
<path d="M261.169 11.8057C261.169 10.4814 261.345 9.20996 261.696 7.99121C262.054 6.77246 262.584 5.66504 263.287 4.66895C263.99 3.67285 264.72 2.96973 265.476 2.55957L265.81 3.63184C264.954 4.28809 264.251 5.29004 263.7 6.6377C263.155 7.98535 262.856 9.49414 262.804 11.1641L262.795 11.9111C262.795 14.1729 263.208 16.1357 264.034 17.7998C264.532 18.7959 265.124 19.5752 265.81 20.1377L265.476 21.1309C264.696 20.6973 263.952 19.9707 263.243 18.9512C261.86 16.959 261.169 14.5771 261.169 11.8057ZM306.468 11.8936C306.468 13.2002 306.295 14.4541 305.949 15.6553C305.609 16.8506 305.085 17.9551 304.376 18.9688C303.673 19.9824 302.935 20.7031 302.161 21.1309L301.818 20.1377C302.721 19.4463 303.444 18.374 303.989 16.9209C304.54 15.4619 304.821 13.8447 304.833 12.0693V11.7881C304.833 10.5576 304.704 9.41504 304.446 8.36035C304.188 7.2998 303.828 6.35059 303.365 5.5127C302.908 4.6748 302.393 4.02148 301.818 3.55273L302.161 2.55957C302.935 2.9873 303.67 3.70215 304.367 4.7041C305.07 5.70605 305.595 6.81055 305.94 8.01758C306.292 9.22461 306.468 10.5166 306.468 11.8936Z" fill="#449DD1"/>
<path d="M275.434 12.3506C275.434 13.8037 275.1 14.9727 274.432 15.8574C273.764 16.7363 272.867 17.1758 271.742 17.1758C270.541 17.1758 269.612 16.751 268.956 15.9014L268.877 17H267.383V3.5H269.009V8.53613C269.665 7.72168 270.57 7.31445 271.725 7.31445C272.879 7.31445 273.784 7.75098 274.44 8.62402C275.103 9.49707 275.434 10.6924 275.434 12.21V12.3506ZM273.808 12.166C273.808 11.0586 273.594 10.2031 273.166 9.59961C272.738 8.99609 272.123 8.69434 271.32 8.69434C270.248 8.69434 269.478 9.19238 269.009 10.1885V14.3018C269.507 15.2979 270.283 15.7959 271.338 15.7959C272.117 15.7959 272.724 15.4941 273.157 14.8906C273.591 14.2871 273.808 13.3789 273.808 12.166ZM281.437 17.1758C280.147 17.1758 279.099 16.7539 278.29 15.9102C277.481 15.0605 277.077 13.9268 277.077 12.5088V12.21C277.077 11.2666 277.256 10.4258 277.613 9.6875C277.977 8.94336 278.48 8.36328 279.125 7.94727C279.775 7.52539 280.479 7.31445 281.234 7.31445C282.471 7.31445 283.432 7.72168 284.117 8.53613C284.803 9.35059 285.146 10.5166 285.146 12.0342V12.7109H278.703C278.727 13.6484 278.999 14.4072 279.521 14.9873C280.048 15.5615 280.716 15.8486 281.524 15.8486C282.099 15.8486 282.585 15.7314 282.983 15.4971C283.382 15.2627 283.73 14.9521 284.029 14.5654L285.022 15.3389C284.226 16.5635 283.03 17.1758 281.437 17.1758ZM281.234 8.65039C280.578 8.65039 280.027 8.89062 279.582 9.37109C279.137 9.8457 278.861 10.5137 278.756 11.375H283.52V11.252C283.473 10.4258 283.25 9.78711 282.852 9.33594C282.453 8.87891 281.914 8.65039 281.234 8.65039ZM289.241 5.1875V7.49023H291.017V8.74707H289.241V14.6445C289.241 15.0254 289.32 15.3125 289.479 15.5059C289.637 15.6934 289.906 15.7871 290.287 15.7871C290.475 15.7871 290.732 15.752 291.061 15.6816V17C290.633 17.1172 290.217 17.1758 289.812 17.1758C289.086 17.1758 288.538 16.9561 288.169 16.5166C287.8 16.0771 287.615 15.4531 287.615 14.6445V8.74707H285.884V7.49023H287.615V5.1875H289.241ZM298.795 17C298.701 16.8125 298.625 16.4785 298.566 15.998C297.811 16.7832 296.908 17.1758 295.859 17.1758C294.922 17.1758 294.151 16.9121 293.548 16.3848C292.95 15.8516 292.651 15.1777 292.651 14.3633C292.651 13.373 293.026 12.6055 293.776 12.0605C294.532 11.5098 295.593 11.2344 296.958 11.2344H298.54V10.4873C298.54 9.91895 298.37 9.46777 298.03 9.13379C297.69 8.79395 297.189 8.62402 296.527 8.62402C295.947 8.62402 295.461 8.77051 295.068 9.06348C294.676 9.35645 294.479 9.71094 294.479 10.127H292.845C292.845 9.65234 293.012 9.19531 293.346 8.75586C293.686 8.31055 294.143 7.95898 294.717 7.70117C295.297 7.44336 295.933 7.31445 296.624 7.31445C297.72 7.31445 298.578 7.58984 299.199 8.14062C299.82 8.68555 300.143 9.43848 300.166 10.3994V14.7764C300.166 15.6494 300.277 16.3438 300.5 16.8594V17H298.795ZM296.097 15.7607C296.606 15.7607 297.09 15.6289 297.547 15.3652C298.004 15.1016 298.335 14.7588 298.54 14.3369V12.3857H297.266C295.273 12.3857 294.277 12.9688 294.277 14.1348C294.277 14.6445 294.447 15.043 294.787 15.3301C295.127 15.6172 295.563 15.7607 296.097 15.7607Z" fill="#E5E5E5"/>
</svg>
