<svg width="1920" height="497" viewBox="0 0 1920 497" fill="none" xmlns="http://www.w3.org/2000/svg">
<g opacity="0.4">
<rect x="142" y="1" width="223" height="223" rx="16" fill="#449DD1"/>
<path d="M199.445 169.789H188.266L231.016 58.625H242.125L199.445 169.789ZM300.484 140.82C300.484 137.305 299.148 134.586 296.477 132.664C293.852 130.695 289.234 129.008 282.625 127.602C276.062 126.195 270.836 124.508 266.945 122.539C263.102 120.57 260.242 118.227 258.367 115.508C256.539 112.789 255.625 109.555 255.625 105.805C255.625 99.5703 258.25 94.2969 263.5 89.9844C268.797 85.6719 275.547 83.5156 283.75 83.5156C292.375 83.5156 299.359 85.7422 304.703 90.1953C310.094 94.6484 312.789 100.344 312.789 107.281H299.711C299.711 103.719 298.188 100.648 295.141 98.0703C292.141 95.4922 288.344 94.2031 283.75 94.2031C279.016 94.2031 275.312 95.2344 272.641 97.2969C269.969 99.3594 268.633 102.055 268.633 105.383C268.633 108.523 269.875 110.891 272.359 112.484C274.844 114.078 279.32 115.602 285.789 117.055C292.305 118.508 297.578 120.242 301.609 122.258C305.641 124.273 308.617 126.711 310.539 129.57C312.508 132.383 313.492 135.828 313.492 139.906C313.492 146.703 310.773 152.164 305.336 156.289C299.898 160.367 292.844 162.406 284.172 162.406C278.078 162.406 272.688 161.328 268 159.172C263.312 157.016 259.633 154.016 256.961 150.172C254.336 146.281 253.023 142.086 253.023 137.586H266.031C266.266 141.945 268 145.414 271.234 147.992C274.516 150.523 278.828 151.789 284.172 151.789C289.094 151.789 293.031 150.805 295.984 148.836C298.984 146.82 300.484 144.148 300.484 140.82Z" fill="#E5E5E5"/>
<rect x="1277" y="274" width="223" height="223" rx="16" fill="#449DD1"/>
<rect x="1750" y="274" width="223" height="223" rx="16" fill="#449DD1"/>
<path d="M1792.45 442.789H1781.27L1824.02 331.625H1835.12L1792.45 442.789ZM1855.59 434V367.977H1843.56V357.922H1855.59V350.117C1855.59 341.961 1857.77 335.656 1862.12 331.203C1866.48 326.75 1872.65 324.523 1880.62 324.523C1883.62 324.523 1886.59 324.922 1889.55 325.719L1888.84 336.266C1886.64 335.844 1884.3 335.633 1881.81 335.633C1877.59 335.633 1874.34 336.875 1872.04 339.359C1869.74 341.797 1868.59 345.312 1868.59 349.906V357.922H1884.84V367.977H1868.59V434H1855.59Z" fill="#E5E5E5"/>
<rect x="365" y="274" width="223" height="223" rx="16" fill="#449DD1"/>
<path d="M345.445 443.789H334.266L377.016 332.625H388.125L345.445 443.789ZM415.195 368.133C420.961 361.055 428.461 357.516 437.695 357.516C453.773 357.516 461.883 366.586 462.023 384.727V435H449.016V384.656C448.969 379.172 447.703 375.117 445.219 372.492C442.781 369.867 438.961 368.555 433.758 368.555C429.539 368.555 425.836 369.68 422.648 371.93C419.461 374.18 416.977 377.133 415.195 380.789V435H402.188V327H415.195V368.133ZM506.391 415.945L524.109 358.922H538.031L507.445 446.742C502.711 459.398 495.188 465.727 484.875 465.727L482.414 465.516L477.562 464.602V454.055L481.078 454.336C485.484 454.336 488.906 453.445 491.344 451.664C493.828 449.883 495.867 446.625 497.461 441.891L500.344 434.156L473.203 358.922H487.406L506.391 415.945ZM613.969 397.805C613.969 409.383 611.32 418.711 606.023 425.789C600.727 432.867 593.555 436.406 584.508 436.406C575.273 436.406 568.008 433.477 562.711 427.617V464.25H549.703V358.922H561.586L562.219 367.359C567.516 360.797 574.875 357.516 584.297 357.516C593.438 357.516 600.656 360.961 605.953 367.852C611.297 374.742 613.969 384.328 613.969 396.609V397.805ZM600.961 396.328C600.961 387.75 599.133 380.977 595.477 376.008C591.82 371.039 586.805 368.555 580.43 368.555C572.555 368.555 566.648 372.047 562.711 379.031V415.383C566.602 422.32 572.555 425.789 580.57 425.789C586.805 425.789 591.75 423.328 595.406 418.406C599.109 413.438 600.961 406.078 600.961 396.328Z" fill="#E5E5E5"/>
<rect x="-114" y="274" width="223" height="223" rx="16" fill="#449DD1"/>
<path d="M-56.5547 442.789H-67.7344L-24.9844 331.625H-13.875L-56.5547 442.789ZM44.4844 413.82C44.4844 410.305 43.1484 407.586 40.4766 405.664C37.8516 403.695 33.2344 402.008 26.625 400.602C20.0625 399.195 14.8359 397.508 10.9453 395.539C7.10156 393.57 4.24219 391.227 2.36719 388.508C0.539062 385.789 -0.375 382.555 -0.375 378.805C-0.375 372.57 2.25 367.297 7.5 362.984C12.7969 358.672 19.5469 356.516 27.75 356.516C36.375 356.516 43.3594 358.742 48.7031 363.195C54.0938 367.648 56.7891 373.344 56.7891 380.281H43.7109C43.7109 376.719 42.1875 373.648 39.1406 371.07C36.1406 368.492 32.3438 367.203 27.75 367.203C23.0156 367.203 19.3125 368.234 16.6406 370.297C13.9688 372.359 12.6328 375.055 12.6328 378.383C12.6328 381.523 13.875 383.891 16.3594 385.484C18.8438 387.078 23.3203 388.602 29.7891 390.055C36.3047 391.508 41.5781 393.242 45.6094 395.258C49.6406 397.273 52.6172 399.711 54.5391 402.57C56.5078 405.383 57.4922 408.828 57.4922 412.906C57.4922 419.703 54.7734 425.164 49.3359 429.289C43.8984 433.367 36.8438 435.406 28.1719 435.406C22.0781 435.406 16.6875 434.328 12 432.172C7.3125 430.016 3.63281 427.016 0.960938 423.172C-1.66406 419.281 -2.97656 415.086 -2.97656 410.586H10.0312C10.2656 414.945 12 418.414 15.2344 420.992C18.5156 423.523 22.8281 424.789 28.1719 424.789C33.0938 424.789 37.0312 423.805 39.9844 421.836C42.9844 419.82 44.4844 417.148 44.4844 413.82Z" fill="#E5E5E5"/>
<rect x="1054" width="223" height="223" rx="16" fill="#449DD1"/>
<path d="M1009.45 170.789H998.266L1041.02 59.625H1052.12L1009.45 170.789ZM1130.45 124.805C1130.45 136.383 1127.8 145.711 1122.51 152.789C1117.21 159.867 1110.04 163.406 1100.99 163.406C1091.76 163.406 1084.49 160.477 1079.2 154.617V191.25H1066.19V85.9219H1078.07L1078.7 94.3594C1084 87.7969 1091.36 84.5156 1100.78 84.5156C1109.92 84.5156 1117.14 87.9609 1122.44 94.8516C1127.78 101.742 1130.45 111.328 1130.45 123.609V124.805ZM1117.45 123.328C1117.45 114.75 1115.62 107.977 1111.96 103.008C1108.3 98.0391 1103.29 95.5547 1096.91 95.5547C1089.04 95.5547 1083.13 99.0469 1079.2 106.031V142.383C1083.09 149.32 1089.04 152.789 1097.05 152.789C1103.29 152.789 1108.23 150.328 1111.89 145.406C1115.59 140.438 1117.45 133.078 1117.45 123.328ZM1143.6 123.258C1143.6 115.805 1145.05 109.102 1147.96 103.148C1150.91 97.1953 1154.99 92.6016 1160.2 89.3672C1165.45 86.1328 1171.42 84.5156 1178.12 84.5156C1188.48 84.5156 1196.85 88.1016 1203.23 95.2734C1209.65 102.445 1212.86 111.984 1212.86 123.891V124.805C1212.86 132.211 1211.43 138.867 1208.57 144.773C1205.76 150.633 1201.7 155.203 1196.41 158.484C1191.16 161.766 1185.11 163.406 1178.27 163.406C1167.95 163.406 1159.59 159.82 1153.16 152.648C1146.79 145.477 1143.6 135.984 1143.6 124.172V123.258ZM1156.68 124.805C1156.68 133.242 1158.62 140.016 1162.52 145.125C1166.45 150.234 1171.7 152.789 1178.27 152.789C1184.88 152.789 1190.12 150.211 1194.02 145.055C1197.91 139.852 1199.85 132.586 1199.85 123.258C1199.85 114.914 1197.86 108.164 1193.88 103.008C1189.94 97.8047 1184.69 95.2031 1178.12 95.2031C1171.7 95.2031 1166.52 97.7578 1162.59 102.867C1158.65 107.977 1156.68 115.289 1156.68 124.805ZM1273.47 141.82C1273.47 138.305 1272.13 135.586 1269.46 133.664C1266.84 131.695 1262.22 130.008 1255.61 128.602C1249.05 127.195 1243.82 125.508 1239.93 123.539C1236.09 121.57 1233.23 119.227 1231.35 116.508C1229.52 113.789 1228.61 110.555 1228.61 106.805C1228.61 100.57 1231.23 95.2969 1236.48 90.9844C1241.78 86.6719 1248.53 84.5156 1256.73 84.5156C1265.36 84.5156 1272.34 86.7422 1277.69 91.1953C1283.08 95.6484 1285.77 101.344 1285.77 108.281H1272.7C1272.7 104.719 1271.17 101.648 1268.12 99.0703C1265.12 96.4922 1261.33 95.2031 1256.73 95.2031C1252 95.2031 1248.3 96.2344 1245.62 98.2969C1242.95 100.359 1241.62 103.055 1241.62 106.383C1241.62 109.523 1242.86 111.891 1245.34 113.484C1247.83 115.078 1252.3 116.602 1258.77 118.055C1265.29 119.508 1270.56 121.242 1274.59 123.258C1278.62 125.273 1281.6 127.711 1283.52 130.57C1285.49 133.383 1286.48 136.828 1286.48 140.906C1286.48 147.703 1283.76 153.164 1278.32 157.289C1272.88 161.367 1265.83 163.406 1257.16 163.406C1251.06 163.406 1245.67 162.328 1240.98 160.172C1236.3 158.016 1232.62 155.016 1229.95 151.172C1227.32 147.281 1226.01 143.086 1226.01 138.586H1239.02C1239.25 142.945 1240.98 146.414 1244.22 148.992C1247.5 151.523 1251.81 152.789 1257.16 152.789C1262.08 152.789 1266.02 151.805 1268.97 149.836C1271.97 147.82 1273.47 145.148 1273.47 141.82Z" fill="#E5E5E5"/>
<rect x="1520" width="223" height="223" rx="16" fill="#449DD1"/>
<path d="M1492.45 168.789H1481.27L1524.02 57.625H1535.12L1492.45 168.789ZM1561.49 83.9219L1561.91 93.4844C1567.73 86.1719 1575.32 82.5156 1584.7 82.5156C1600.77 82.5156 1608.88 91.5859 1609.02 109.727V160H1596.02V109.656C1595.97 104.172 1594.7 100.117 1592.22 97.4922C1589.78 94.8672 1585.96 93.5547 1580.76 93.5547C1576.54 93.5547 1572.84 94.6797 1569.65 96.9297C1566.46 99.1797 1563.98 102.133 1562.2 105.789V160H1549.19V83.9219H1561.49ZM1660.21 161.406C1649.9 161.406 1641.51 158.031 1635.04 151.281C1628.57 144.484 1625.34 135.414 1625.34 124.07V121.68C1625.34 114.133 1626.77 107.406 1629.62 101.5C1632.53 95.5469 1636.56 90.9062 1641.72 87.5781C1646.92 84.2031 1652.55 82.5156 1658.59 82.5156C1668.48 82.5156 1676.17 85.7734 1681.66 92.2891C1687.14 98.8047 1689.88 108.133 1689.88 120.273V125.688H1638.34C1638.53 133.188 1640.71 139.258 1644.88 143.898C1649.1 148.492 1654.45 150.789 1660.91 150.789C1665.51 150.789 1669.4 149.852 1672.59 147.977C1675.77 146.102 1678.56 143.617 1680.95 140.523L1688.9 146.711C1682.52 156.508 1672.96 161.406 1660.21 161.406ZM1658.59 93.2031C1653.34 93.2031 1648.94 95.125 1645.38 98.9688C1641.81 102.766 1639.61 108.109 1638.77 115H1676.88V114.016C1676.5 107.406 1674.72 102.297 1671.53 98.6875C1668.34 95.0312 1664.03 93.2031 1658.59 93.2031ZM1701.91 121.328C1701.91 109.469 1704.65 100.047 1710.13 93.0625C1715.62 86.0312 1722.88 82.5156 1731.93 82.5156C1741.21 82.5156 1748.45 85.7969 1753.66 92.3594L1754.29 83.9219H1766.17V158.172C1766.17 168.016 1763.24 175.773 1757.38 181.445C1751.57 187.117 1743.74 189.953 1733.9 189.953C1728.41 189.953 1723.05 188.781 1717.8 186.438C1712.55 184.094 1708.54 180.883 1705.77 176.805L1712.52 169C1718.1 175.891 1724.92 179.336 1732.98 179.336C1739.31 179.336 1744.23 177.555 1747.75 173.992C1751.31 170.43 1753.09 165.414 1753.09 158.945V152.406C1747.89 158.406 1740.79 161.406 1731.79 161.406C1722.88 161.406 1715.66 157.82 1710.13 150.648C1704.65 143.477 1701.91 133.703 1701.91 121.328ZM1714.98 122.805C1714.98 131.383 1716.74 138.133 1720.26 143.055C1723.77 147.93 1728.7 150.367 1735.02 150.367C1743.23 150.367 1749.25 146.641 1753.09 139.188V104.453C1749.11 97.1875 1743.13 93.5547 1735.16 93.5547C1728.84 93.5547 1723.89 96.0156 1720.33 100.938C1716.77 105.859 1714.98 113.148 1714.98 122.805Z" fill="#E5E5E5"/>
<rect x="582" width="223" height="223" rx="16" fill="#449DD1"/>
<path d="M639.445 168.789H628.266L671.016 57.625H682.125L639.445 168.789ZM709.617 83.9219V168.789C709.617 183.414 702.984 190.727 689.719 190.727C686.859 190.727 684.211 190.305 681.773 189.461V179.055C683.273 179.43 685.242 179.617 687.68 179.617C690.586 179.617 692.789 178.82 694.289 177.227C695.836 175.68 696.609 172.961 696.609 169.07V83.9219H709.617ZM695.273 63.7422C695.273 61.6797 695.906 59.9219 697.172 58.4688C698.484 56.9688 700.383 56.2188 702.867 56.2188C705.398 56.2188 707.32 56.9453 708.633 58.3984C709.945 59.8516 710.602 61.6328 710.602 63.7422C710.602 65.8516 709.945 67.6094 708.633 69.0156C707.32 70.4219 705.398 71.125 702.867 71.125C700.336 71.125 698.438 70.4219 697.172 69.0156C695.906 67.6094 695.273 65.8516 695.273 63.7422Z" fill="#E5E5E5"/>
<rect x="818" y="274" width="223" height="223" rx="16" fill="#449DD1"/>
<path d="M875.445 442.789H864.266L907.016 331.625H918.125L875.445 442.789ZM976.484 413.82C976.484 410.305 975.148 407.586 972.477 405.664C969.852 403.695 965.234 402.008 958.625 400.602C952.062 399.195 946.836 397.508 942.945 395.539C939.102 393.57 936.242 391.227 934.367 388.508C932.539 385.789 931.625 382.555 931.625 378.805C931.625 372.57 934.25 367.297 939.5 362.984C944.797 358.672 951.547 356.516 959.75 356.516C968.375 356.516 975.359 358.742 980.703 363.195C986.094 367.648 988.789 373.344 988.789 380.281H975.711C975.711 376.719 974.188 373.648 971.141 371.07C968.141 368.492 964.344 367.203 959.75 367.203C955.016 367.203 951.312 368.234 948.641 370.297C945.969 372.359 944.633 375.055 944.633 378.383C944.633 381.523 945.875 383.891 948.359 385.484C950.844 387.078 955.32 388.602 961.789 390.055C968.305 391.508 973.578 393.242 977.609 395.258C981.641 397.273 984.617 399.711 986.539 402.57C988.508 405.383 989.492 408.828 989.492 412.906C989.492 419.703 986.773 425.164 981.336 429.289C975.898 433.367 968.844 435.406 960.172 435.406C954.078 435.406 948.688 434.328 944 432.172C939.312 430.016 935.633 427.016 932.961 423.172C930.336 419.281 929.023 415.086 929.023 410.586H942.031C942.266 414.945 944 418.414 947.234 420.992C950.516 423.523 954.828 424.789 960.172 424.789C965.094 424.789 969.031 423.805 971.984 421.836C974.984 419.82 976.484 417.148 976.484 413.82Z" fill="#E5E5E5"/>
<path d="M1272.45 442.789H1261.27L1304.02 331.625H1315.12L1272.45 442.789ZM1373.48 413.82C1373.48 410.305 1372.15 407.586 1369.48 405.664C1366.85 403.695 1362.23 402.008 1355.62 400.602C1349.06 399.195 1343.84 397.508 1339.95 395.539C1336.1 393.57 1333.24 391.227 1331.37 388.508C1329.54 385.789 1328.62 382.555 1328.62 378.805C1328.62 372.57 1331.25 367.297 1336.5 362.984C1341.8 358.672 1348.55 356.516 1356.75 356.516C1365.38 356.516 1372.36 358.742 1377.7 363.195C1383.09 367.648 1385.79 373.344 1385.79 380.281H1372.71C1372.71 376.719 1371.19 373.648 1368.14 371.07C1365.14 368.492 1361.34 367.203 1356.75 367.203C1352.02 367.203 1348.31 368.234 1345.64 370.297C1342.97 372.359 1341.63 375.055 1341.63 378.383C1341.63 381.523 1342.88 383.891 1345.36 385.484C1347.84 387.078 1352.32 388.602 1358.79 390.055C1365.3 391.508 1370.58 393.242 1374.61 395.258C1378.64 397.273 1381.62 399.711 1383.54 402.57C1385.51 405.383 1386.49 408.828 1386.49 412.906C1386.49 419.703 1383.77 425.164 1378.34 429.289C1372.9 433.367 1365.84 435.406 1357.17 435.406C1351.08 435.406 1345.69 434.328 1341 432.172C1336.31 430.016 1332.63 427.016 1329.96 423.172C1327.34 419.281 1326.02 415.086 1326.02 410.586H1339.03C1339.27 414.945 1341 418.414 1344.23 420.992C1347.52 423.523 1351.83 424.789 1357.17 424.789C1362.09 424.789 1366.03 423.805 1368.98 421.836C1371.98 419.82 1373.48 417.148 1373.48 413.82ZM1440.21 369.594C1438.24 369.266 1436.11 369.102 1433.81 369.102C1425.28 369.102 1419.49 372.734 1416.45 380V434H1403.44V357.922H1416.09L1416.3 366.711C1420.57 359.914 1426.62 356.516 1434.45 356.516C1436.98 356.516 1438.9 356.844 1440.21 357.5V369.594ZM1496.53 413.82C1496.53 410.305 1495.2 407.586 1492.52 405.664C1489.9 403.695 1485.28 402.008 1478.67 400.602C1472.11 399.195 1466.88 397.508 1462.99 395.539C1459.15 393.57 1456.29 391.227 1454.41 388.508C1452.59 385.789 1451.67 382.555 1451.67 378.805C1451.67 372.57 1454.3 367.297 1459.55 362.984C1464.84 358.672 1471.59 356.516 1479.8 356.516C1488.42 356.516 1495.41 358.742 1500.75 363.195C1506.14 367.648 1508.84 373.344 1508.84 380.281H1495.76C1495.76 376.719 1494.23 373.648 1491.19 371.07C1488.19 368.492 1484.39 367.203 1479.8 367.203C1475.06 367.203 1471.36 368.234 1468.69 370.297C1466.02 372.359 1464.68 375.055 1464.68 378.383C1464.68 381.523 1465.92 383.891 1468.41 385.484C1470.89 387.078 1475.37 388.602 1481.84 390.055C1488.35 391.508 1493.62 393.242 1497.66 395.258C1501.69 397.273 1504.66 399.711 1506.59 402.57C1508.55 405.383 1509.54 408.828 1509.54 412.906C1509.54 419.703 1506.82 425.164 1501.38 429.289C1495.95 433.367 1488.89 435.406 1480.22 435.406C1474.12 435.406 1468.73 434.328 1464.05 432.172C1459.36 430.016 1455.68 427.016 1453.01 423.172C1450.38 419.281 1449.07 415.086 1449.07 410.586H1462.08C1462.31 414.945 1464.05 418.414 1467.28 420.992C1470.56 423.523 1474.88 424.789 1480.22 424.789C1485.14 424.789 1489.08 423.805 1492.03 421.836C1495.03 419.82 1496.53 417.148 1496.53 413.82Z" fill="#E5E5E5"/>
</g>
</svg>
