<svg width="488" height="339" viewBox="0 0 488 339" fill="none" xmlns="http://www.w3.org/2000/svg">
<rect width="488" height="339" fill="#25272C"/>
<path d="M33.3672 95.4648H30.8477L37.1289 76.9375H39.6484L33.3672 95.4648ZM48.1445 90.4961C48.1445 90.082 47.9375 89.7578 47.5234 89.5234C47.1172 89.2812 46.4609 89.0664 45.5547 88.8789C42.5391 88.2461 41.0312 86.9648 41.0312 85.0352C41.0312 83.9102 41.4961 82.9727 42.4258 82.2227C43.3633 81.4648 44.5859 81.0859 46.0938 81.0859C47.7031 81.0859 48.9883 81.4648 49.9492 82.2227C50.918 82.9805 51.4023 83.9648 51.4023 85.1758H48.0156C48.0156 84.6914 47.8594 84.293 47.5469 83.9805C47.2344 83.6602 46.7461 83.5 46.082 83.5C45.5117 83.5 45.0703 83.6289 44.7578 83.8867C44.4453 84.1445 44.2891 84.4727 44.2891 84.8711C44.2891 85.2461 44.4648 85.5508 44.8164 85.7852C45.1758 86.0117 45.7773 86.2109 46.6211 86.3828C47.4648 86.5469 48.1758 86.7344 48.7539 86.9453C50.543 87.6016 51.4375 88.7383 51.4375 90.3555C51.4375 91.5117 50.9414 92.4492 49.9492 93.168C48.957 93.8789 47.6758 94.2344 46.1055 94.2344C45.043 94.2344 44.0977 94.0469 43.2695 93.6719C42.4492 93.2891 41.8047 92.7695 41.3359 92.1133C40.8672 91.4492 40.6328 90.7344 40.6328 89.9688H43.8438C43.875 90.5703 44.0977 91.0312 44.5117 91.3516C44.9258 91.6719 45.4805 91.832 46.1758 91.832C46.8242 91.832 47.3125 91.7109 47.6406 91.4688C47.9766 91.2188 48.1445 90.8945 48.1445 90.4961ZM70.375 85.2578H59.8984V82.4922H70.375V85.2578ZM70.375 90.332H59.8984V87.5664H70.375V90.332ZM86.1836 90.4961C86.1836 90.082 85.9766 89.7578 85.5625 89.5234C85.1562 89.2812 84.5 89.0664 83.5938 88.8789C80.5781 88.2461 79.0703 86.9648 79.0703 85.0352C79.0703 83.9102 79.5352 82.9727 80.4648 82.2227C81.4023 81.4648 82.625 81.0859 84.1328 81.0859C85.7422 81.0859 87.0273 81.4648 87.9883 82.2227C88.957 82.9805 89.4414 83.9648 89.4414 85.1758H86.0547C86.0547 84.6914 85.8984 84.293 85.5859 83.9805C85.2734 83.6602 84.7852 83.5 84.1211 83.5C83.5508 83.5 83.1094 83.6289 82.7969 83.8867C82.4844 84.1445 82.3281 84.4727 82.3281 84.8711C82.3281 85.2461 82.5039 85.5508 82.8555 85.7852C83.2148 86.0117 83.8164 86.2109 84.6602 86.3828C85.5039 86.5469 86.2148 86.7344 86.793 86.9453C88.582 87.6016 89.4766 88.7383 89.4766 90.3555C89.4766 91.5117 88.9805 92.4492 87.9883 93.168C86.9961 93.8789 85.7148 94.2344 84.1445 94.2344C83.082 94.2344 82.1367 94.0469 81.3086 93.6719C80.4883 93.2891 79.8438 92.7695 79.375 92.1133C78.9062 91.4492 78.6719 90.7344 78.6719 89.9688H81.8828C81.9141 90.5703 82.1367 91.0312 82.5508 91.3516C82.9648 91.6719 83.5195 91.832 84.2148 91.832C84.8633 91.832 85.3516 91.7109 85.6797 91.4688C86.0156 91.2188 86.1836 90.8945 86.1836 90.4961ZM99.0156 94C98.8594 93.6953 98.7461 93.3164 98.6758 92.8633C97.8555 93.7773 96.7891 94.2344 95.4766 94.2344C94.2344 94.2344 93.2031 93.875 92.3828 93.1562C91.5703 92.4375 91.1641 91.5312 91.1641 90.4375C91.1641 89.0938 91.6602 88.0625 92.6523 87.3438C93.6523 86.625 95.0938 86.2617 96.9766 86.2539H98.5352V85.5273C98.5352 84.9414 98.3828 84.4727 98.0781 84.1211C97.7812 83.7695 97.3086 83.5938 96.6602 83.5938C96.0898 83.5938 95.6406 83.7305 95.3125 84.0039C94.9922 84.2773 94.832 84.6523 94.832 85.1289H91.4453C91.4453 84.3945 91.6719 83.7148 92.125 83.0898C92.5781 82.4648 93.2188 81.9766 94.0469 81.625C94.875 81.2656 95.8047 81.0859 96.8359 81.0859C98.3984 81.0859 99.6367 81.4805 100.551 82.2695C101.473 83.0508 101.934 84.1523 101.934 85.5742V91.0703C101.941 92.2734 102.109 93.1836 102.438 93.8008V94H99.0156ZM96.2148 91.6445C96.7148 91.6445 97.1758 91.5352 97.5977 91.3164C98.0195 91.0898 98.332 90.7891 98.5352 90.4141V88.2344H97.2695C95.5742 88.2344 94.6719 88.8203 94.5625 89.9922L94.5508 90.1914C94.5508 90.6133 94.6992 90.9609 94.9961 91.2344C95.293 91.5078 95.6992 91.6445 96.2148 91.6445ZM111.66 84.4961C111.199 84.4336 110.793 84.4023 110.441 84.4023C109.16 84.4023 108.32 84.8359 107.922 85.7031V94H104.535V81.3203H107.734L107.828 82.832C108.508 81.668 109.449 81.0859 110.652 81.0859C111.027 81.0859 111.379 81.1367 111.707 81.2383L111.66 84.4961ZM118.34 91.5039C118.965 91.5039 119.473 91.332 119.863 90.9883C120.254 90.6445 120.457 90.1875 120.473 89.6172H123.648C123.641 90.4766 123.406 91.2656 122.945 91.9844C122.484 92.6953 121.852 93.25 121.047 93.6484C120.25 94.0391 119.367 94.2344 118.398 94.2344C116.586 94.2344 115.156 93.6602 114.109 92.5117C113.062 91.3555 112.539 89.7617 112.539 87.7305V87.5078C112.539 85.5547 113.059 83.9961 114.098 82.832C115.137 81.668 116.562 81.0859 118.375 81.0859C119.961 81.0859 121.23 81.5391 122.184 82.4453C123.145 83.3438 123.633 84.543 123.648 86.043H120.473C120.457 85.3867 120.254 84.8555 119.863 84.4492C119.473 84.0352 118.957 83.8281 118.316 83.8281C117.527 83.8281 116.93 84.1172 116.523 84.6953C116.125 85.2656 115.926 86.1953 115.926 87.4844V87.8359C115.926 89.1406 116.125 90.0781 116.523 90.6484C116.922 91.2188 117.527 91.5039 118.34 91.5039ZM132.93 94C132.773 93.6953 132.66 93.3164 132.59 92.8633C131.77 93.7773 130.703 94.2344 129.391 94.2344C128.148 94.2344 127.117 93.875 126.297 93.1562C125.484 92.4375 125.078 91.5312 125.078 90.4375C125.078 89.0938 125.574 88.0625 126.566 87.3438C127.566 86.625 129.008 86.2617 130.891 86.2539H132.449V85.5273C132.449 84.9414 132.297 84.4727 131.992 84.1211C131.695 83.7695 131.223 83.5938 130.574 83.5938C130.004 83.5938 129.555 83.7305 129.227 84.0039C128.906 84.2773 128.746 84.6523 128.746 85.1289H125.359C125.359 84.3945 125.586 83.7148 126.039 83.0898C126.492 82.4648 127.133 81.9766 127.961 81.625C128.789 81.2656 129.719 81.0859 130.75 81.0859C132.312 81.0859 133.551 81.4805 134.465 82.2695C135.387 83.0508 135.848 84.1523 135.848 85.5742V91.0703C135.855 92.2734 136.023 93.1836 136.352 93.8008V94H132.93ZM130.129 91.6445C130.629 91.6445 131.09 91.5352 131.512 91.3164C131.934 91.0898 132.246 90.7891 132.449 90.4141V88.2344H131.184C129.488 88.2344 128.586 88.8203 128.477 89.9922L128.465 90.1914C128.465 90.6133 128.613 90.9609 128.91 91.2344C129.207 91.5078 129.613 91.6445 130.129 91.6445ZM145.316 90.4961C145.316 90.082 145.109 89.7578 144.695 89.5234C144.289 89.2812 143.633 89.0664 142.727 88.8789C139.711 88.2461 138.203 86.9648 138.203 85.0352C138.203 83.9102 138.668 82.9727 139.598 82.2227C140.535 81.4648 141.758 81.0859 143.266 81.0859C144.875 81.0859 146.16 81.4648 147.121 82.2227C148.09 82.9805 148.574 83.9648 148.574 85.1758H145.188C145.188 84.6914 145.031 84.293 144.719 83.9805C144.406 83.6602 143.918 83.5 143.254 83.5C142.684 83.5 142.242 83.6289 141.93 83.8867C141.617 84.1445 141.461 84.4727 141.461 84.8711C141.461 85.2461 141.637 85.5508 141.988 85.7852C142.348 86.0117 142.949 86.2109 143.793 86.3828C144.637 86.5469 145.348 86.7344 145.926 86.9453C147.715 87.6016 148.609 88.7383 148.609 90.3555C148.609 91.5117 148.113 92.4492 147.121 93.168C146.129 93.8789 144.848 94.2344 143.277 94.2344C142.215 94.2344 141.27 94.0469 140.441 93.6719C139.621 93.2891 138.977 92.7695 138.508 92.1133C138.039 91.4492 137.805 90.7344 137.805 89.9688H141.016C141.047 90.5703 141.27 91.0312 141.684 91.3516C142.098 91.6719 142.652 91.832 143.348 91.832C143.996 91.832 144.484 91.7109 144.812 91.4688C145.148 91.2188 145.316 90.8945 145.316 90.4961ZM154.855 78.2031V81.3203H157.023V83.8047H154.855V90.1328C154.855 90.6016 154.945 90.9375 155.125 91.1406C155.305 91.3438 155.648 91.4453 156.156 91.4453C156.531 91.4453 156.863 91.418 157.152 91.3633V93.9297C156.488 94.1328 155.805 94.2344 155.102 94.2344C152.727 94.2344 151.516 93.0352 151.469 90.6367V83.8047H149.617V81.3203H151.469V78.2031H154.855ZM162.484 94H159.086V81.3203H162.484V94ZM158.887 78.0391C158.887 77.5312 159.055 77.1133 159.391 76.7852C159.734 76.457 160.199 76.293 160.785 76.293C161.363 76.293 161.824 76.457 162.168 76.7852C162.512 77.1133 162.684 77.5312 162.684 78.0391C162.684 78.5547 162.508 78.9766 162.156 79.3047C161.812 79.6328 161.355 79.7969 160.785 79.7969C160.215 79.7969 159.754 79.6328 159.402 79.3047C159.059 78.9766 158.887 78.5547 158.887 78.0391ZM170.559 91.5039C171.184 91.5039 171.691 91.332 172.082 90.9883C172.473 90.6445 172.676 90.1875 172.691 89.6172H175.867C175.859 90.4766 175.625 91.2656 175.164 91.9844C174.703 92.6953 174.07 93.25 173.266 93.6484C172.469 94.0391 171.586 94.2344 170.617 94.2344C168.805 94.2344 167.375 93.6602 166.328 92.5117C165.281 91.3555 164.758 89.7617 164.758 87.7305V87.5078C164.758 85.5547 165.277 83.9961 166.316 82.832C167.355 81.668 168.781 81.0859 170.594 81.0859C172.18 81.0859 173.449 81.5391 174.402 82.4453C175.363 83.3438 175.852 84.543 175.867 86.043H172.691C172.676 85.3867 172.473 84.8555 172.082 84.4492C171.691 84.0352 171.176 83.8281 170.535 83.8281C169.746 83.8281 169.148 84.1172 168.742 84.6953C168.344 85.2656 168.145 86.1953 168.145 87.4844V87.8359C168.145 89.1406 168.344 90.0781 168.742 90.6484C169.141 91.2188 169.746 91.5039 170.559 91.5039Z" fill="#E5E5E5"/>
<path d="M33.3672 137.465H30.8477L37.1289 118.938H39.6484L33.3672 137.465ZM44.8633 123.32V136.691C44.8633 138.09 44.4922 139.176 43.75 139.949C43.0078 140.73 41.9375 141.121 40.5391 141.121C39.9531 141.121 39.3945 141.055 38.8633 140.922V138.238C39.2695 138.309 39.625 138.344 39.9297 138.344C40.9531 138.344 41.4648 137.801 41.4648 136.715V123.32H44.8633ZM41.1953 120.039C41.1953 119.531 41.3633 119.113 41.6992 118.785C42.043 118.457 42.5078 118.293 43.0938 118.293C43.6797 118.293 44.1406 118.457 44.4766 118.785C44.8203 119.113 44.9922 119.531 44.9922 120.039C44.9922 120.555 44.8164 120.977 44.4648 121.305C44.1211 121.633 43.6641 121.797 43.0938 121.797C42.5234 121.797 42.0625 121.633 41.7109 121.305C41.3672 120.977 41.1953 120.555 41.1953 120.039ZM64.2578 127.258H53.7812V124.492H64.2578V127.258ZM64.2578 132.332H53.7812V129.566H64.2578V132.332ZM76.7852 123.32V136.691C76.7852 138.09 76.4141 139.176 75.6719 139.949C74.9297 140.73 73.8594 141.121 72.4609 141.121C71.875 141.121 71.3164 141.055 70.7852 140.922V138.238C71.1914 138.309 71.5469 138.344 71.8516 138.344C72.875 138.344 73.3867 137.801 73.3867 136.715V123.32H76.7852ZM73.1172 120.039C73.1172 119.531 73.2852 119.113 73.6211 118.785C73.9648 118.457 74.4297 118.293 75.0156 118.293C75.6016 118.293 76.0625 118.457 76.3984 118.785C76.7422 119.113 76.9141 119.531 76.9141 120.039C76.9141 120.555 76.7383 120.977 76.3867 121.305C76.043 121.633 75.5859 121.797 75.0156 121.797C74.4453 121.797 73.9844 121.633 73.6328 121.305C73.2891 120.977 73.1172 120.555 73.1172 120.039ZM78.9062 129.543C78.9062 128.285 79.1484 127.164 79.6328 126.18C80.1172 125.195 80.8125 124.434 81.7188 123.895C82.6328 123.355 83.6914 123.086 84.8945 123.086C86.6055 123.086 88 123.609 89.0781 124.656C90.1641 125.703 90.7695 127.125 90.8945 128.922L90.918 129.789C90.918 131.734 90.375 133.297 89.2891 134.477C88.2031 135.648 86.7461 136.234 84.918 136.234C83.0898 136.234 81.6289 135.648 80.5352 134.477C79.4492 133.305 78.9062 131.711 78.9062 129.695V129.543ZM82.293 129.789C82.293 130.992 82.5195 131.914 82.9727 132.555C83.4258 133.188 84.0742 133.504 84.918 133.504C85.7383 133.504 86.3789 133.191 86.8398 132.566C87.3008 131.934 87.5312 130.926 87.5312 129.543C87.5312 128.363 87.3008 127.449 86.8398 126.801C86.3789 126.152 85.7305 125.828 84.8945 125.828C84.0664 125.828 83.4258 126.152 82.9727 126.801C82.5195 127.441 82.293 128.438 82.293 129.789ZM97.6094 130.914L96.3906 132.133V136H93.0039V118H96.3906V127.973L97.0469 127.129L100.293 123.32H104.359L99.7773 128.605L104.758 136H100.867L97.6094 130.914ZM109.398 136H106V123.32H109.398V136ZM105.801 120.039C105.801 119.531 105.969 119.113 106.305 118.785C106.648 118.457 107.113 118.293 107.699 118.293C108.277 118.293 108.738 118.457 109.082 118.785C109.426 119.113 109.598 119.531 109.598 120.039C109.598 120.555 109.422 120.977 109.07 121.305C108.727 121.633 108.27 121.797 107.699 121.797C107.129 121.797 106.668 121.633 106.316 121.305C105.973 120.977 105.801 120.555 105.801 120.039ZM115.316 123.32L115.422 124.785C116.328 123.652 117.543 123.086 119.066 123.086C120.41 123.086 121.41 123.48 122.066 124.27C122.723 125.059 123.059 126.238 123.074 127.809V136H119.688V127.891C119.688 127.172 119.531 126.652 119.219 126.332C118.906 126.004 118.387 125.84 117.66 125.84C116.707 125.84 115.992 126.246 115.516 127.059V136H112.129V123.32H115.316ZM125.16 129.566C125.16 127.621 125.621 126.055 126.543 124.867C127.473 123.68 128.723 123.086 130.293 123.086C131.684 123.086 132.766 123.562 133.539 124.516L133.68 123.32H136.75V135.578C136.75 136.688 136.496 137.652 135.988 138.473C135.488 139.293 134.781 139.918 133.867 140.348C132.953 140.777 131.883 140.992 130.656 140.992C129.727 140.992 128.82 140.805 127.938 140.43C127.055 140.062 126.387 139.586 125.934 139L127.434 136.938C128.277 137.883 129.301 138.355 130.504 138.355C131.402 138.355 132.102 138.113 132.602 137.629C133.102 137.152 133.352 136.473 133.352 135.59V134.91C132.57 135.793 131.543 136.234 130.27 136.234C128.746 136.234 127.512 135.641 126.566 134.453C125.629 133.258 125.16 131.676 125.16 129.707V129.566ZM128.547 129.812C128.547 130.961 128.777 131.863 129.238 132.52C129.699 133.168 130.332 133.492 131.137 133.492C132.168 133.492 132.906 133.105 133.352 132.332V127C132.898 126.227 132.168 125.84 131.16 125.84C130.348 125.84 129.707 126.172 129.238 126.836C128.777 127.5 128.547 128.492 128.547 129.812Z" fill="#E5E5E5"/>
<path d="M33.3672 179.465H30.8477L37.1289 160.938H39.6484L33.3672 179.465ZM44.8516 178H41.4531V160H44.8516V178ZM51.2266 178H47.8281V165.32H51.2266V178ZM47.6289 162.039C47.6289 161.531 47.7969 161.113 48.1328 160.785C48.4766 160.457 48.9414 160.293 49.5273 160.293C50.1055 160.293 50.5664 160.457 50.9102 160.785C51.2539 161.113 51.4258 161.531 51.4258 162.039C51.4258 162.555 51.25 162.977 50.8984 163.305C50.5547 163.633 50.0977 163.797 49.5273 163.797C48.957 163.797 48.4961 163.633 48.1445 163.305C47.8008 162.977 47.6289 162.555 47.6289 162.039ZM58.082 162.203V165.32H60.25V167.805H58.082V174.133C58.082 174.602 58.1719 174.938 58.3516 175.141C58.5312 175.344 58.875 175.445 59.3828 175.445C59.7578 175.445 60.0898 175.418 60.3789 175.363V177.93C59.7148 178.133 59.0312 178.234 58.3281 178.234C55.9531 178.234 54.7422 177.035 54.6953 174.637V167.805H52.8438V165.32H54.6953V162.203H58.082ZM72.9062 169.258H62.4297V166.492H72.9062V169.258ZM72.9062 174.332H62.4297V171.566H72.9062V174.332ZM85.4219 178H82.0234V160H85.4219V178ZM91.7969 178H88.3984V165.32H91.7969V178ZM88.1992 162.039C88.1992 161.531 88.3672 161.113 88.7031 160.785C89.0469 160.457 89.5117 160.293 90.0977 160.293C90.6758 160.293 91.1367 160.457 91.4805 160.785C91.8242 161.113 91.9961 161.531 91.9961 162.039C91.9961 162.555 91.8203 162.977 91.4688 163.305C91.125 163.633 90.668 163.797 90.0977 163.797C89.5273 163.797 89.0664 163.633 88.7148 163.305C88.3711 162.977 88.1992 162.555 88.1992 162.039ZM98.6523 162.203V165.32H100.82V167.805H98.6523V174.133C98.6523 174.602 98.7422 174.938 98.9219 175.141C99.1016 175.344 99.4453 175.445 99.9531 175.445C100.328 175.445 100.66 175.418 100.949 175.363V177.93C100.285 178.133 99.6016 178.234 98.8984 178.234C96.5234 178.234 95.3125 177.035 95.2656 174.637V167.805H93.4141V165.32H95.2656V162.203H98.6523ZM108.543 178.234C106.684 178.234 105.168 177.664 103.996 176.523C102.832 175.383 102.25 173.863 102.25 171.965V171.637C102.25 170.363 102.496 169.227 102.988 168.227C103.48 167.219 104.176 166.445 105.074 165.906C105.98 165.359 107.012 165.086 108.168 165.086C109.902 165.086 111.266 165.633 112.258 166.727C113.258 167.82 113.758 169.371 113.758 171.379V172.762H105.684C105.793 173.59 106.121 174.254 106.668 174.754C107.223 175.254 107.922 175.504 108.766 175.504C110.07 175.504 111.09 175.031 111.824 174.086L113.488 175.949C112.98 176.668 112.293 177.23 111.426 177.637C110.559 178.035 109.598 178.234 108.543 178.234ZM108.156 167.828C107.484 167.828 106.938 168.055 106.516 168.508C106.102 168.961 105.836 169.609 105.719 170.453H110.43V170.184C110.414 169.434 110.211 168.855 109.82 168.449C109.43 168.035 108.875 167.828 108.156 167.828ZM122.816 168.496C122.355 168.434 121.949 168.402 121.598 168.402C120.316 168.402 119.477 168.836 119.078 169.703V178H115.691V165.32H118.891L118.984 166.832C119.664 165.668 120.605 165.086 121.809 165.086C122.184 165.086 122.535 165.137 122.863 165.238L122.816 168.496ZM131.453 178C131.297 177.695 131.184 177.316 131.113 176.863C130.293 177.777 129.227 178.234 127.914 178.234C126.672 178.234 125.641 177.875 124.82 177.156C124.008 176.438 123.602 175.531 123.602 174.438C123.602 173.094 124.098 172.062 125.09 171.344C126.09 170.625 127.531 170.262 129.414 170.254H130.973V169.527C130.973 168.941 130.82 168.473 130.516 168.121C130.219 167.77 129.746 167.594 129.098 167.594C128.527 167.594 128.078 167.73 127.75 168.004C127.43 168.277 127.27 168.652 127.27 169.129H123.883C123.883 168.395 124.109 167.715 124.562 167.09C125.016 166.465 125.656 165.977 126.484 165.625C127.312 165.266 128.242 165.086 129.273 165.086C130.836 165.086 132.074 165.48 132.988 166.27C133.91 167.051 134.371 168.152 134.371 169.574V175.07C134.379 176.273 134.547 177.184 134.875 177.801V178H131.453ZM128.652 175.645C129.152 175.645 129.613 175.535 130.035 175.316C130.457 175.09 130.77 174.789 130.973 174.414V172.234H129.707C128.012 172.234 127.109 172.82 127 173.992L126.988 174.191C126.988 174.613 127.137 174.961 127.434 175.234C127.73 175.508 128.137 175.645 128.652 175.645ZM140.547 178H137.148V160H140.547V178Z" fill="#E5E5E5"/>
<path d="M33.3672 221.465H30.8477L37.1289 202.938H39.6484L33.3672 221.465ZM44.3945 207.32L44.5 208.785C45.4062 207.652 46.6211 207.086 48.1445 207.086C49.4883 207.086 50.4883 207.48 51.1445 208.27C51.8008 209.059 52.1367 210.238 52.1523 211.809V220H48.7656V211.891C48.7656 211.172 48.6094 210.652 48.2969 210.332C47.9844 210.004 47.4648 209.84 46.7383 209.84C45.7852 209.84 45.0703 210.246 44.5938 211.059V220H41.207V207.32H44.3945ZM60.5664 220.234C58.707 220.234 57.1914 219.664 56.0195 218.523C54.8555 217.383 54.2734 215.863 54.2734 213.965V213.637C54.2734 212.363 54.5195 211.227 55.0117 210.227C55.5039 209.219 56.1992 208.445 57.0977 207.906C58.0039 207.359 59.0352 207.086 60.1914 207.086C61.9258 207.086 63.2891 207.633 64.2812 208.727C65.2812 209.82 65.7812 211.371 65.7812 213.379V214.762H57.707C57.8164 215.59 58.1445 216.254 58.6914 216.754C59.2461 217.254 59.9453 217.504 60.7891 217.504C62.0938 217.504 63.1133 217.031 63.8477 216.086L65.5117 217.949C65.0039 218.668 64.3164 219.23 63.4492 219.637C62.582 220.035 61.6211 220.234 60.5664 220.234ZM60.1797 209.828C59.5078 209.828 58.9609 210.055 58.5391 210.508C58.125 210.961 57.8594 211.609 57.7422 212.453H62.4531V212.184C62.4375 211.434 62.2344 210.855 61.8438 210.449C61.4531 210.035 60.8984 209.828 60.1797 209.828ZM67.2227 213.566C67.2227 211.621 67.6836 210.055 68.6055 208.867C69.5352 207.68 70.7852 207.086 72.3555 207.086C73.7461 207.086 74.8281 207.562 75.6016 208.516L75.7422 207.32H78.8125V219.578C78.8125 220.688 78.5586 221.652 78.0508 222.473C77.5508 223.293 76.8438 223.918 75.9297 224.348C75.0156 224.777 73.9453 224.992 72.7188 224.992C71.7891 224.992 70.8828 224.805 70 224.43C69.1172 224.062 68.4492 223.586 67.9961 223L69.4961 220.938C70.3398 221.883 71.3633 222.355 72.5664 222.355C73.4648 222.355 74.1641 222.113 74.6641 221.629C75.1641 221.152 75.4141 220.473 75.4141 219.59V218.91C74.6328 219.793 73.6055 220.234 72.332 220.234C70.8086 220.234 69.5742 219.641 68.6289 218.453C67.6914 217.258 67.2227 215.676 67.2227 213.707V213.566ZM70.6094 213.812C70.6094 214.961 70.8398 215.863 71.3008 216.52C71.7617 217.168 72.3945 217.492 73.1992 217.492C74.2305 217.492 74.9688 217.105 75.4141 216.332V211C74.9609 210.227 74.2305 209.84 73.2227 209.84C72.4102 209.84 71.7695 210.172 71.3008 210.836C70.8398 211.5 70.6094 212.492 70.6094 213.812ZM92.1953 211.258H81.7188V208.492H92.1953V211.258ZM92.1953 216.332H81.7188V213.566H92.1953V216.332ZM104.254 207.32L104.359 208.785C105.266 207.652 106.48 207.086 108.004 207.086C109.348 207.086 110.348 207.48 111.004 208.27C111.66 209.059 111.996 210.238 112.012 211.809V220H108.625V211.891C108.625 211.172 108.469 210.652 108.156 210.332C107.844 210.004 107.324 209.84 106.598 209.84C105.645 209.84 104.93 210.246 104.453 211.059V220H101.066V207.32H104.254ZM120.426 220.234C118.566 220.234 117.051 219.664 115.879 218.523C114.715 217.383 114.133 215.863 114.133 213.965V213.637C114.133 212.363 114.379 211.227 114.871 210.227C115.363 209.219 116.059 208.445 116.957 207.906C117.863 207.359 118.895 207.086 120.051 207.086C121.785 207.086 123.148 207.633 124.141 208.727C125.141 209.82 125.641 211.371 125.641 213.379V214.762H117.566C117.676 215.59 118.004 216.254 118.551 216.754C119.105 217.254 119.805 217.504 120.648 217.504C121.953 217.504 122.973 217.031 123.707 216.086L125.371 217.949C124.863 218.668 124.176 219.23 123.309 219.637C122.441 220.035 121.48 220.234 120.426 220.234ZM120.039 209.828C119.367 209.828 118.82 210.055 118.398 210.508C117.984 210.961 117.719 211.609 117.602 212.453H122.312V212.184C122.297 211.434 122.094 210.855 121.703 210.449C121.312 210.035 120.758 209.828 120.039 209.828ZM127.082 213.566C127.082 211.621 127.543 210.055 128.465 208.867C129.395 207.68 130.645 207.086 132.215 207.086C133.605 207.086 134.688 207.562 135.461 208.516L135.602 207.32H138.672V219.578C138.672 220.688 138.418 221.652 137.91 222.473C137.41 223.293 136.703 223.918 135.789 224.348C134.875 224.777 133.805 224.992 132.578 224.992C131.648 224.992 130.742 224.805 129.859 224.43C128.977 224.062 128.309 223.586 127.855 223L129.355 220.938C130.199 221.883 131.223 222.355 132.426 222.355C133.324 222.355 134.023 222.113 134.523 221.629C135.023 221.152 135.273 220.473 135.273 219.59V218.91C134.492 219.793 133.465 220.234 132.191 220.234C130.668 220.234 129.434 219.641 128.488 218.453C127.551 217.258 127.082 215.676 127.082 213.707V213.566ZM130.469 213.812C130.469 214.961 130.699 215.863 131.16 216.52C131.621 217.168 132.254 217.492 133.059 217.492C134.09 217.492 134.828 217.105 135.273 216.332V211C134.82 210.227 134.09 209.84 133.082 209.84C132.27 209.84 131.629 210.172 131.16 210.836C130.699 211.5 130.469 212.492 130.469 213.812ZM148.633 220C148.477 219.695 148.363 219.316 148.293 218.863C147.473 219.777 146.406 220.234 145.094 220.234C143.852 220.234 142.82 219.875 142 219.156C141.188 218.438 140.781 217.531 140.781 216.438C140.781 215.094 141.277 214.062 142.27 213.344C143.27 212.625 144.711 212.262 146.594 212.254H148.152V211.527C148.152 210.941 148 210.473 147.695 210.121C147.398 209.77 146.926 209.594 146.277 209.594C145.707 209.594 145.258 209.73 144.93 210.004C144.609 210.277 144.449 210.652 144.449 211.129H141.062C141.062 210.395 141.289 209.715 141.742 209.09C142.195 208.465 142.836 207.977 143.664 207.625C144.492 207.266 145.422 207.086 146.453 207.086C148.016 207.086 149.254 207.48 150.168 208.27C151.09 209.051 151.551 210.152 151.551 211.574V217.07C151.559 218.273 151.727 219.184 152.055 219.801V220H148.633ZM145.832 217.645C146.332 217.645 146.793 217.535 147.215 217.316C147.637 217.09 147.949 216.789 148.152 216.414V214.234H146.887C145.191 214.234 144.289 214.82 144.18 215.992L144.168 216.191C144.168 216.613 144.316 216.961 144.613 217.234C144.91 217.508 145.316 217.645 145.832 217.645ZM158.207 204.203V207.32H160.375V209.805H158.207V216.133C158.207 216.602 158.297 216.938 158.477 217.141C158.656 217.344 159 217.445 159.508 217.445C159.883 217.445 160.215 217.418 160.504 217.363V219.93C159.84 220.133 159.156 220.234 158.453 220.234C156.078 220.234 154.867 219.035 154.82 216.637V209.805H152.969V207.32H154.82V204.203H158.207ZM165.836 220H162.438V207.32H165.836V220ZM162.238 204.039C162.238 203.531 162.406 203.113 162.742 202.785C163.086 202.457 163.551 202.293 164.137 202.293C164.715 202.293 165.176 202.457 165.52 202.785C165.863 203.113 166.035 203.531 166.035 204.039C166.035 204.555 165.859 204.977 165.508 205.305C165.164 205.633 164.707 205.797 164.137 205.797C163.566 205.797 163.105 205.633 162.754 205.305C162.41 204.977 162.238 204.555 162.238 204.039ZM173.383 215.863L175.738 207.32H179.277L175 220H171.766L167.488 207.32H171.027L173.383 215.863ZM186.449 220.234C184.59 220.234 183.074 219.664 181.902 218.523C180.738 217.383 180.156 215.863 180.156 213.965V213.637C180.156 212.363 180.402 211.227 180.895 210.227C181.387 209.219 182.082 208.445 182.98 207.906C183.887 207.359 184.918 207.086 186.074 207.086C187.809 207.086 189.172 207.633 190.164 208.727C191.164 209.82 191.664 211.371 191.664 213.379V214.762H183.59C183.699 215.59 184.027 216.254 184.574 216.754C185.129 217.254 185.828 217.504 186.672 217.504C187.977 217.504 188.996 217.031 189.73 216.086L191.395 217.949C190.887 218.668 190.199 219.23 189.332 219.637C188.465 220.035 187.504 220.234 186.449 220.234ZM186.062 209.828C185.391 209.828 184.844 210.055 184.422 210.508C184.008 210.961 183.742 211.609 183.625 212.453H188.336V212.184C188.32 211.434 188.117 210.855 187.727 210.449C187.336 210.035 186.781 209.828 186.062 209.828ZM204.848 217.504C205.473 217.504 205.98 217.332 206.371 216.988C206.762 216.645 206.965 216.188 206.98 215.617H210.156C210.148 216.477 209.914 217.266 209.453 217.984C208.992 218.695 208.359 219.25 207.555 219.648C206.758 220.039 205.875 220.234 204.906 220.234C203.094 220.234 201.664 219.66 200.617 218.512C199.57 217.355 199.047 215.762 199.047 213.73V213.508C199.047 211.555 199.566 209.996 200.605 208.832C201.645 207.668 203.07 207.086 204.883 207.086C206.469 207.086 207.738 207.539 208.691 208.445C209.652 209.344 210.141 210.543 210.156 212.043H206.98C206.965 211.387 206.762 210.855 206.371 210.449C205.98 210.035 205.465 209.828 204.824 209.828C204.035 209.828 203.438 210.117 203.031 210.695C202.633 211.266 202.434 212.195 202.434 213.484V213.836C202.434 215.141 202.633 216.078 203.031 216.648C203.43 217.219 204.035 217.504 204.848 217.504ZM211.562 213.543C211.562 212.285 211.805 211.164 212.289 210.18C212.773 209.195 213.469 208.434 214.375 207.895C215.289 207.355 216.348 207.086 217.551 207.086C219.262 207.086 220.656 207.609 221.734 208.656C222.82 209.703 223.426 211.125 223.551 212.922L223.574 213.789C223.574 215.734 223.031 217.297 221.945 218.477C220.859 219.648 219.402 220.234 217.574 220.234C215.746 220.234 214.285 219.648 213.191 218.477C212.105 217.305 211.562 215.711 211.562 213.695V213.543ZM214.949 213.789C214.949 214.992 215.176 215.914 215.629 216.555C216.082 217.188 216.73 217.504 217.574 217.504C218.395 217.504 219.035 217.191 219.496 216.566C219.957 215.934 220.188 214.926 220.188 213.543C220.188 212.363 219.957 211.449 219.496 210.801C219.035 210.152 218.387 209.828 217.551 209.828C216.723 209.828 216.082 210.152 215.629 210.801C215.176 211.441 214.949 212.438 214.949 213.789ZM228.777 207.32L228.883 208.785C229.789 207.652 231.004 207.086 232.527 207.086C233.871 207.086 234.871 207.48 235.527 208.27C236.184 209.059 236.52 210.238 236.535 211.809V220H233.148V211.891C233.148 211.172 232.992 210.652 232.68 210.332C232.367 210.004 231.848 209.84 231.121 209.84C230.168 209.84 229.453 210.246 228.977 211.059V220H225.59V207.32H228.777ZM242.23 207.32L242.336 208.785C243.242 207.652 244.457 207.086 245.98 207.086C247.324 207.086 248.324 207.48 248.98 208.27C249.637 209.059 249.973 210.238 249.988 211.809V220H246.602V211.891C246.602 211.172 246.445 210.652 246.133 210.332C245.82 210.004 245.301 209.84 244.574 209.84C243.621 209.84 242.906 210.246 242.43 211.059V220H239.043V207.32H242.23ZM252.039 213.543C252.039 212.285 252.281 211.164 252.766 210.18C253.25 209.195 253.945 208.434 254.852 207.895C255.766 207.355 256.824 207.086 258.027 207.086C259.738 207.086 261.133 207.609 262.211 208.656C263.297 209.703 263.902 211.125 264.027 212.922L264.051 213.789C264.051 215.734 263.508 217.297 262.422 218.477C261.336 219.648 259.879 220.234 258.051 220.234C256.223 220.234 254.762 219.648 253.668 218.477C252.582 217.305 252.039 215.711 252.039 213.695V213.543ZM255.426 213.789C255.426 214.992 255.652 215.914 256.105 216.555C256.559 217.188 257.207 217.504 258.051 217.504C258.871 217.504 259.512 217.191 259.973 216.566C260.434 215.934 260.664 214.926 260.664 213.543C260.664 212.363 260.434 211.449 259.973 210.801C259.512 210.152 258.863 209.828 258.027 209.828C257.199 209.828 256.559 210.152 256.105 210.801C255.652 211.441 255.426 212.438 255.426 213.789ZM270.191 204.203V207.32H272.359V209.805H270.191V216.133C270.191 216.602 270.281 216.938 270.461 217.141C270.641 217.344 270.984 217.445 271.492 217.445C271.867 217.445 272.199 217.418 272.488 217.363V219.93C271.824 220.133 271.141 220.234 270.438 220.234C268.062 220.234 266.852 219.035 266.805 216.637V209.805H264.953V207.32H266.805V204.203H270.191ZM281.594 220C281.438 219.695 281.324 219.316 281.254 218.863C280.434 219.777 279.367 220.234 278.055 220.234C276.812 220.234 275.781 219.875 274.961 219.156C274.148 218.438 273.742 217.531 273.742 216.438C273.742 215.094 274.238 214.062 275.23 213.344C276.23 212.625 277.672 212.262 279.555 212.254H281.113V211.527C281.113 210.941 280.961 210.473 280.656 210.121C280.359 209.77 279.887 209.594 279.238 209.594C278.668 209.594 278.219 209.73 277.891 210.004C277.57 210.277 277.41 210.652 277.41 211.129H274.023C274.023 210.395 274.25 209.715 274.703 209.09C275.156 208.465 275.797 207.977 276.625 207.625C277.453 207.266 278.383 207.086 279.414 207.086C280.977 207.086 282.215 207.48 283.129 208.27C284.051 209.051 284.512 210.152 284.512 211.574V217.07C284.52 218.273 284.688 219.184 285.016 219.801V220H281.594ZM278.793 217.645C279.293 217.645 279.754 217.535 280.176 217.316C280.598 217.09 280.91 216.789 281.113 216.414V214.234H279.848C278.152 214.234 277.25 214.82 277.141 215.992L277.129 216.191C277.129 216.613 277.277 216.961 277.574 217.234C277.871 217.508 278.277 217.645 278.793 217.645ZM291.168 204.203V207.32H293.336V209.805H291.168V216.133C291.168 216.602 291.258 216.938 291.438 217.141C291.617 217.344 291.961 217.445 292.469 217.445C292.844 217.445 293.176 217.418 293.465 217.363V219.93C292.801 220.133 292.117 220.234 291.414 220.234C289.039 220.234 287.828 219.035 287.781 216.637V209.805H285.93V207.32H287.781V204.203H291.168ZM298.797 220H295.398V207.32H298.797V220ZM295.199 204.039C295.199 203.531 295.367 203.113 295.703 202.785C296.047 202.457 296.512 202.293 297.098 202.293C297.676 202.293 298.137 202.457 298.48 202.785C298.824 203.113 298.996 203.531 298.996 204.039C298.996 204.555 298.82 204.977 298.469 205.305C298.125 205.633 297.668 205.797 297.098 205.797C296.527 205.797 296.066 205.633 295.715 205.305C295.371 204.977 295.199 204.555 295.199 204.039ZM301.07 213.543C301.07 212.285 301.312 211.164 301.797 210.18C302.281 209.195 302.977 208.434 303.883 207.895C304.797 207.355 305.855 207.086 307.059 207.086C308.77 207.086 310.164 207.609 311.242 208.656C312.328 209.703 312.934 211.125 313.059 212.922L313.082 213.789C313.082 215.734 312.539 217.297 311.453 218.477C310.367 219.648 308.91 220.234 307.082 220.234C305.254 220.234 303.793 219.648 302.699 218.477C301.613 217.305 301.07 215.711 301.07 213.695V213.543ZM304.457 213.789C304.457 214.992 304.684 215.914 305.137 216.555C305.59 217.188 306.238 217.504 307.082 217.504C307.902 217.504 308.543 217.191 309.004 216.566C309.465 215.934 309.695 214.926 309.695 213.543C309.695 212.363 309.465 211.449 309.004 210.801C308.543 210.152 307.895 209.828 307.059 209.828C306.23 209.828 305.59 210.152 305.137 210.801C304.684 211.441 304.457 212.438 304.457 213.789ZM318.285 207.32L318.391 208.785C319.297 207.652 320.512 207.086 322.035 207.086C323.379 207.086 324.379 207.48 325.035 208.27C325.691 209.059 326.027 210.238 326.043 211.809V220H322.656V211.891C322.656 211.172 322.5 210.652 322.188 210.332C321.875 210.004 321.355 209.84 320.629 209.84C319.676 209.84 318.961 210.246 318.484 211.059V220H315.098V207.32H318.285Z" fill="#E5E5E5"/>
<path d="M33.3672 263.465H30.8477L37.1289 244.938H39.6484L33.3672 263.465ZM52.6914 255.777C52.6914 257.73 52.2461 259.297 51.3555 260.477C50.4727 261.648 49.2773 262.234 47.7695 262.234C46.4883 262.234 45.4531 261.789 44.6641 260.898V266.875H41.2773V249.32H44.418L44.5352 250.562C45.3555 249.578 46.4258 249.086 47.7461 249.086C49.3086 249.086 50.5234 249.664 51.3906 250.82C52.2578 251.977 52.6914 253.57 52.6914 255.602V255.777ZM49.3047 255.531C49.3047 254.352 49.0938 253.441 48.6719 252.801C48.2578 252.16 47.6523 251.84 46.8555 251.84C45.793 251.84 45.0625 252.246 44.6641 253.059V258.25C45.0781 259.086 45.8164 259.504 46.8789 259.504C48.4961 259.504 49.3047 258.18 49.3047 255.531ZM54.2734 255.543C54.2734 254.285 54.5156 253.164 55 252.18C55.4844 251.195 56.1797 250.434 57.0859 249.895C58 249.355 59.0586 249.086 60.2617 249.086C61.9727 249.086 63.3672 249.609 64.4453 250.656C65.5312 251.703 66.1367 253.125 66.2617 254.922L66.2852 255.789C66.2852 257.734 65.7422 259.297 64.6562 260.477C63.5703 261.648 62.1133 262.234 60.2852 262.234C58.457 262.234 56.9961 261.648 55.9023 260.477C54.8164 259.305 54.2734 257.711 54.2734 255.695V255.543ZM57.6602 255.789C57.6602 256.992 57.8867 257.914 58.3398 258.555C58.793 259.188 59.4414 259.504 60.2852 259.504C61.1055 259.504 61.7461 259.191 62.207 258.566C62.668 257.934 62.8984 256.926 62.8984 255.543C62.8984 254.363 62.668 253.449 62.207 252.801C61.7461 252.152 61.0977 251.828 60.2617 251.828C59.4336 251.828 58.793 252.152 58.3398 252.801C57.8867 253.441 57.6602 254.438 57.6602 255.789ZM75.2383 258.496C75.2383 258.082 75.0312 257.758 74.6172 257.523C74.2109 257.281 73.5547 257.066 72.6484 256.879C69.6328 256.246 68.125 254.965 68.125 253.035C68.125 251.91 68.5898 250.973 69.5195 250.223C70.457 249.465 71.6797 249.086 73.1875 249.086C74.7969 249.086 76.082 249.465 77.043 250.223C78.0117 250.98 78.4961 251.965 78.4961 253.176H75.1094C75.1094 252.691 74.9531 252.293 74.6406 251.98C74.3281 251.66 73.8398 251.5 73.1758 251.5C72.6055 251.5 72.1641 251.629 71.8516 251.887C71.5391 252.145 71.3828 252.473 71.3828 252.871C71.3828 253.246 71.5586 253.551 71.9102 253.785C72.2695 254.012 72.8711 254.211 73.7148 254.383C74.5586 254.547 75.2695 254.734 75.8477 254.945C77.6367 255.602 78.5312 256.738 78.5312 258.355C78.5312 259.512 78.0352 260.449 77.043 261.168C76.0508 261.879 74.7695 262.234 73.1992 262.234C72.1367 262.234 71.1914 262.047 70.3633 261.672C69.543 261.289 68.8984 260.77 68.4297 260.113C67.9609 259.449 67.7266 258.734 67.7266 257.969H70.9375C70.9688 258.57 71.1914 259.031 71.6055 259.352C72.0195 259.672 72.5742 259.832 73.2695 259.832C73.918 259.832 74.4062 259.711 74.7344 259.469C75.0703 259.219 75.2383 258.895 75.2383 258.496ZM91.4922 253.258H81.0156V250.492H91.4922V253.258ZM91.4922 258.332H81.0156V255.566H91.4922V258.332ZM111.848 255.777C111.848 257.73 111.402 259.297 110.512 260.477C109.629 261.648 108.434 262.234 106.926 262.234C105.645 262.234 104.609 261.789 103.82 260.898V266.875H100.434V249.32H103.574L103.691 250.562C104.512 249.578 105.582 249.086 106.902 249.086C108.465 249.086 109.68 249.664 110.547 250.82C111.414 251.977 111.848 253.57 111.848 255.602V255.777ZM108.461 255.531C108.461 254.352 108.25 253.441 107.828 252.801C107.414 252.16 106.809 251.84 106.012 251.84C104.949 251.84 104.219 252.246 103.82 253.059V258.25C104.234 259.086 104.973 259.504 106.035 259.504C107.652 259.504 108.461 258.18 108.461 255.531ZM113.43 255.543C113.43 254.285 113.672 253.164 114.156 252.18C114.641 251.195 115.336 250.434 116.242 249.895C117.156 249.355 118.215 249.086 119.418 249.086C121.129 249.086 122.523 249.609 123.602 250.656C124.688 251.703 125.293 253.125 125.418 254.922L125.441 255.789C125.441 257.734 124.898 259.297 123.812 260.477C122.727 261.648 121.27 262.234 119.441 262.234C117.613 262.234 116.152 261.648 115.059 260.477C113.973 259.305 113.43 257.711 113.43 255.695V255.543ZM116.816 255.789C116.816 256.992 117.043 257.914 117.496 258.555C117.949 259.188 118.598 259.504 119.441 259.504C120.262 259.504 120.902 259.191 121.363 258.566C121.824 257.934 122.055 256.926 122.055 255.543C122.055 254.363 121.824 253.449 121.363 252.801C120.902 252.152 120.254 251.828 119.418 251.828C118.59 251.828 117.949 252.152 117.496 252.801C117.043 253.441 116.816 254.438 116.816 255.789ZM134.395 258.496C134.395 258.082 134.188 257.758 133.773 257.523C133.367 257.281 132.711 257.066 131.805 256.879C128.789 256.246 127.281 254.965 127.281 253.035C127.281 251.91 127.746 250.973 128.676 250.223C129.613 249.465 130.836 249.086 132.344 249.086C133.953 249.086 135.238 249.465 136.199 250.223C137.168 250.98 137.652 251.965 137.652 253.176H134.266C134.266 252.691 134.109 252.293 133.797 251.98C133.484 251.66 132.996 251.5 132.332 251.5C131.762 251.5 131.32 251.629 131.008 251.887C130.695 252.145 130.539 252.473 130.539 252.871C130.539 253.246 130.715 253.551 131.066 253.785C131.426 254.012 132.027 254.211 132.871 254.383C133.715 254.547 134.426 254.734 135.004 254.945C136.793 255.602 137.688 256.738 137.688 258.355C137.688 259.512 137.191 260.449 136.199 261.168C135.207 261.879 133.926 262.234 132.355 262.234C131.293 262.234 130.348 262.047 129.52 261.672C128.699 261.289 128.055 260.77 127.586 260.113C127.117 259.449 126.883 258.734 126.883 257.969H130.094C130.125 258.57 130.348 259.031 130.762 259.352C131.176 259.672 131.73 259.832 132.426 259.832C133.074 259.832 133.562 259.711 133.891 259.469C134.227 259.219 134.395 258.895 134.395 258.496ZM143.453 262H140.055V249.32H143.453V262ZM139.855 246.039C139.855 245.531 140.023 245.113 140.359 244.785C140.703 244.457 141.168 244.293 141.754 244.293C142.332 244.293 142.793 244.457 143.137 244.785C143.48 245.113 143.652 245.531 143.652 246.039C143.652 246.555 143.477 246.977 143.125 247.305C142.781 247.633 142.324 247.797 141.754 247.797C141.184 247.797 140.723 247.633 140.371 247.305C140.027 246.977 139.855 246.555 139.855 246.039ZM150.309 246.203V249.32H152.477V251.805H150.309V258.133C150.309 258.602 150.398 258.938 150.578 259.141C150.758 259.344 151.102 259.445 151.609 259.445C151.984 259.445 152.316 259.418 152.605 259.363V261.93C151.941 262.133 151.258 262.234 150.555 262.234C148.18 262.234 146.969 261.035 146.922 258.637V251.805H145.07V249.32H146.922V246.203H150.309ZM157.938 262H154.539V249.32H157.938V262ZM154.34 246.039C154.34 245.531 154.508 245.113 154.844 244.785C155.188 244.457 155.652 244.293 156.238 244.293C156.816 244.293 157.277 244.457 157.621 244.785C157.965 245.113 158.137 245.531 158.137 246.039C158.137 246.555 157.961 246.977 157.609 247.305C157.266 247.633 156.809 247.797 156.238 247.797C155.668 247.797 155.207 247.633 154.855 247.305C154.512 246.977 154.34 246.555 154.34 246.039ZM165.484 257.863L167.84 249.32H171.379L167.102 262H163.867L159.59 249.32H163.129L165.484 257.863ZM178.551 262.234C176.691 262.234 175.176 261.664 174.004 260.523C172.84 259.383 172.258 257.863 172.258 255.965V255.637C172.258 254.363 172.504 253.227 172.996 252.227C173.488 251.219 174.184 250.445 175.082 249.906C175.988 249.359 177.02 249.086 178.176 249.086C179.91 249.086 181.273 249.633 182.266 250.727C183.266 251.82 183.766 253.371 183.766 255.379V256.762H175.691C175.801 257.59 176.129 258.254 176.676 258.754C177.23 259.254 177.93 259.504 178.773 259.504C180.078 259.504 181.098 259.031 181.832 258.086L183.496 259.949C182.988 260.668 182.301 261.23 181.434 261.637C180.566 262.035 179.605 262.234 178.551 262.234ZM178.164 251.828C177.492 251.828 176.945 252.055 176.523 252.508C176.109 252.961 175.844 253.609 175.727 254.453H180.438V254.184C180.422 253.434 180.219 252.855 179.828 252.449C179.438 252.035 178.883 251.828 178.164 251.828ZM196.949 259.504C197.574 259.504 198.082 259.332 198.473 258.988C198.863 258.645 199.066 258.188 199.082 257.617H202.258C202.25 258.477 202.016 259.266 201.555 259.984C201.094 260.695 200.461 261.25 199.656 261.648C198.859 262.039 197.977 262.234 197.008 262.234C195.195 262.234 193.766 261.66 192.719 260.512C191.672 259.355 191.148 257.762 191.148 255.73V255.508C191.148 253.555 191.668 251.996 192.707 250.832C193.746 249.668 195.172 249.086 196.984 249.086C198.57 249.086 199.84 249.539 200.793 250.445C201.754 251.344 202.242 252.543 202.258 254.043H199.082C199.066 253.387 198.863 252.855 198.473 252.449C198.082 252.035 197.566 251.828 196.926 251.828C196.137 251.828 195.539 252.117 195.133 252.695C194.734 253.266 194.535 254.195 194.535 255.484V255.836C194.535 257.141 194.734 258.078 195.133 258.648C195.531 259.219 196.137 259.504 196.949 259.504ZM203.664 255.543C203.664 254.285 203.906 253.164 204.391 252.18C204.875 251.195 205.57 250.434 206.477 249.895C207.391 249.355 208.449 249.086 209.652 249.086C211.363 249.086 212.758 249.609 213.836 250.656C214.922 251.703 215.527 253.125 215.652 254.922L215.676 255.789C215.676 257.734 215.133 259.297 214.047 260.477C212.961 261.648 211.504 262.234 209.676 262.234C207.848 262.234 206.387 261.648 205.293 260.477C204.207 259.305 203.664 257.711 203.664 255.695V255.543ZM207.051 255.789C207.051 256.992 207.277 257.914 207.73 258.555C208.184 259.188 208.832 259.504 209.676 259.504C210.496 259.504 211.137 259.191 211.598 258.566C212.059 257.934 212.289 256.926 212.289 255.543C212.289 254.363 212.059 253.449 211.598 252.801C211.137 252.152 210.488 251.828 209.652 251.828C208.824 251.828 208.184 252.152 207.73 252.801C207.277 253.441 207.051 254.438 207.051 255.789ZM220.879 249.32L220.984 250.785C221.891 249.652 223.105 249.086 224.629 249.086C225.973 249.086 226.973 249.48 227.629 250.27C228.285 251.059 228.621 252.238 228.637 253.809V262H225.25V253.891C225.25 253.172 225.094 252.652 224.781 252.332C224.469 252.004 223.949 251.84 223.223 251.84C222.27 251.84 221.555 252.246 221.078 253.059V262H217.691V249.32H220.879ZM234.332 249.32L234.438 250.785C235.344 249.652 236.559 249.086 238.082 249.086C239.426 249.086 240.426 249.48 241.082 250.27C241.738 251.059 242.074 252.238 242.09 253.809V262H238.703V253.891C238.703 253.172 238.547 252.652 238.234 252.332C237.922 252.004 237.402 251.84 236.676 251.84C235.723 251.84 235.008 252.246 234.531 253.059V262H231.145V249.32H234.332ZM244.141 255.543C244.141 254.285 244.383 253.164 244.867 252.18C245.352 251.195 246.047 250.434 246.953 249.895C247.867 249.355 248.926 249.086 250.129 249.086C251.84 249.086 253.234 249.609 254.312 250.656C255.398 251.703 256.004 253.125 256.129 254.922L256.152 255.789C256.152 257.734 255.609 259.297 254.523 260.477C253.438 261.648 251.98 262.234 250.152 262.234C248.324 262.234 246.863 261.648 245.77 260.477C244.684 259.305 244.141 257.711 244.141 255.695V255.543ZM247.527 255.789C247.527 256.992 247.754 257.914 248.207 258.555C248.66 259.188 249.309 259.504 250.152 259.504C250.973 259.504 251.613 259.191 252.074 258.566C252.535 257.934 252.766 256.926 252.766 255.543C252.766 254.363 252.535 253.449 252.074 252.801C251.613 252.152 250.965 251.828 250.129 251.828C249.301 251.828 248.66 252.152 248.207 252.801C247.754 253.441 247.527 254.438 247.527 255.789ZM262.293 246.203V249.32H264.461V251.805H262.293V258.133C262.293 258.602 262.383 258.938 262.562 259.141C262.742 259.344 263.086 259.445 263.594 259.445C263.969 259.445 264.301 259.418 264.59 259.363V261.93C263.926 262.133 263.242 262.234 262.539 262.234C260.164 262.234 258.953 261.035 258.906 258.637V251.805H257.055V249.32H258.906V246.203H262.293ZM273.695 262C273.539 261.695 273.426 261.316 273.355 260.863C272.535 261.777 271.469 262.234 270.156 262.234C268.914 262.234 267.883 261.875 267.062 261.156C266.25 260.438 265.844 259.531 265.844 258.438C265.844 257.094 266.34 256.062 267.332 255.344C268.332 254.625 269.773 254.262 271.656 254.254H273.215V253.527C273.215 252.941 273.062 252.473 272.758 252.121C272.461 251.77 271.988 251.594 271.34 251.594C270.77 251.594 270.32 251.73 269.992 252.004C269.672 252.277 269.512 252.652 269.512 253.129H266.125C266.125 252.395 266.352 251.715 266.805 251.09C267.258 250.465 267.898 249.977 268.727 249.625C269.555 249.266 270.484 249.086 271.516 249.086C273.078 249.086 274.316 249.48 275.23 250.27C276.152 251.051 276.613 252.152 276.613 253.574V259.07C276.621 260.273 276.789 261.184 277.117 261.801V262H273.695ZM270.895 259.645C271.395 259.645 271.855 259.535 272.277 259.316C272.699 259.09 273.012 258.789 273.215 258.414V256.234H271.949C270.254 256.234 269.352 256.82 269.242 257.992L269.23 258.191C269.23 258.613 269.379 258.961 269.676 259.234C269.973 259.508 270.379 259.645 270.895 259.645ZM283.27 246.203V249.32H285.438V251.805H283.27V258.133C283.27 258.602 283.359 258.938 283.539 259.141C283.719 259.344 284.062 259.445 284.57 259.445C284.945 259.445 285.277 259.418 285.566 259.363V261.93C284.902 262.133 284.219 262.234 283.516 262.234C281.141 262.234 279.93 261.035 279.883 258.637V251.805H278.031V249.32H279.883V246.203H283.27ZM290.898 262H287.5V249.32H290.898V262ZM287.301 246.039C287.301 245.531 287.469 245.113 287.805 244.785C288.148 244.457 288.613 244.293 289.199 244.293C289.777 244.293 290.238 244.457 290.582 244.785C290.926 245.113 291.098 245.531 291.098 246.039C291.098 246.555 290.922 246.977 290.57 247.305C290.227 247.633 289.77 247.797 289.199 247.797C288.629 247.797 288.168 247.633 287.816 247.305C287.473 246.977 287.301 246.555 287.301 246.039ZM293.172 255.543C293.172 254.285 293.414 253.164 293.898 252.18C294.383 251.195 295.078 250.434 295.984 249.895C296.898 249.355 297.957 249.086 299.16 249.086C300.871 249.086 302.266 249.609 303.344 250.656C304.43 251.703 305.035 253.125 305.16 254.922L305.184 255.789C305.184 257.734 304.641 259.297 303.555 260.477C302.469 261.648 301.012 262.234 299.184 262.234C297.355 262.234 295.895 261.648 294.801 260.477C293.715 259.305 293.172 257.711 293.172 255.695V255.543ZM296.559 255.789C296.559 256.992 296.785 257.914 297.238 258.555C297.691 259.188 298.34 259.504 299.184 259.504C300.004 259.504 300.645 259.191 301.105 258.566C301.566 257.934 301.797 256.926 301.797 255.543C301.797 254.363 301.566 253.449 301.105 252.801C300.645 252.152 299.996 251.828 299.16 251.828C298.332 251.828 297.691 252.152 297.238 252.801C296.785 253.441 296.559 254.438 296.559 255.789ZM310.387 249.32L310.492 250.785C311.398 249.652 312.613 249.086 314.137 249.086C315.48 249.086 316.48 249.48 317.137 250.27C317.793 251.059 318.129 252.238 318.145 253.809V262H314.758V253.891C314.758 253.172 314.602 252.652 314.289 252.332C313.977 252.004 313.457 251.84 312.73 251.84C311.777 251.84 311.062 252.246 310.586 253.059V262H307.199V249.32H310.387Z" fill="#E5E5E5"/>
<path d="M241.367 95.4648H238.848L245.129 76.9375H247.648L241.367 95.4648ZM252.582 82.7031C253.48 81.625 254.609 81.0859 255.969 81.0859C258.719 81.0859 260.113 82.6836 260.152 85.8789V94H256.766V85.9727C256.766 85.2461 256.609 84.7109 256.297 84.3672C255.984 84.0156 255.465 83.8398 254.738 83.8398C253.746 83.8398 253.027 84.2227 252.582 84.9883V94H249.195V76H252.582V82.7031ZM267.441 89.207L269.785 81.3203H273.418L268.32 95.9688L268.039 96.6367C267.281 98.293 266.031 99.1211 264.289 99.1211C263.797 99.1211 263.297 99.0469 262.789 98.8984V96.332L263.305 96.3438C263.945 96.3438 264.422 96.2461 264.734 96.0508C265.055 95.8555 265.305 95.5312 265.484 95.0781L265.883 94.0352L261.441 81.3203H265.086L267.441 89.207ZM286.168 87.7773C286.168 89.7305 285.723 91.2969 284.832 92.4766C283.949 93.6484 282.754 94.2344 281.246 94.2344C279.965 94.2344 278.93 93.7891 278.141 92.8984V98.875H274.754V81.3203H277.895L278.012 82.5625C278.832 81.5781 279.902 81.0859 281.223 81.0859C282.785 81.0859 284 81.6641 284.867 82.8203C285.734 83.9766 286.168 85.5703 286.168 87.6016V87.7773ZM282.781 87.5312C282.781 86.3516 282.57 85.4414 282.148 84.8008C281.734 84.1602 281.129 83.8398 280.332 83.8398C279.27 83.8398 278.539 84.2461 278.141 85.0586V90.25C278.555 91.0859 279.293 91.5039 280.355 91.5039C281.973 91.5039 282.781 90.1797 282.781 87.5312ZM305.023 85.2578H294.547V82.4922H305.023V85.2578ZM305.023 90.332H294.547V87.5664H305.023V90.332ZM317.27 82.7031C318.168 81.625 319.297 81.0859 320.656 81.0859C323.406 81.0859 324.801 82.6836 324.84 85.8789V94H321.453V85.9727C321.453 85.2461 321.297 84.7109 320.984 84.3672C320.672 84.0156 320.152 83.8398 319.426 83.8398C318.434 83.8398 317.715 84.2227 317.27 84.9883V94H313.883V76H317.27V82.7031ZM332.129 89.207L334.473 81.3203H338.105L333.008 95.9688L332.727 96.6367C331.969 98.293 330.719 99.1211 328.977 99.1211C328.484 99.1211 327.984 99.0469 327.477 98.8984V96.332L327.992 96.3438C328.633 96.3438 329.109 96.2461 329.422 96.0508C329.742 95.8555 329.992 95.5312 330.172 95.0781L330.57 94.0352L326.129 81.3203H329.773L332.129 89.207ZM350.855 87.7773C350.855 89.7305 350.41 91.2969 349.52 92.4766C348.637 93.6484 347.441 94.2344 345.934 94.2344C344.652 94.2344 343.617 93.7891 342.828 92.8984V98.875H339.441V81.3203H342.582L342.699 82.5625C343.52 81.5781 344.59 81.0859 345.91 81.0859C347.473 81.0859 348.688 81.6641 349.555 82.8203C350.422 83.9766 350.855 85.5703 350.855 87.6016V87.7773ZM347.469 87.5312C347.469 86.3516 347.258 85.4414 346.836 84.8008C346.422 84.1602 345.816 83.8398 345.02 83.8398C343.957 83.8398 343.227 84.2461 342.828 85.0586V90.25C343.242 91.0859 343.98 91.5039 345.043 91.5039C346.66 91.5039 347.469 90.1797 347.469 87.5312ZM358.801 94.2344C356.941 94.2344 355.426 93.6641 354.254 92.5234C353.09 91.3828 352.508 89.8633 352.508 87.9648V87.6367C352.508 86.3633 352.754 85.2266 353.246 84.2266C353.738 83.2188 354.434 82.4453 355.332 81.9062C356.238 81.3594 357.27 81.0859 358.426 81.0859C360.16 81.0859 361.523 81.6328 362.516 82.7266C363.516 83.8203 364.016 85.3711 364.016 87.3789V88.7617H355.941C356.051 89.5898 356.379 90.2539 356.926 90.7539C357.48 91.2539 358.18 91.5039 359.023 91.5039C360.328 91.5039 361.348 91.0312 362.082 90.0859L363.746 91.9492C363.238 92.668 362.551 93.2305 361.684 93.6367C360.816 94.0352 359.855 94.2344 358.801 94.2344ZM358.414 83.8281C357.742 83.8281 357.195 84.0547 356.773 84.5078C356.359 84.9609 356.094 85.6094 355.977 86.4531H360.688V86.1836C360.672 85.4336 360.469 84.8555 360.078 84.4492C359.688 84.0352 359.133 83.8281 358.414 83.8281ZM373.074 84.4961C372.613 84.4336 372.207 84.4023 371.855 84.4023C370.574 84.4023 369.734 84.8359 369.336 85.7031V94H365.949V81.3203H369.148L369.242 82.832C369.922 81.668 370.863 81.0859 372.066 81.0859C372.441 81.0859 372.793 81.1367 373.121 81.2383L373.074 84.4961ZM386.141 87.7773C386.141 89.8086 385.707 91.3945 384.84 92.5352C383.973 93.668 382.762 94.2344 381.207 94.2344C379.832 94.2344 378.734 93.707 377.914 92.6523L377.762 94H374.715V76H378.102V82.457C378.883 81.543 379.91 81.0859 381.184 81.0859C382.73 81.0859 383.941 81.6562 384.816 82.7969C385.699 83.9297 386.141 85.5273 386.141 87.5898V87.7773ZM382.754 87.5312C382.754 86.25 382.551 85.3164 382.145 84.7305C381.738 84.1367 381.133 83.8398 380.328 83.8398C379.25 83.8398 378.508 84.2812 378.102 85.1641V90.168C378.516 91.0586 379.266 91.5039 380.352 91.5039C381.445 91.5039 382.164 90.9648 382.508 89.8867C382.672 89.3711 382.754 88.5859 382.754 87.5312ZM387.711 87.543C387.711 86.2852 387.953 85.1641 388.438 84.1797C388.922 83.1953 389.617 82.4336 390.523 81.8945C391.438 81.3555 392.496 81.0859 393.699 81.0859C395.41 81.0859 396.805 81.6094 397.883 82.6562C398.969 83.7031 399.574 85.125 399.699 86.9219L399.723 87.7891C399.723 89.7344 399.18 91.2969 398.094 92.4766C397.008 93.6484 395.551 94.2344 393.723 94.2344C391.895 94.2344 390.434 93.6484 389.34 92.4766C388.254 91.3047 387.711 89.7109 387.711 87.6953V87.543ZM391.098 87.7891C391.098 88.9922 391.324 89.9141 391.777 90.5547C392.23 91.1875 392.879 91.5039 393.723 91.5039C394.543 91.5039 395.184 91.1914 395.645 90.5664C396.105 89.9336 396.336 88.9258 396.336 87.543C396.336 86.3633 396.105 85.4492 395.645 84.8008C395.184 84.1523 394.535 83.8281 393.699 83.8281C392.871 83.8281 392.23 84.1523 391.777 84.8008C391.324 85.4414 391.098 86.4375 391.098 87.7891ZM405.383 94H401.984V76H405.383V94ZM414.02 94.2344C412.16 94.2344 410.645 93.6641 409.473 92.5234C408.309 91.3828 407.727 89.8633 407.727 87.9648V87.6367C407.727 86.3633 407.973 85.2266 408.465 84.2266C408.957 83.2188 409.652 82.4453 410.551 81.9062C411.457 81.3594 412.488 81.0859 413.645 81.0859C415.379 81.0859 416.742 81.6328 417.734 82.7266C418.734 83.8203 419.234 85.3711 419.234 87.3789V88.7617H411.16C411.27 89.5898 411.598 90.2539 412.145 90.7539C412.699 91.2539 413.398 91.5039 414.242 91.5039C415.547 91.5039 416.566 91.0312 417.301 90.0859L418.965 91.9492C418.457 92.668 417.77 93.2305 416.902 93.6367C416.035 94.0352 415.074 94.2344 414.02 94.2344ZM413.633 83.8281C412.961 83.8281 412.414 84.0547 411.992 84.5078C411.578 84.9609 411.312 85.6094 411.195 86.4531H415.906V86.1836C415.891 85.4336 415.688 84.8555 415.297 84.4492C414.906 84.0352 414.352 83.8281 413.633 83.8281Z" fill="#E5E5E5"/>
<path d="M241.367 137.465H238.848L245.129 118.938H247.648L241.367 137.465ZM260.691 129.777C260.691 131.73 260.246 133.297 259.355 134.477C258.473 135.648 257.277 136.234 255.77 136.234C254.488 136.234 253.453 135.789 252.664 134.898V140.875H249.277V123.32H252.418L252.535 124.562C253.355 123.578 254.426 123.086 255.746 123.086C257.309 123.086 258.523 123.664 259.391 124.82C260.258 125.977 260.691 127.57 260.691 129.602V129.777ZM257.305 129.531C257.305 128.352 257.094 127.441 256.672 126.801C256.258 126.16 255.652 125.84 254.855 125.84C253.793 125.84 253.062 126.246 252.664 127.059V132.25C253.078 133.086 253.816 133.504 254.879 133.504C256.496 133.504 257.305 132.18 257.305 129.531ZM279.547 127.258H269.07V124.492H279.547V127.258ZM279.547 132.332H269.07V129.566H279.547V132.332ZM299.902 129.777C299.902 131.73 299.457 133.297 298.566 134.477C297.684 135.648 296.488 136.234 294.98 136.234C293.699 136.234 292.664 135.789 291.875 134.898V140.875H288.488V123.32H291.629L291.746 124.562C292.566 123.578 293.637 123.086 294.957 123.086C296.52 123.086 297.734 123.664 298.602 124.82C299.469 125.977 299.902 127.57 299.902 129.602V129.777ZM296.516 129.531C296.516 128.352 296.305 127.441 295.883 126.801C295.469 126.16 294.863 125.84 294.066 125.84C293.004 125.84 292.273 126.246 291.875 127.059V132.25C292.289 133.086 293.027 133.504 294.09 133.504C295.707 133.504 296.516 132.18 296.516 129.531ZM305.586 136H302.188V118H305.586V136ZM315.734 136C315.578 135.695 315.465 135.316 315.395 134.863C314.574 135.777 313.508 136.234 312.195 136.234C310.953 136.234 309.922 135.875 309.102 135.156C308.289 134.438 307.883 133.531 307.883 132.438C307.883 131.094 308.379 130.062 309.371 129.344C310.371 128.625 311.812 128.262 313.695 128.254H315.254V127.527C315.254 126.941 315.102 126.473 314.797 126.121C314.5 125.77 314.027 125.594 313.379 125.594C312.809 125.594 312.359 125.73 312.031 126.004C311.711 126.277 311.551 126.652 311.551 127.129H308.164C308.164 126.395 308.391 125.715 308.844 125.09C309.297 124.465 309.938 123.977 310.766 123.625C311.594 123.266 312.523 123.086 313.555 123.086C315.117 123.086 316.355 123.48 317.27 124.27C318.191 125.051 318.652 126.152 318.652 127.574V133.07C318.66 134.273 318.828 135.184 319.156 135.801V136H315.734ZM312.934 133.645C313.434 133.645 313.895 133.535 314.316 133.316C314.738 133.09 315.051 132.789 315.254 132.414V130.234H313.988C312.293 130.234 311.391 130.82 311.281 131.992L311.27 132.191C311.27 132.613 311.418 132.961 311.715 133.234C312.012 133.508 312.418 133.645 312.934 133.645ZM325.309 120.203V123.32H327.477V125.805H325.309V132.133C325.309 132.602 325.398 132.938 325.578 133.141C325.758 133.344 326.102 133.445 326.609 133.445C326.984 133.445 327.316 133.418 327.605 133.363V135.93C326.941 136.133 326.258 136.234 325.555 136.234C323.18 136.234 321.969 135.035 321.922 132.637V125.805H320.07V123.32H321.922V120.203H325.309ZM328.484 129.543C328.484 128.285 328.727 127.164 329.211 126.18C329.695 125.195 330.391 124.434 331.297 123.895C332.211 123.355 333.27 123.086 334.473 123.086C336.184 123.086 337.578 123.609 338.656 124.656C339.742 125.703 340.348 127.125 340.473 128.922L340.496 129.789C340.496 131.734 339.953 133.297 338.867 134.477C337.781 135.648 336.324 136.234 334.496 136.234C332.668 136.234 331.207 135.648 330.113 134.477C329.027 133.305 328.484 131.711 328.484 129.695V129.543ZM331.871 129.789C331.871 130.992 332.098 131.914 332.551 132.555C333.004 133.188 333.652 133.504 334.496 133.504C335.316 133.504 335.957 133.191 336.418 132.566C336.879 131.934 337.109 130.926 337.109 129.543C337.109 128.363 336.879 127.449 336.418 126.801C335.957 126.152 335.309 125.828 334.473 125.828C333.645 125.828 333.004 126.152 332.551 126.801C332.098 127.441 331.871 128.438 331.871 129.789ZM345.699 123.32L345.805 124.785C346.711 123.652 347.926 123.086 349.449 123.086C350.793 123.086 351.793 123.48 352.449 124.27C353.105 125.059 353.441 126.238 353.457 127.809V136H350.07V127.891C350.07 127.172 349.914 126.652 349.602 126.332C349.289 126.004 348.77 125.84 348.043 125.84C347.09 125.84 346.375 126.246 345.898 127.059V136H342.512V123.32H345.699ZM359.609 136H356.211V123.32H359.609V136ZM356.012 120.039C356.012 119.531 356.18 119.113 356.516 118.785C356.859 118.457 357.324 118.293 357.91 118.293C358.488 118.293 358.949 118.457 359.293 118.785C359.637 119.113 359.809 119.531 359.809 120.039C359.809 120.555 359.633 120.977 359.281 121.305C358.938 121.633 358.48 121.797 357.91 121.797C357.34 121.797 356.879 121.633 356.527 121.305C356.184 120.977 356.012 120.555 356.012 120.039ZM367.684 133.504C368.309 133.504 368.816 133.332 369.207 132.988C369.598 132.645 369.801 132.188 369.816 131.617H372.992C372.984 132.477 372.75 133.266 372.289 133.984C371.828 134.695 371.195 135.25 370.391 135.648C369.594 136.039 368.711 136.234 367.742 136.234C365.93 136.234 364.5 135.66 363.453 134.512C362.406 133.355 361.883 131.762 361.883 129.73V129.508C361.883 127.555 362.402 125.996 363.441 124.832C364.48 123.668 365.906 123.086 367.719 123.086C369.305 123.086 370.574 123.539 371.527 124.445C372.488 125.344 372.977 126.543 372.992 128.043H369.816C369.801 127.387 369.598 126.855 369.207 126.449C368.816 126.035 368.301 125.828 367.66 125.828C366.871 125.828 366.273 126.117 365.867 126.695C365.469 127.266 365.27 128.195 365.27 129.484V129.836C365.27 131.141 365.469 132.078 365.867 132.648C366.266 133.219 366.871 133.504 367.684 133.504ZM382.273 136C382.117 135.695 382.004 135.316 381.934 134.863C381.113 135.777 380.047 136.234 378.734 136.234C377.492 136.234 376.461 135.875 375.641 135.156C374.828 134.438 374.422 133.531 374.422 132.438C374.422 131.094 374.918 130.062 375.91 129.344C376.91 128.625 378.352 128.262 380.234 128.254H381.793V127.527C381.793 126.941 381.641 126.473 381.336 126.121C381.039 125.77 380.566 125.594 379.918 125.594C379.348 125.594 378.898 125.73 378.57 126.004C378.25 126.277 378.09 126.652 378.09 127.129H374.703C374.703 126.395 374.93 125.715 375.383 125.09C375.836 124.465 376.477 123.977 377.305 123.625C378.133 123.266 379.062 123.086 380.094 123.086C381.656 123.086 382.895 123.48 383.809 124.27C384.73 125.051 385.191 126.152 385.191 127.574V133.07C385.199 134.273 385.367 135.184 385.695 135.801V136H382.273ZM379.473 133.645C379.973 133.645 380.434 133.535 380.855 133.316C381.277 133.09 381.59 132.789 381.793 132.414V130.234H380.527C378.832 130.234 377.93 130.82 377.82 131.992L377.809 132.191C377.809 132.613 377.957 132.961 378.254 133.234C378.551 133.508 378.957 133.645 379.473 133.645ZM391.367 136H387.969V118H391.367V136ZM397.742 136H394.344V118H397.742V136ZM405.277 131.207L407.621 123.32H411.254L406.156 137.969L405.875 138.637C405.117 140.293 403.867 141.121 402.125 141.121C401.633 141.121 401.133 141.047 400.625 140.898V138.332L401.141 138.344C401.781 138.344 402.258 138.246 402.57 138.051C402.891 137.855 403.141 137.531 403.32 137.078L403.719 136.035L399.277 123.32H402.922L405.277 131.207Z" fill="#E5E5E5"/>
<path d="M241.367 179.465H238.848L245.129 160.938H247.648L241.367 179.465ZM252.453 165.32L252.559 166.738C253.457 165.637 254.672 165.086 256.203 165.086C257.836 165.086 258.957 165.73 259.566 167.02C260.457 165.73 261.727 165.086 263.375 165.086C264.75 165.086 265.773 165.488 266.445 166.293C267.117 167.09 267.453 168.293 267.453 169.902V178H264.055V169.914C264.055 169.195 263.914 168.672 263.633 168.344C263.352 168.008 262.855 167.84 262.145 167.84C261.129 167.84 260.426 168.324 260.035 169.293L260.047 178H256.66V169.926C256.66 169.191 256.516 168.66 256.227 168.332C255.938 168.004 255.445 167.84 254.75 167.84C253.789 167.84 253.094 168.238 252.664 169.035V178H249.277V165.32H252.453ZM286.812 169.258H276.336V166.492H286.812V169.258ZM286.812 174.332H276.336V171.566H286.812V174.332ZM298.93 165.32L299.035 166.738C299.934 165.637 301.148 165.086 302.68 165.086C304.312 165.086 305.434 165.73 306.043 167.02C306.934 165.73 308.203 165.086 309.852 165.086C311.227 165.086 312.25 165.488 312.922 166.293C313.594 167.09 313.93 168.293 313.93 169.902V178H310.531V169.914C310.531 169.195 310.391 168.672 310.109 168.344C309.828 168.008 309.332 167.84 308.621 167.84C307.605 167.84 306.902 168.324 306.512 169.293L306.523 178H303.137V169.926C303.137 169.191 302.992 168.66 302.703 168.332C302.414 168.004 301.922 167.84 301.227 167.84C300.266 167.84 299.57 168.238 299.141 169.035V178H295.754V165.32H298.93ZM322.379 178.234C320.52 178.234 319.004 177.664 317.832 176.523C316.668 175.383 316.086 173.863 316.086 171.965V171.637C316.086 170.363 316.332 169.227 316.824 168.227C317.316 167.219 318.012 166.445 318.91 165.906C319.816 165.359 320.848 165.086 322.004 165.086C323.738 165.086 325.102 165.633 326.094 166.727C327.094 167.82 327.594 169.371 327.594 171.379V172.762H319.52C319.629 173.59 319.957 174.254 320.504 174.754C321.059 175.254 321.758 175.504 322.602 175.504C323.906 175.504 324.926 175.031 325.66 174.086L327.324 175.949C326.816 176.668 326.129 177.23 325.262 177.637C324.395 178.035 323.434 178.234 322.379 178.234ZM321.992 167.828C321.32 167.828 320.773 168.055 320.352 168.508C319.938 168.961 319.672 169.609 319.555 170.453H324.266V170.184C324.25 169.434 324.047 168.855 323.656 168.449C323.266 168.035 322.711 167.828 321.992 167.828ZM333.582 162.203V165.32H335.75V167.805H333.582V174.133C333.582 174.602 333.672 174.938 333.852 175.141C334.031 175.344 334.375 175.445 334.883 175.445C335.258 175.445 335.59 175.418 335.879 175.363V177.93C335.215 178.133 334.531 178.234 333.828 178.234C331.453 178.234 330.242 177.035 330.195 174.637V167.805H328.344V165.32H330.195V162.203H333.582ZM344.984 178C344.828 177.695 344.715 177.316 344.645 176.863C343.824 177.777 342.758 178.234 341.445 178.234C340.203 178.234 339.172 177.875 338.352 177.156C337.539 176.438 337.133 175.531 337.133 174.438C337.133 173.094 337.629 172.062 338.621 171.344C339.621 170.625 341.062 170.262 342.945 170.254H344.504V169.527C344.504 168.941 344.352 168.473 344.047 168.121C343.75 167.77 343.277 167.594 342.629 167.594C342.059 167.594 341.609 167.73 341.281 168.004C340.961 168.277 340.801 168.652 340.801 169.129H337.414C337.414 168.395 337.641 167.715 338.094 167.09C338.547 166.465 339.188 165.977 340.016 165.625C340.844 165.266 341.773 165.086 342.805 165.086C344.367 165.086 345.605 165.48 346.52 166.27C347.441 167.051 347.902 168.152 347.902 169.574V175.07C347.91 176.273 348.078 177.184 348.406 177.801V178H344.984ZM342.184 175.645C342.684 175.645 343.145 175.535 343.566 175.316C343.988 175.09 344.301 174.789 344.504 174.414V172.234H343.238C341.543 172.234 340.641 172.82 340.531 173.992L340.52 174.191C340.52 174.613 340.668 174.961 340.965 175.234C341.262 175.508 341.668 175.645 342.184 175.645ZM361.918 171.777C361.918 173.73 361.473 175.297 360.582 176.477C359.699 177.648 358.504 178.234 356.996 178.234C355.715 178.234 354.68 177.789 353.891 176.898V182.875H350.504V165.32H353.645L353.762 166.562C354.582 165.578 355.652 165.086 356.973 165.086C358.535 165.086 359.75 165.664 360.617 166.82C361.484 167.977 361.918 169.57 361.918 171.602V171.777ZM358.531 171.531C358.531 170.352 358.32 169.441 357.898 168.801C357.484 168.16 356.879 167.84 356.082 167.84C355.02 167.84 354.289 168.246 353.891 169.059V174.25C354.305 175.086 355.043 175.504 356.105 175.504C357.723 175.504 358.531 174.18 358.531 171.531ZM367.332 166.703C368.23 165.625 369.359 165.086 370.719 165.086C373.469 165.086 374.863 166.684 374.902 169.879V178H371.516V169.973C371.516 169.246 371.359 168.711 371.047 168.367C370.734 168.016 370.215 167.84 369.488 167.84C368.496 167.84 367.777 168.223 367.332 168.988V178H363.945V160H367.332V166.703ZM376.93 171.543C376.93 170.285 377.172 169.164 377.656 168.18C378.141 167.195 378.836 166.434 379.742 165.895C380.656 165.355 381.715 165.086 382.918 165.086C384.629 165.086 386.023 165.609 387.102 166.656C388.188 167.703 388.793 169.125 388.918 170.922L388.941 171.789C388.941 173.734 388.398 175.297 387.312 176.477C386.227 177.648 384.77 178.234 382.941 178.234C381.113 178.234 379.652 177.648 378.559 176.477C377.473 175.305 376.93 173.711 376.93 171.695V171.543ZM380.316 171.789C380.316 172.992 380.543 173.914 380.996 174.555C381.449 175.188 382.098 175.504 382.941 175.504C383.762 175.504 384.402 175.191 384.863 174.566C385.324 173.934 385.555 172.926 385.555 171.543C385.555 170.363 385.324 169.449 384.863 168.801C384.402 168.152 383.754 167.828 382.918 167.828C382.09 167.828 381.449 168.152 380.996 168.801C380.543 169.441 380.316 170.438 380.316 171.789ZM398.152 168.496C397.691 168.434 397.285 168.402 396.934 168.402C395.652 168.402 394.812 168.836 394.414 169.703V178H391.027V165.32H394.227L394.32 166.832C395 165.668 395.941 165.086 397.145 165.086C397.52 165.086 397.871 165.137 398.199 165.238L398.152 168.496ZM403.367 178H399.969V165.32H403.367V178ZM399.77 162.039C399.77 161.531 399.938 161.113 400.273 160.785C400.617 160.457 401.082 160.293 401.668 160.293C402.246 160.293 402.707 160.457 403.051 160.785C403.395 161.113 403.566 161.531 403.566 162.039C403.566 162.555 403.391 162.977 403.039 163.305C402.695 163.633 402.238 163.797 401.668 163.797C401.098 163.797 400.637 163.633 400.285 163.305C399.941 162.977 399.77 162.555 399.77 162.039ZM411.441 175.504C412.066 175.504 412.574 175.332 412.965 174.988C413.355 174.645 413.559 174.188 413.574 173.617H416.75C416.742 174.477 416.508 175.266 416.047 175.984C415.586 176.695 414.953 177.25 414.148 177.648C413.352 178.039 412.469 178.234 411.5 178.234C409.688 178.234 408.258 177.66 407.211 176.512C406.164 175.355 405.641 173.762 405.641 171.73V171.508C405.641 169.555 406.16 167.996 407.199 166.832C408.238 165.668 409.664 165.086 411.477 165.086C413.062 165.086 414.332 165.539 415.285 166.445C416.246 167.344 416.734 168.543 416.75 170.043H413.574C413.559 169.387 413.355 168.855 412.965 168.449C412.574 168.035 412.059 167.828 411.418 167.828C410.629 167.828 410.031 168.117 409.625 168.695C409.227 169.266 409.027 170.195 409.027 171.484V171.836C409.027 173.141 409.227 174.078 409.625 174.648C410.023 175.219 410.629 175.504 411.441 175.504ZM426.031 178C425.875 177.695 425.762 177.316 425.691 176.863C424.871 177.777 423.805 178.234 422.492 178.234C421.25 178.234 420.219 177.875 419.398 177.156C418.586 176.438 418.18 175.531 418.18 174.438C418.18 173.094 418.676 172.062 419.668 171.344C420.668 170.625 422.109 170.262 423.992 170.254H425.551V169.527C425.551 168.941 425.398 168.473 425.094 168.121C424.797 167.77 424.324 167.594 423.676 167.594C423.105 167.594 422.656 167.73 422.328 168.004C422.008 168.277 421.848 168.652 421.848 169.129H418.461C418.461 168.395 418.688 167.715 419.141 167.09C419.594 166.465 420.234 165.977 421.062 165.625C421.891 165.266 422.82 165.086 423.852 165.086C425.414 165.086 426.652 165.48 427.566 166.27C428.488 167.051 428.949 168.152 428.949 169.574V175.07C428.957 176.273 429.125 177.184 429.453 177.801V178H426.031ZM423.23 175.645C423.73 175.645 424.191 175.535 424.613 175.316C425.035 175.09 425.348 174.789 425.551 174.414V172.234H424.285C422.59 172.234 421.688 172.82 421.578 173.992L421.566 174.191C421.566 174.613 421.715 174.961 422.012 175.234C422.309 175.508 422.715 175.645 423.23 175.645ZM435.125 178H431.727V160H435.125V178ZM441.5 178H438.102V160H441.5V178ZM449.035 173.207L451.379 165.32H455.012L449.914 179.969L449.633 180.637C448.875 182.293 447.625 183.121 445.883 183.121C445.391 183.121 444.891 183.047 444.383 182.898V180.332L444.898 180.344C445.539 180.344 446.016 180.246 446.328 180.051C446.648 179.855 446.898 179.531 447.078 179.078L447.477 178.035L443.035 165.32H446.68L449.035 173.207Z" fill="#E5E5E5"/>
</svg>
