<svg width="488" height="339" viewBox="0 0 488 339" fill="none" xmlns="http://www.w3.org/2000/svg">
<rect width="488" height="339" fill="white"/>
<rect width="488" height="67" fill="#0078AE"/>
<path d="M423.151 29.1335C424.859 29.7912 424.859 32.2088 423.151 32.8665L401.468 41.212C400.158 41.7163 398.75 40.7493 398.75 39.3455L398.75 22.6545C398.75 21.2507 400.158 20.2837 401.468 20.788L423.151 29.1335Z" fill="#150578"/>
<rect x="9" y="15" width="363" height="36" rx="18" fill="white"/>
<rect x="446" y="15" width="36" height="36" rx="16" fill="#449DD1"/>
<path d="M459.188 31.0449C459.188 31.3184 459.296 31.5807 459.49 31.7741C459.683 31.9675 459.945 32.0762 460.219 32.0762C460.492 32.0762 460.755 31.9675 460.948 31.7741C461.141 31.5807 461.25 31.3184 461.25 31.0449C461.25 30.7714 461.141 30.5091 460.948 30.3157C460.755 30.1223 460.492 30.0137 460.219 30.0137C459.945 30.0137 459.683 30.1223 459.49 30.3157C459.296 30.5091 459.188 30.7714 459.188 31.0449ZM466.75 31.0449C466.75 31.3184 466.859 31.5807 467.052 31.7741C467.245 31.9675 467.508 32.0762 467.781 32.0762C468.055 32.0762 468.317 31.9675 468.51 31.7741C468.704 31.5807 468.812 31.3184 468.812 31.0449C468.812 30.7714 468.704 30.5091 468.51 30.3157C468.317 30.1223 468.055 30.0137 467.781 30.0137C467.508 30.0137 467.245 30.1223 467.052 30.3157C466.859 30.5091 466.75 30.7714 466.75 31.0449ZM464 23.375C458.685 23.375 454.375 27.6848 454.375 33C454.375 38.3152 458.685 42.625 464 42.625C469.315 42.625 473.625 38.3152 473.625 33C473.625 27.6848 469.315 23.375 464 23.375ZM469.65 38.6504C468.916 39.3852 468.061 39.9609 467.109 40.3648C466.127 40.7816 465.081 40.9922 464 40.9922C462.919 40.9922 461.873 40.7816 460.889 40.3648C459.939 39.9635 459.076 39.3812 458.347 38.6504C457.613 37.9156 457.037 37.0605 456.633 36.1088C456.218 35.127 456.008 34.0807 456.008 33C456.008 31.9193 456.218 30.873 456.635 29.8891C457.037 28.9387 457.619 28.0755 458.35 27.3475C459.084 26.6127 459.939 26.0369 460.891 25.633C461.873 25.2184 462.919 25.0078 464 25.0078C465.081 25.0078 466.127 25.2184 467.111 25.6352C468.061 26.0365 468.924 26.6188 469.653 27.3496C470.387 28.0844 470.963 28.9395 471.367 29.8912C471.782 30.873 471.992 31.9193 471.992 33C471.992 34.0807 471.782 35.127 471.365 36.1109C470.964 37.0609 470.382 37.9235 469.65 38.6504ZM467.266 33.4512H466.232C466.142 33.4512 466.065 33.5199 466.058 33.6102C465.977 34.6736 465.085 35.5137 464 35.5137C462.915 35.5137 462.021 34.6736 461.942 33.6102C461.935 33.5199 461.858 33.4512 461.768 33.4512H460.734C460.711 33.4511 460.688 33.4559 460.667 33.465C460.645 33.4742 460.626 33.4876 460.61 33.5045C460.594 33.5214 460.581 33.5414 460.573 33.5632C460.565 33.5851 460.561 33.6084 460.562 33.6316C460.657 35.4428 462.163 36.8887 464 36.8887C465.837 36.8887 467.343 35.4428 467.438 33.6316C467.439 33.6084 467.435 33.5851 467.427 33.5632C467.419 33.5414 467.406 33.5214 467.39 33.5045C467.374 33.4876 467.355 33.4742 467.333 33.465C467.312 33.4559 467.289 33.4511 467.266 33.4512Z" fill="#E5E5E5"/>
<path d="M27.8506 28.0469L31.1045 36.168L34.3584 28.0469H36.0605V38H34.748V34.124L34.8711 29.9404L31.6035 38H30.5986L27.3379 29.9609L27.4678 34.124V38H26.1553V28.0469H27.8506ZM41.249 38.1367C40.2464 38.1367 39.4307 37.8086 38.8018 37.1523C38.1729 36.4915 37.8584 35.6097 37.8584 34.5068V34.2744C37.8584 33.5407 37.9974 32.8867 38.2754 32.3125C38.5579 31.7337 38.9499 31.2826 39.4512 30.959C39.957 30.6309 40.5039 30.4668 41.0918 30.4668C42.0534 30.4668 42.8008 30.7835 43.334 31.417C43.8672 32.0505 44.1338 32.9574 44.1338 34.1377V34.6641H39.123C39.1413 35.3932 39.3532 35.9834 39.7588 36.4346C40.1689 36.8812 40.6885 37.1045 41.3174 37.1045C41.764 37.1045 42.1423 37.0133 42.4521 36.8311C42.762 36.6488 43.0332 36.4072 43.2656 36.1064L44.0381 36.708C43.4183 37.6605 42.4886 38.1367 41.249 38.1367ZM41.0918 31.5059C40.5814 31.5059 40.153 31.6927 39.8066 32.0664C39.4603 32.4355 39.2461 32.9551 39.1641 33.625H42.8691V33.5293C42.8327 32.8867 42.6595 32.39 42.3496 32.0391C42.0397 31.6836 41.6204 31.5059 41.0918 31.5059ZM49.9102 36.0381C49.9102 35.6963 49.7803 35.432 49.5205 35.2451C49.2653 35.0537 48.8164 34.8896 48.1738 34.7529C47.5358 34.6162 47.0277 34.4521 46.6494 34.2607C46.2757 34.0693 45.9977 33.8415 45.8154 33.5771C45.6377 33.3128 45.5488 32.9984 45.5488 32.6338C45.5488 32.0277 45.804 31.515 46.3145 31.0957C46.8294 30.6764 47.4857 30.4668 48.2832 30.4668C49.1217 30.4668 49.8008 30.6833 50.3203 31.1162C50.8444 31.5492 51.1064 32.1029 51.1064 32.7773H49.835C49.835 32.431 49.6868 32.1325 49.3906 31.8818C49.099 31.6312 48.7298 31.5059 48.2832 31.5059C47.8229 31.5059 47.4629 31.6061 47.2031 31.8066C46.9434 32.0072 46.8135 32.2692 46.8135 32.5928C46.8135 32.8981 46.9342 33.1283 47.1758 33.2832C47.4173 33.4382 47.8525 33.5863 48.4814 33.7275C49.1149 33.8688 49.6276 34.0374 50.0195 34.2334C50.4115 34.4294 50.7008 34.6663 50.8877 34.9443C51.0791 35.2178 51.1748 35.5527 51.1748 35.9492C51.1748 36.61 50.9105 37.141 50.3818 37.542C49.8532 37.9385 49.1673 38.1367 48.3242 38.1367C47.7318 38.1367 47.2077 38.0319 46.752 37.8223C46.2962 37.6126 45.9385 37.321 45.6787 36.9473C45.4235 36.569 45.2959 36.1611 45.2959 35.7236H46.5605C46.5833 36.1475 46.752 36.4847 47.0664 36.7354C47.3854 36.9814 47.8047 37.1045 48.3242 37.1045C48.8027 37.1045 49.1855 37.0088 49.4727 36.8174C49.7643 36.6214 49.9102 36.3617 49.9102 36.0381ZM57.1289 36.0381C57.1289 35.6963 56.999 35.432 56.7393 35.2451C56.484 35.0537 56.0352 34.8896 55.3926 34.7529C54.7546 34.6162 54.2464 34.4521 53.8682 34.2607C53.4945 34.0693 53.2165 33.8415 53.0342 33.5771C52.8564 33.3128 52.7676 32.9984 52.7676 32.6338C52.7676 32.0277 53.0228 31.515 53.5332 31.0957C54.0482 30.6764 54.7044 30.4668 55.502 30.4668C56.3405 30.4668 57.0195 30.6833 57.5391 31.1162C58.0632 31.5492 58.3252 32.1029 58.3252 32.7773H57.0537C57.0537 32.431 56.9056 32.1325 56.6094 31.8818C56.3177 31.6312 55.9486 31.5059 55.502 31.5059C55.0417 31.5059 54.6816 31.6061 54.4219 31.8066C54.1621 32.0072 54.0322 32.2692 54.0322 32.5928C54.0322 32.8981 54.153 33.1283 54.3945 33.2832C54.6361 33.4382 55.0713 33.5863 55.7002 33.7275C56.3337 33.8688 56.8464 34.0374 57.2383 34.2334C57.6302 34.4294 57.9196 34.6663 58.1064 34.9443C58.2979 35.2178 58.3936 35.5527 58.3936 35.9492C58.3936 36.61 58.1292 37.141 57.6006 37.542C57.0719 37.9385 56.3861 38.1367 55.543 38.1367C54.9505 38.1367 54.4264 38.0319 53.9707 37.8223C53.515 37.6126 53.1572 37.321 52.8975 36.9473C52.6423 36.569 52.5146 36.1611 52.5146 35.7236H53.7793C53.8021 36.1475 53.9707 36.4847 54.2852 36.7354C54.6042 36.9814 55.0234 37.1045 55.543 37.1045C56.0215 37.1045 56.4043 37.0088 56.6914 36.8174C56.9831 36.6214 57.1289 36.3617 57.1289 36.0381ZM64.6074 38C64.5345 37.8542 64.4753 37.5944 64.4297 37.2207C63.8418 37.8314 63.14 38.1367 62.3242 38.1367C61.5951 38.1367 60.9958 37.9316 60.5264 37.5215C60.0615 37.1068 59.8291 36.5827 59.8291 35.9492C59.8291 35.179 60.1208 34.582 60.7041 34.1582C61.292 33.7298 62.1169 33.5156 63.1787 33.5156H64.4092V32.9346C64.4092 32.4925 64.277 32.1416 64.0127 31.8818C63.7484 31.6175 63.3587 31.4854 62.8438 31.4854C62.3926 31.4854 62.0143 31.5993 61.709 31.8271C61.4036 32.055 61.251 32.3307 61.251 32.6543H59.9795C59.9795 32.2852 60.1094 31.9297 60.3691 31.5879C60.6335 31.2415 60.9889 30.9681 61.4355 30.7676C61.8867 30.5671 62.3812 30.4668 62.9189 30.4668C63.7712 30.4668 64.4388 30.681 64.9219 31.1094C65.4049 31.5332 65.6556 32.1188 65.6738 32.8662V36.2705C65.6738 36.9495 65.7604 37.4896 65.9336 37.8906V38H64.6074ZM62.5088 37.0361C62.9053 37.0361 63.2812 36.9336 63.6367 36.7285C63.9922 36.5234 64.2497 36.2568 64.4092 35.9287V34.4111H63.418C61.8685 34.4111 61.0938 34.8646 61.0938 35.7715C61.0938 36.168 61.2259 36.4779 61.4902 36.7012C61.7546 36.9245 62.0941 37.0361 62.5088 37.0361ZM67.3555 34.2402C67.3555 33.0872 67.6221 32.1712 68.1553 31.4922C68.6885 30.8086 69.3949 30.4668 70.2744 30.4668C71.1768 30.4668 71.8809 30.7858 72.3867 31.4238L72.4482 30.6035H73.6035V37.8223C73.6035 38.7793 73.3187 39.5335 72.749 40.085C72.1839 40.6364 71.4229 40.9121 70.4658 40.9121C69.9326 40.9121 69.4108 40.7982 68.9004 40.5703C68.39 40.3424 68.0003 40.0303 67.7314 39.6338L68.3877 38.875C68.93 39.5449 69.5931 39.8799 70.377 39.8799C70.9922 39.8799 71.4707 39.7067 71.8125 39.3604C72.1589 39.014 72.332 38.5264 72.332 37.8975V37.2617C71.8262 37.8451 71.1357 38.1367 70.2607 38.1367C69.3949 38.1367 68.693 37.7881 68.1553 37.0908C67.6221 36.3936 67.3555 35.4434 67.3555 34.2402ZM68.627 34.3838C68.627 35.2178 68.7979 35.874 69.1396 36.3525C69.4814 36.8265 69.96 37.0635 70.5752 37.0635C71.3727 37.0635 71.9583 36.7012 72.332 35.9766V32.5996C71.9447 31.8932 71.3636 31.54 70.5889 31.54C69.9736 31.54 69.4928 31.7793 69.1465 32.2578C68.8001 32.7363 68.627 33.445 68.627 34.3838ZM78.5869 38.1367C77.5843 38.1367 76.7686 37.8086 76.1396 37.1523C75.5107 36.4915 75.1963 35.6097 75.1963 34.5068V34.2744C75.1963 33.5407 75.3353 32.8867 75.6133 32.3125C75.8958 31.7337 76.2878 31.2826 76.7891 30.959C77.2949 30.6309 77.8418 30.4668 78.4297 30.4668C79.3913 30.4668 80.1387 30.7835 80.6719 31.417C81.2051 32.0505 81.4717 32.9574 81.4717 34.1377V34.6641H76.4609C76.4792 35.3932 76.6911 35.9834 77.0967 36.4346C77.5068 36.8812 78.0264 37.1045 78.6553 37.1045C79.1019 37.1045 79.4801 37.0133 79.79 36.8311C80.0999 36.6488 80.3711 36.4072 80.6035 36.1064L81.376 36.708C80.7562 37.6605 79.8265 38.1367 78.5869 38.1367ZM78.4297 31.5059C77.9193 31.5059 77.4909 31.6927 77.1445 32.0664C76.7982 32.4355 76.584 32.9551 76.502 33.625H80.207V33.5293C80.1706 32.8867 79.9974 32.39 79.6875 32.0391C79.3776 31.6836 78.9583 31.5059 78.4297 31.5059ZM86.4414 37.3369C86.4414 37.1182 86.5052 36.9359 86.6328 36.79C86.765 36.6442 86.9609 36.5713 87.2207 36.5713C87.4805 36.5713 87.6764 36.6442 87.8086 36.79C87.9453 36.9359 88.0137 37.1182 88.0137 37.3369C88.0137 37.5465 87.9453 37.722 87.8086 37.8633C87.6764 38.0046 87.4805 38.0752 87.2207 38.0752C86.9609 38.0752 86.765 38.0046 86.6328 37.8633C86.5052 37.722 86.4414 37.5465 86.4414 37.3369ZM90.1328 37.3369C90.1328 37.1182 90.1966 36.9359 90.3242 36.79C90.4564 36.6442 90.6523 36.5713 90.9121 36.5713C91.1719 36.5713 91.3678 36.6442 91.5 36.79C91.6367 36.9359 91.7051 37.1182 91.7051 37.3369C91.7051 37.5465 91.6367 37.722 91.5 37.8633C91.3678 38.0046 91.1719 38.0752 90.9121 38.0752C90.6523 38.0752 90.4564 38.0046 90.3242 37.8633C90.1966 37.722 90.1328 37.5465 90.1328 37.3369ZM93.8242 37.3369C93.8242 37.1182 93.888 36.9359 94.0156 36.79C94.1478 36.6442 94.3438 36.5713 94.6035 36.5713C94.8633 36.5713 95.0592 36.6442 95.1914 36.79C95.3281 36.9359 95.3965 37.1182 95.3965 37.3369C95.3965 37.5465 95.3281 37.722 95.1914 37.8633C95.0592 38.0046 94.8633 38.0752 94.6035 38.0752C94.3438 38.0752 94.1478 38.0046 94.0156 37.8633C93.888 37.722 93.8242 37.5465 93.8242 37.3369Z" fill="#858181"/>
<rect y="67" width="488" height="272" fill="#25272C"/>
<rect x="101" y="252" width="86" height="31" rx="15.5" fill="#449DD1"/>
<path d="M122.805 273H121.485L116.475 265.33V273H115.155V263.047H116.475L121.499 270.751V263.047H122.805V273ZM132.792 268.345C132.792 269.32 132.628 270.172 132.3 270.901C131.972 271.626 131.507 272.18 130.905 272.562C130.304 272.945 129.602 273.137 128.8 273.137C128.016 273.137 127.321 272.945 126.715 272.562C126.109 272.175 125.637 271.626 125.3 270.915C124.967 270.2 124.796 269.372 124.787 268.434V267.716C124.787 266.759 124.953 265.913 125.286 265.18C125.619 264.446 126.088 263.885 126.694 263.498C127.305 263.106 128.002 262.91 128.786 262.91C129.584 262.91 130.285 263.104 130.892 263.491C131.502 263.874 131.972 264.432 132.3 265.166C132.628 265.895 132.792 266.745 132.792 267.716V268.345ZM131.486 267.702C131.486 266.522 131.249 265.617 130.775 264.988C130.301 264.355 129.638 264.038 128.786 264.038C127.957 264.038 127.303 264.355 126.824 264.988C126.35 265.617 126.106 266.492 126.093 267.613V268.345C126.093 269.489 126.332 270.389 126.811 271.045C127.294 271.697 127.957 272.022 128.8 272.022C129.647 272.022 130.304 271.715 130.769 271.1C131.233 270.48 131.473 269.593 131.486 268.44V267.702ZM144.837 264.127H141.638V273H140.332V264.127H137.14V263.047H144.837V264.127ZM153.778 268.345C153.778 269.32 153.614 270.172 153.286 270.901C152.958 271.626 152.493 272.18 151.892 272.562C151.29 272.945 150.588 273.137 149.786 273.137C149.002 273.137 148.307 272.945 147.701 272.562C147.095 272.175 146.623 271.626 146.286 270.915C145.953 270.2 145.783 269.372 145.773 268.434V267.716C145.773 266.759 145.94 265.913 146.272 265.18C146.605 264.446 147.075 263.885 147.681 263.498C148.291 263.106 148.989 262.91 149.772 262.91C150.57 262.91 151.272 263.104 151.878 263.491C152.489 263.874 152.958 264.432 153.286 265.166C153.614 265.895 153.778 266.745 153.778 267.716V268.345ZM152.473 267.702C152.473 266.522 152.236 265.617 151.762 264.988C151.288 264.355 150.625 264.038 149.772 264.038C148.943 264.038 148.289 264.355 147.811 264.988C147.337 265.617 147.093 266.492 147.079 267.613V268.345C147.079 269.489 147.318 270.389 147.797 271.045C148.28 271.697 148.943 272.022 149.786 272.022C150.634 272.022 151.29 271.715 151.755 271.1C152.22 270.48 152.459 269.593 152.473 268.44V267.702ZM163.396 273H162.077L157.066 265.33V273H155.747V263.047H157.066L162.091 270.751V263.047H163.396V273ZM171.354 268.399H167.04V271.927H172.051V273H165.728V263.047H171.982V264.127H167.04V267.326H171.354V268.399Z" fill="#E5E5E5"/>
<path d="M112.23 115.141H111.111V124.938H112.23V125.828H110.021V114.25H112.23V115.141ZM115.857 120.197C114.893 119.92 114.189 119.58 113.748 119.178C113.311 118.771 113.092 118.271 113.092 117.678C113.092 117.006 113.359 116.451 113.895 116.014C114.434 115.572 115.133 115.352 115.992 115.352C116.578 115.352 117.1 115.465 117.557 115.691C118.018 115.918 118.373 116.23 118.623 116.629C118.877 117.027 119.004 117.463 119.004 117.936H117.873C117.873 117.42 117.709 117.016 117.381 116.723C117.053 116.426 116.59 116.277 115.992 116.277C115.438 116.277 115.004 116.4 114.691 116.646C114.383 116.889 114.229 117.227 114.229 117.66C114.229 118.008 114.375 118.303 114.668 118.545C114.965 118.783 115.467 119.002 116.174 119.201C116.885 119.4 117.439 119.621 117.838 119.863C118.24 120.102 118.537 120.381 118.729 120.701C118.924 121.021 119.021 121.398 119.021 121.832C119.021 122.523 118.752 123.078 118.213 123.496C117.674 123.91 116.953 124.117 116.051 124.117C115.465 124.117 114.918 124.006 114.41 123.783C113.902 123.557 113.51 123.248 113.232 122.857C112.959 122.467 112.822 122.023 112.822 121.527H113.953C113.953 122.043 114.143 122.451 114.521 122.752C114.904 123.049 115.414 123.197 116.051 123.197C116.645 123.197 117.1 123.076 117.416 122.834C117.732 122.592 117.891 122.262 117.891 121.844C117.891 121.426 117.744 121.104 117.451 120.877C117.158 120.646 116.627 120.42 115.857 120.197ZM125.18 121.773H121.605L120.803 124H119.643L122.9 115.469H123.885L127.148 124H125.994L125.18 121.773ZM121.945 120.848H124.846L123.393 116.857L121.945 120.848ZM131.426 120.549H129.422V124H128.291V115.469H131.115C132.076 115.469 132.814 115.688 133.33 116.125C133.85 116.562 134.109 117.199 134.109 118.035C134.109 118.566 133.965 119.029 133.676 119.424C133.391 119.818 132.992 120.113 132.48 120.309L134.484 123.93V124H133.277L131.426 120.549ZM129.422 119.629H131.15C131.709 119.629 132.152 119.484 132.48 119.195C132.812 118.906 132.979 118.52 132.979 118.035C132.979 117.508 132.82 117.104 132.504 116.822C132.191 116.541 131.738 116.398 131.145 116.395H129.422V119.629ZM141.967 121.293C141.861 122.195 141.527 122.893 140.965 123.385C140.406 123.873 139.662 124.117 138.732 124.117C137.725 124.117 136.916 123.756 136.307 123.033C135.701 122.311 135.398 121.344 135.398 120.133V119.312C135.398 118.52 135.539 117.822 135.82 117.221C136.105 116.619 136.508 116.158 137.027 115.838C137.547 115.514 138.148 115.352 138.832 115.352C139.738 115.352 140.465 115.605 141.012 116.113C141.559 116.617 141.877 117.316 141.967 118.211H140.836C140.738 117.531 140.525 117.039 140.197 116.734C139.873 116.43 139.418 116.277 138.832 116.277C138.113 116.277 137.549 116.543 137.139 117.074C136.732 117.605 136.529 118.361 136.529 119.342V120.168C136.529 121.094 136.723 121.83 137.109 122.377C137.496 122.924 138.037 123.197 138.732 123.197C139.357 123.197 139.836 123.057 140.168 122.775C140.504 122.49 140.727 121.996 140.836 121.293H141.967ZM148.219 121.773H144.645L143.842 124H142.682L145.939 115.469H146.924L150.188 124H149.033L148.219 121.773ZM144.984 120.848H147.885L146.432 116.857L144.984 120.848ZM153.85 120.197C152.885 119.92 152.182 119.58 151.74 119.178C151.303 118.771 151.084 118.271 151.084 117.678C151.084 117.006 151.352 116.451 151.887 116.014C152.426 115.572 153.125 115.352 153.984 115.352C154.57 115.352 155.092 115.465 155.549 115.691C156.01 115.918 156.365 116.23 156.615 116.629C156.869 117.027 156.996 117.463 156.996 117.936H155.865C155.865 117.42 155.701 117.016 155.373 116.723C155.045 116.426 154.582 116.277 153.984 116.277C153.43 116.277 152.996 116.4 152.684 116.646C152.375 116.889 152.221 117.227 152.221 117.66C152.221 118.008 152.367 118.303 152.66 118.545C152.957 118.783 153.459 119.002 154.166 119.201C154.877 119.4 155.432 119.621 155.83 119.863C156.232 120.102 156.529 120.381 156.721 120.701C156.916 121.021 157.014 121.398 157.014 121.832C157.014 122.523 156.744 123.078 156.205 123.496C155.666 123.91 154.945 124.117 154.043 124.117C153.457 124.117 152.91 124.006 152.402 123.783C151.895 123.557 151.502 123.248 151.225 122.857C150.951 122.467 150.814 122.023 150.814 121.527H151.945C151.945 122.043 152.135 122.451 152.514 122.752C152.896 123.049 153.406 123.197 154.043 123.197C154.637 123.197 155.092 123.076 155.408 122.834C155.725 122.592 155.883 122.262 155.883 121.844C155.883 121.426 155.736 121.104 155.443 120.877C155.15 120.646 154.619 120.42 153.85 120.197ZM164.355 116.395H161.613V124H160.494V116.395H157.758V115.469H164.355V116.395ZM166.828 124H165.703V115.469H166.828V124ZM175.166 121.293C175.061 122.195 174.727 122.893 174.164 123.385C173.605 123.873 172.861 124.117 171.932 124.117C170.924 124.117 170.115 123.756 169.506 123.033C168.9 122.311 168.598 121.344 168.598 120.133V119.312C168.598 118.52 168.738 117.822 169.02 117.221C169.305 116.619 169.707 116.158 170.227 115.838C170.746 115.514 171.348 115.352 172.031 115.352C172.938 115.352 173.664 115.605 174.211 116.113C174.758 116.617 175.076 117.316 175.166 118.211H174.035C173.938 117.531 173.725 117.039 173.396 116.734C173.072 116.43 172.617 116.277 172.031 116.277C171.312 116.277 170.748 116.543 170.338 117.074C169.932 117.605 169.729 118.361 169.729 119.342V120.168C169.729 121.094 169.922 121.83 170.309 122.377C170.695 122.924 171.236 123.197 171.932 123.197C172.557 123.197 173.035 123.057 173.367 122.775C173.703 122.49 173.926 121.996 174.035 121.293H175.166ZM175.699 114.25H177.914V125.828H175.699V124.938H176.83V115.141H175.699V114.25Z" fill="white"/>
<path d="M205.426 115.141H204.307V124.938H205.426V125.828H203.217V114.25H205.426V115.141ZM212.814 121.293C212.709 122.195 212.375 122.893 211.812 123.385C211.254 123.873 210.51 124.117 209.58 124.117C208.572 124.117 207.764 123.756 207.154 123.033C206.549 122.311 206.246 121.344 206.246 120.133V119.312C206.246 118.52 206.387 117.822 206.668 117.221C206.953 116.619 207.355 116.158 207.875 115.838C208.395 115.514 208.996 115.352 209.68 115.352C210.586 115.352 211.312 115.605 211.859 116.113C212.406 116.617 212.725 117.316 212.814 118.211H211.684C211.586 117.531 211.373 117.039 211.045 116.734C210.721 116.43 210.266 116.277 209.68 116.277C208.961 116.277 208.396 116.543 207.986 117.074C207.58 117.605 207.377 118.361 207.377 119.342V120.168C207.377 121.094 207.57 121.83 207.957 122.377C208.344 122.924 208.885 123.197 209.58 123.197C210.205 123.197 210.684 123.057 211.016 122.775C211.352 122.49 211.574 121.996 211.684 121.293H212.814ZM220.918 120.01C220.918 120.846 220.777 121.576 220.496 122.201C220.215 122.822 219.816 123.297 219.301 123.625C218.785 123.953 218.184 124.117 217.496 124.117C216.824 124.117 216.229 123.953 215.709 123.625C215.189 123.293 214.785 122.822 214.496 122.213C214.211 121.6 214.064 120.891 214.057 120.086V119.471C214.057 118.65 214.199 117.926 214.484 117.297C214.77 116.668 215.172 116.188 215.691 115.855C216.215 115.52 216.812 115.352 217.484 115.352C218.168 115.352 218.77 115.518 219.289 115.85C219.812 116.178 220.215 116.656 220.496 117.285C220.777 117.91 220.918 118.639 220.918 119.471V120.01ZM219.799 119.459C219.799 118.447 219.596 117.672 219.189 117.133C218.783 116.59 218.215 116.318 217.484 116.318C216.773 116.318 216.213 116.59 215.803 117.133C215.396 117.672 215.188 118.422 215.176 119.383V120.01C215.176 120.99 215.381 121.762 215.791 122.324C216.205 122.883 216.773 123.162 217.496 123.162C218.223 123.162 218.785 122.898 219.184 122.371C219.582 121.84 219.787 121.08 219.799 120.092V119.459ZM229.162 124H228.031L223.736 117.426V124H222.605V115.469H223.736L228.043 122.072V115.469H229.162V124ZM237.436 121.293C237.33 122.195 236.996 122.893 236.434 123.385C235.875 123.873 235.131 124.117 234.201 124.117C233.193 124.117 232.385 123.756 231.775 123.033C231.17 122.311 230.867 121.344 230.867 120.133V119.312C230.867 118.52 231.008 117.822 231.289 117.221C231.574 116.619 231.977 116.158 232.496 115.838C233.016 115.514 233.617 115.352 234.301 115.352C235.207 115.352 235.934 115.605 236.48 116.113C237.027 116.617 237.346 117.316 237.436 118.211H236.305C236.207 117.531 235.994 117.039 235.666 116.734C235.342 116.43 234.887 116.277 234.301 116.277C233.582 116.277 233.018 116.543 232.607 117.074C232.201 117.605 231.998 118.361 231.998 119.342V120.168C231.998 121.094 232.191 121.83 232.578 122.377C232.965 122.924 233.506 123.197 234.201 123.197C234.826 123.197 235.305 123.057 235.637 122.775C235.973 122.49 236.195 121.996 236.305 121.293H237.436ZM243.799 120.057H240.102V123.08H244.396V124H238.977V115.469H244.338V116.395H240.102V119.137H243.799V120.057ZM248.926 120.549H246.922V124H245.791V115.469H248.615C249.576 115.469 250.314 115.688 250.83 116.125C251.35 116.562 251.609 117.199 251.609 118.035C251.609 118.566 251.465 119.029 251.176 119.424C250.891 119.818 250.492 120.113 249.98 120.309L251.984 123.93V124H250.777L248.926 120.549ZM246.922 119.629H248.65C249.209 119.629 249.652 119.484 249.98 119.195C250.312 118.906 250.479 118.52 250.479 118.035C250.479 117.508 250.32 117.104 250.004 116.822C249.691 116.541 249.238 116.398 248.645 116.395H246.922V119.629ZM259.748 124H258.617L254.322 117.426V124H253.191V115.469H254.322L258.629 122.072V115.469H259.748V124ZM266.568 120.057H262.871V123.08H267.166V124H261.746V115.469H267.107V116.395H262.871V119.137H266.568V120.057ZM268.566 124V115.469H270.975C271.717 115.469 272.373 115.633 272.943 115.961C273.514 116.289 273.953 116.756 274.262 117.361C274.574 117.967 274.732 118.662 274.736 119.447V119.992C274.736 120.797 274.58 121.502 274.268 122.107C273.959 122.713 273.516 123.178 272.938 123.502C272.363 123.826 271.693 123.992 270.928 124H268.566ZM269.691 116.395V123.08H270.875C271.742 123.08 272.416 122.811 272.896 122.271C273.381 121.732 273.623 120.965 273.623 119.969V119.471C273.623 118.502 273.395 117.75 272.938 117.215C272.484 116.676 271.84 116.402 271.004 116.395H269.691ZM275.504 114.25H277.719V125.828H275.504V124.938H276.635V115.141H275.504V114.25Z" fill="white"/>
<path d="M305.172 115.141H304.053V124.938H305.172V125.828H302.963V114.25H305.172V115.141ZM310.99 120.232H307.41V124H306.285V115.469H311.57V116.395H307.41V119.312H310.99V120.232ZM316.047 120.549H314.043V124H312.912V115.469H315.736C316.697 115.469 317.436 115.688 317.951 116.125C318.471 116.562 318.73 117.199 318.73 118.035C318.73 118.566 318.586 119.029 318.297 119.424C318.012 119.818 317.613 120.113 317.102 120.309L319.105 123.93V124H317.898L316.047 120.549ZM314.043 119.629H315.771C316.33 119.629 316.773 119.484 317.102 119.195C317.434 118.906 317.6 118.52 317.6 118.035C317.6 117.508 317.441 117.104 317.125 116.822C316.812 116.541 316.359 116.398 315.766 116.395H314.043V119.629ZM326.318 115.469V121.27C326.314 122.074 326.061 122.732 325.557 123.244C325.057 123.756 324.377 124.043 323.518 124.105L323.219 124.117C322.285 124.117 321.541 123.865 320.986 123.361C320.432 122.857 320.15 122.164 320.143 121.281V115.469H321.256V121.246C321.256 121.863 321.426 122.344 321.766 122.688C322.105 123.027 322.59 123.197 323.219 123.197C323.855 123.197 324.342 123.027 324.678 122.688C325.018 122.348 325.188 121.869 325.188 121.252V115.469H326.318ZM330.607 120.197C329.643 119.92 328.939 119.58 328.498 119.178C328.061 118.771 327.842 118.271 327.842 117.678C327.842 117.006 328.109 116.451 328.645 116.014C329.184 115.572 329.883 115.352 330.742 115.352C331.328 115.352 331.85 115.465 332.307 115.691C332.768 115.918 333.123 116.23 333.373 116.629C333.627 117.027 333.754 117.463 333.754 117.936H332.623C332.623 117.42 332.459 117.016 332.131 116.723C331.803 116.426 331.34 116.277 330.742 116.277C330.188 116.277 329.754 116.4 329.441 116.646C329.133 116.889 328.979 117.227 328.979 117.66C328.979 118.008 329.125 118.303 329.418 118.545C329.715 118.783 330.217 119.002 330.924 119.201C331.635 119.4 332.189 119.621 332.588 119.863C332.99 120.102 333.287 120.381 333.479 120.701C333.674 121.021 333.771 121.398 333.771 121.832C333.771 122.523 333.502 123.078 332.963 123.496C332.424 123.91 331.703 124.117 330.801 124.117C330.215 124.117 329.668 124.006 329.16 123.783C328.652 123.557 328.26 123.248 327.982 122.857C327.709 122.467 327.572 122.023 327.572 121.527H328.703C328.703 122.043 328.893 122.451 329.271 122.752C329.654 123.049 330.164 123.197 330.801 123.197C331.395 123.197 331.85 123.076 332.166 122.834C332.482 122.592 332.641 122.262 332.641 121.844C332.641 121.426 332.494 121.104 332.201 120.877C331.908 120.646 331.377 120.42 330.607 120.197ZM341.113 116.395H338.371V124H337.252V116.395H334.516V115.469H341.113V116.395ZM345.508 120.549H343.504V124H342.373V115.469H345.197C346.158 115.469 346.896 115.688 347.412 116.125C347.932 116.562 348.191 117.199 348.191 118.035C348.191 118.566 348.047 119.029 347.758 119.424C347.473 119.818 347.074 120.113 346.562 120.309L348.566 123.93V124H347.359L345.508 120.549ZM343.504 119.629H345.232C345.791 119.629 346.234 119.484 346.562 119.195C346.895 118.906 347.061 118.52 347.061 118.035C347.061 117.508 346.902 117.104 346.586 116.822C346.273 116.541 345.82 116.398 345.227 116.395H343.504V119.629ZM354.484 121.773H350.91L350.107 124H348.947L352.205 115.469H353.189L356.453 124H355.299L354.484 121.773ZM351.25 120.848H354.15L352.697 116.857L351.25 120.848ZM362.734 116.395H359.992V124H358.873V116.395H356.137V115.469H362.734V116.395ZM368.822 120.057H365.125V123.08H369.42V124H364V115.469H369.361V116.395H365.125V119.137H368.822V120.057ZM370.82 124V115.469H373.229C373.971 115.469 374.627 115.633 375.197 115.961C375.768 116.289 376.207 116.756 376.516 117.361C376.828 117.967 376.986 118.662 376.99 119.447V119.992C376.99 120.797 376.834 121.502 376.521 122.107C376.213 122.713 375.77 123.178 375.191 123.502C374.617 123.826 373.947 123.992 373.182 124H370.82ZM371.945 116.395V123.08H373.129C373.996 123.08 374.67 122.811 375.15 122.271C375.635 121.732 375.877 120.965 375.877 119.969V119.471C375.877 118.502 375.648 117.75 375.191 117.215C374.738 116.676 374.094 116.402 373.258 116.395H371.945ZM377.758 114.25H379.973V125.828H377.758V124.938H378.889V115.141H377.758V114.25Z" fill="white"/>
<path d="M119.168 164.141H118.049V173.938H119.168V174.828H116.959V163.25H119.168V164.141ZM126.557 170.293C126.451 171.195 126.117 171.893 125.555 172.385C124.996 172.873 124.252 173.117 123.322 173.117C122.314 173.117 121.506 172.756 120.896 172.033C120.291 171.311 119.988 170.344 119.988 169.133V168.312C119.988 167.52 120.129 166.822 120.41 166.221C120.695 165.619 121.098 165.158 121.617 164.838C122.137 164.514 122.738 164.352 123.422 164.352C124.328 164.352 125.055 164.605 125.602 165.113C126.148 165.617 126.467 166.316 126.557 167.211H125.426C125.328 166.531 125.115 166.039 124.787 165.734C124.463 165.43 124.008 165.277 123.422 165.277C122.703 165.277 122.139 165.543 121.729 166.074C121.322 166.605 121.119 167.361 121.119 168.342V169.168C121.119 170.094 121.312 170.83 121.699 171.377C122.086 171.924 122.627 172.197 123.322 172.197C123.947 172.197 124.426 172.057 124.758 171.775C125.094 171.49 125.316 170.996 125.426 170.293H126.557ZM134.104 164.469V170.27C134.1 171.074 133.846 171.732 133.342 172.244C132.842 172.756 132.162 173.043 131.303 173.105L131.004 173.117C130.07 173.117 129.326 172.865 128.771 172.361C128.217 171.857 127.936 171.164 127.928 170.281V164.469H129.041V170.246C129.041 170.863 129.211 171.344 129.551 171.688C129.891 172.027 130.375 172.197 131.004 172.197C131.641 172.197 132.127 172.027 132.463 171.688C132.803 171.348 132.973 170.869 132.973 170.252V164.469H134.104ZM139.008 169.549H137.004V173H135.873V164.469H138.697C139.658 164.469 140.396 164.688 140.912 165.125C141.432 165.562 141.691 166.199 141.691 167.035C141.691 167.566 141.547 168.029 141.258 168.424C140.973 168.818 140.574 169.113 140.062 169.309L142.066 172.93V173H140.859L139.008 169.549ZM137.004 168.629H138.732C139.291 168.629 139.734 168.484 140.062 168.195C140.395 167.906 140.561 167.52 140.561 167.035C140.561 166.508 140.402 166.104 140.086 165.822C139.773 165.541 139.32 165.398 138.727 165.395H137.004V168.629ZM144.48 173H143.355V164.469H144.48V173ZM153.105 169.01C153.105 169.846 152.965 170.576 152.684 171.201C152.402 171.822 152.004 172.297 151.488 172.625C150.973 172.953 150.371 173.117 149.684 173.117C149.012 173.117 148.416 172.953 147.896 172.625C147.377 172.293 146.973 171.822 146.684 171.213C146.398 170.6 146.252 169.891 146.244 169.086V168.471C146.244 167.65 146.387 166.926 146.672 166.297C146.957 165.668 147.359 165.188 147.879 164.855C148.402 164.52 149 164.352 149.672 164.352C150.355 164.352 150.957 164.518 151.477 164.85C152 165.178 152.402 165.656 152.684 166.285C152.965 166.91 153.105 167.639 153.105 168.471V169.01ZM151.986 168.459C151.986 167.447 151.783 166.672 151.377 166.133C150.971 165.59 150.402 165.318 149.672 165.318C148.961 165.318 148.4 165.59 147.99 166.133C147.584 166.672 147.375 167.422 147.363 168.383V169.01C147.363 169.99 147.568 170.762 147.979 171.324C148.393 171.883 148.961 172.162 149.684 172.162C150.41 172.162 150.973 171.898 151.371 171.371C151.77 170.84 151.975 170.08 151.986 169.092V168.459ZM160.799 164.469V170.27C160.795 171.074 160.541 171.732 160.037 172.244C159.537 172.756 158.857 173.043 157.998 173.105L157.699 173.117C156.766 173.117 156.021 172.865 155.467 172.361C154.912 171.857 154.631 171.164 154.623 170.281V164.469H155.736V170.246C155.736 170.863 155.906 171.344 156.246 171.688C156.586 172.027 157.07 172.197 157.699 172.197C158.336 172.197 158.822 172.027 159.158 171.688C159.498 171.348 159.668 170.869 159.668 170.252V164.469H160.799ZM165.088 169.197C164.123 168.92 163.42 168.58 162.979 168.178C162.541 167.771 162.322 167.271 162.322 166.678C162.322 166.006 162.59 165.451 163.125 165.014C163.664 164.572 164.363 164.352 165.223 164.352C165.809 164.352 166.33 164.465 166.787 164.691C167.248 164.918 167.604 165.23 167.854 165.629C168.107 166.027 168.234 166.463 168.234 166.936H167.104C167.104 166.42 166.939 166.016 166.611 165.723C166.283 165.426 165.82 165.277 165.223 165.277C164.668 165.277 164.234 165.4 163.922 165.646C163.613 165.889 163.459 166.227 163.459 166.66C163.459 167.008 163.605 167.303 163.898 167.545C164.195 167.783 164.697 168.002 165.404 168.201C166.115 168.4 166.67 168.621 167.068 168.863C167.471 169.102 167.768 169.381 167.959 169.701C168.154 170.021 168.252 170.398 168.252 170.832C168.252 171.523 167.982 172.078 167.443 172.496C166.904 172.91 166.184 173.117 165.281 173.117C164.695 173.117 164.148 173.006 163.641 172.783C163.133 172.557 162.74 172.248 162.463 171.857C162.189 171.467 162.053 171.023 162.053 170.527H163.184C163.184 171.043 163.373 171.451 163.752 171.752C164.135 172.049 164.645 172.197 165.281 172.197C165.875 172.197 166.33 172.076 166.646 171.834C166.963 171.592 167.121 171.262 167.121 170.844C167.121 170.426 166.975 170.104 166.682 169.877C166.389 169.646 165.857 169.42 165.088 169.197ZM168.762 163.25H170.977V174.828H168.762V173.938H169.893V164.141H168.762V163.25Z" fill="white"/>
<path d="M219.084 164.141H217.965V173.938H219.084V174.828H216.875V163.25H219.084V164.141ZM223.666 164.469H224.797V170.51C224.797 171.326 224.551 171.965 224.059 172.426C223.57 172.887 222.918 173.117 222.102 173.117C221.254 173.117 220.594 172.9 220.121 172.467C219.648 172.033 219.412 171.426 219.412 170.645H220.537C220.537 171.133 220.67 171.514 220.936 171.787C221.205 172.061 221.594 172.197 222.102 172.197C222.566 172.197 222.941 172.051 223.227 171.758C223.516 171.465 223.662 171.055 223.666 170.527V164.469ZM233.275 169.01C233.275 169.846 233.135 170.576 232.854 171.201C232.572 171.822 232.174 172.297 231.658 172.625C231.143 172.953 230.541 173.117 229.854 173.117C229.182 173.117 228.586 172.953 228.066 172.625C227.547 172.293 227.143 171.822 226.854 171.213C226.568 170.6 226.422 169.891 226.414 169.086V168.471C226.414 167.65 226.557 166.926 226.842 166.297C227.127 165.668 227.529 165.188 228.049 164.855C228.572 164.52 229.17 164.352 229.842 164.352C230.525 164.352 231.127 164.518 231.646 164.85C232.17 165.178 232.572 165.656 232.854 166.285C233.135 166.91 233.275 167.639 233.275 168.471V169.01ZM232.156 168.459C232.156 167.447 231.953 166.672 231.547 166.133C231.141 165.59 230.572 165.318 229.842 165.318C229.131 165.318 228.57 165.59 228.16 166.133C227.754 166.672 227.545 167.422 227.533 168.383V169.01C227.533 169.99 227.738 170.762 228.148 171.324C228.562 171.883 229.131 172.162 229.854 172.162C230.58 172.162 231.143 171.898 231.541 171.371C231.939 170.84 232.145 170.08 232.156 169.092V168.459ZM237.307 168.752L239.533 164.469H240.811L237.869 169.818V173H236.744V169.818L233.803 164.469H235.092L237.307 168.752ZM246.617 169.232H243.037V173H241.912V164.469H247.197V165.395H243.037V168.312H246.617V169.232ZM254.551 164.469V170.27C254.547 171.074 254.293 171.732 253.789 172.244C253.289 172.756 252.609 173.043 251.75 173.105L251.451 173.117C250.518 173.117 249.773 172.865 249.219 172.361C248.664 171.857 248.383 171.164 248.375 170.281V164.469H249.488V170.246C249.488 170.863 249.658 171.344 249.998 171.688C250.338 172.027 250.822 172.197 251.451 172.197C252.088 172.197 252.574 172.027 252.91 171.688C253.25 171.348 253.42 170.869 253.42 170.252V164.469H254.551ZM257.457 172.08H261.5V173H256.326V164.469H257.457V172.08ZM261.846 163.25H264.061V174.828H261.846V173.938H262.977V164.141H261.846V163.25Z" fill="white"/>
<path d="M320.23 164.141H319.111V173.938H320.23V174.828H318.021V163.25H320.23V164.141ZM324.812 164.469H325.943V170.51C325.943 171.326 325.697 171.965 325.205 172.426C324.717 172.887 324.064 173.117 323.248 173.117C322.4 173.117 321.74 172.9 321.268 172.467C320.795 172.033 320.559 171.426 320.559 170.645H321.684C321.684 171.133 321.816 171.514 322.082 171.787C322.352 172.061 322.74 172.197 323.248 172.197C323.713 172.197 324.088 172.051 324.373 171.758C324.662 171.465 324.809 171.055 324.812 170.527V164.469ZM334.422 169.01C334.422 169.846 334.281 170.576 334 171.201C333.719 171.822 333.32 172.297 332.805 172.625C332.289 172.953 331.688 173.117 331 173.117C330.328 173.117 329.732 172.953 329.213 172.625C328.693 172.293 328.289 171.822 328 171.213C327.715 170.6 327.568 169.891 327.561 169.086V168.471C327.561 167.65 327.703 166.926 327.988 166.297C328.273 165.668 328.676 165.188 329.195 164.855C329.719 164.52 330.316 164.352 330.988 164.352C331.672 164.352 332.273 164.518 332.793 164.85C333.316 165.178 333.719 165.656 334 166.285C334.281 166.91 334.422 167.639 334.422 168.471V169.01ZM333.303 168.459C333.303 167.447 333.1 166.672 332.693 166.133C332.287 165.59 331.719 165.318 330.988 165.318C330.277 165.318 329.717 165.59 329.307 166.133C328.9 166.672 328.691 167.422 328.68 168.383V169.01C328.68 169.99 328.885 170.762 329.295 171.324C329.709 171.883 330.277 172.162 331 172.162C331.727 172.162 332.289 171.898 332.688 171.371C333.086 170.84 333.291 170.08 333.303 169.092V168.459ZM338.277 169.033L337.234 170.117V173H336.109V164.469H337.234V168.688L341.025 164.469H342.385L339.027 168.236L342.648 173H341.301L338.277 169.033ZM344.84 173H343.715V164.469H344.84V173ZM353.459 173H352.328L348.033 166.426V173H346.902V164.469H348.033L352.34 171.072V164.469H353.459V173ZM361.756 171.881C361.467 172.295 361.062 172.605 360.543 172.812C360.027 173.016 359.426 173.117 358.738 173.117C358.043 173.117 357.426 172.955 356.887 172.631C356.348 172.303 355.93 171.838 355.633 171.236C355.34 170.635 355.189 169.938 355.182 169.145V168.4C355.182 167.115 355.48 166.119 356.078 165.412C356.68 164.705 357.523 164.352 358.609 164.352C359.5 164.352 360.217 164.58 360.76 165.037C361.303 165.49 361.635 166.135 361.756 166.971H360.631C360.42 165.842 359.748 165.277 358.615 165.277C357.861 165.277 357.289 165.543 356.898 166.074C356.512 166.602 356.316 167.367 356.312 168.371V169.068C356.312 170.025 356.531 170.787 356.969 171.354C357.406 171.916 357.998 172.197 358.744 172.197C359.166 172.197 359.535 172.15 359.852 172.057C360.168 171.963 360.43 171.805 360.637 171.582V169.666H358.662V168.752H361.756V171.881ZM362.699 163.25H364.914V174.828H362.699V173.938H363.83V164.141H362.699V163.25Z" fill="white"/>
<path d="M207.184 213.141H206.064V222.938H207.184V223.828H204.975V212.25H207.184V213.141ZM214.854 222H213.723V218.057H209.422V222H208.297V213.469H209.422V217.137H213.723V213.469H214.854V222ZM219.289 217.752L221.516 213.469H222.793L219.852 218.818V222H218.727V218.818L215.785 213.469H217.074L219.289 217.752ZM225.02 218.66V222H223.895V213.469H227.041C227.975 213.469 228.705 213.707 229.232 214.184C229.764 214.66 230.029 215.291 230.029 216.076C230.029 216.904 229.77 217.543 229.25 217.992C228.734 218.438 227.994 218.66 227.029 218.66H225.02ZM225.02 217.74H227.041C227.643 217.74 228.104 217.6 228.424 217.318C228.744 217.033 228.904 216.623 228.904 216.088C228.904 215.58 228.744 215.174 228.424 214.869C228.104 214.564 227.664 214.406 227.105 214.395H225.02V217.74ZM236.287 218.057H232.59V221.08H236.885V222H231.465V213.469H236.826V214.395H232.59V217.137H236.287V218.057ZM241.414 218.549H239.41V222H238.279V213.469H241.104C242.064 213.469 242.803 213.688 243.318 214.125C243.838 214.562 244.098 215.199 244.098 216.035C244.098 216.566 243.953 217.029 243.664 217.424C243.379 217.818 242.98 218.113 242.469 218.309L244.473 221.93V222H243.266L241.414 218.549ZM239.41 217.629H241.139C241.697 217.629 242.141 217.484 242.469 217.195C242.801 216.906 242.967 216.52 242.967 216.035C242.967 215.508 242.809 215.104 242.492 214.822C242.18 214.541 241.727 214.398 241.133 214.395H239.41V217.629ZM245.68 222V213.469H248.469C249.395 213.469 250.09 213.66 250.555 214.043C251.023 214.426 251.258 214.992 251.258 215.742C251.258 216.141 251.145 216.494 250.918 216.803C250.691 217.107 250.383 217.344 249.992 217.512C250.453 217.641 250.816 217.887 251.082 218.25C251.352 218.609 251.486 219.039 251.486 219.539C251.486 220.305 251.238 220.906 250.742 221.344C250.246 221.781 249.545 222 248.639 222H245.68ZM246.805 218.01V221.08H248.662C249.186 221.08 249.598 220.945 249.898 220.676C250.203 220.402 250.355 220.027 250.355 219.551C250.355 218.523 249.797 218.01 248.68 218.01H246.805ZM246.805 217.107H248.504C248.996 217.107 249.389 216.984 249.682 216.738C249.979 216.492 250.127 216.158 250.127 215.736C250.127 215.268 249.99 214.928 249.717 214.717C249.443 214.502 249.027 214.395 248.469 214.395H246.805V217.107ZM259.719 218.01C259.719 218.846 259.578 219.576 259.297 220.201C259.016 220.822 258.617 221.297 258.102 221.625C257.586 221.953 256.984 222.117 256.297 222.117C255.625 222.117 255.029 221.953 254.51 221.625C253.99 221.293 253.586 220.822 253.297 220.213C253.012 219.6 252.865 218.891 252.857 218.086V217.471C252.857 216.65 253 215.926 253.285 215.297C253.57 214.668 253.973 214.188 254.492 213.855C255.016 213.52 255.613 213.352 256.285 213.352C256.969 213.352 257.57 213.518 258.09 213.85C258.613 214.178 259.016 214.656 259.297 215.285C259.578 215.91 259.719 216.639 259.719 217.471V218.01ZM258.6 217.459C258.6 216.447 258.396 215.672 257.99 215.133C257.584 214.59 257.016 214.318 256.285 214.318C255.574 214.318 255.014 214.59 254.604 215.133C254.197 215.672 253.988 216.422 253.977 217.383V218.01C253.977 218.99 254.182 219.762 254.592 220.324C255.006 220.883 255.574 221.162 256.297 221.162C257.023 221.162 257.586 220.898 257.984 220.371C258.383 219.84 258.588 219.08 258.6 218.092V217.459ZM262.537 221.08H266.58V222H261.406V213.469H262.537V221.08ZM272.686 218.057H268.988V221.08H273.283V222H267.863V213.469H273.225V214.395H268.988V217.137H272.686V218.057ZM273.746 212.25H275.961V223.828H273.746V222.938H274.877V213.141H273.746V212.25Z" fill="white"/>
<path d="M296.34 213.141H295.221V222.938H296.34V223.828H294.131V212.25H296.34V213.141ZM298.906 213.469L301.695 220.43L304.484 213.469H305.943V222H304.818V218.678L304.924 215.092L302.123 222H301.262L298.467 215.109L298.578 218.678V222H297.453V213.469H298.906ZM312.752 218.057H309.055V221.08H313.35V222H307.93V213.469H313.291V214.395H309.055V217.137H312.752V218.057ZM320.762 214.395H318.02V222H316.9V214.395H314.164V213.469H320.762V214.395ZM326.27 219.773H322.695L321.893 222H320.732L323.99 213.469H324.975L328.238 222H327.084L326.27 219.773ZM323.035 218.848H325.936L324.482 214.857L323.035 218.848ZM330.512 218.66V222H329.387V213.469H332.533C333.467 213.469 334.197 213.707 334.725 214.184C335.256 214.66 335.521 215.291 335.521 216.076C335.521 216.904 335.262 217.543 334.742 217.992C334.227 218.438 333.486 218.66 332.521 218.66H330.512ZM330.512 217.74H332.533C333.135 217.74 333.596 217.6 333.916 217.318C334.236 217.033 334.396 216.623 334.396 216.088C334.396 215.58 334.236 215.174 333.916 214.869C333.596 214.564 333.156 214.406 332.598 214.395H330.512V217.74ZM343.514 222H342.383V218.057H338.082V222H336.957V213.469H338.082V217.137H342.383V213.469H343.514V222ZM352.074 218.01C352.074 218.846 351.934 219.576 351.652 220.201C351.371 220.822 350.973 221.297 350.457 221.625C349.941 221.953 349.34 222.117 348.652 222.117C347.98 222.117 347.385 221.953 346.865 221.625C346.346 221.293 345.941 220.822 345.652 220.213C345.367 219.6 345.221 218.891 345.213 218.086V217.471C345.213 216.65 345.355 215.926 345.641 215.297C345.926 214.668 346.328 214.188 346.848 213.855C347.371 213.52 347.969 213.352 348.641 213.352C349.324 213.352 349.926 213.518 350.445 213.85C350.969 214.178 351.371 214.656 351.652 215.285C351.934 215.91 352.074 216.639 352.074 217.471V218.01ZM350.955 217.459C350.955 216.447 350.752 215.672 350.346 215.133C349.939 214.59 349.371 214.318 348.641 214.318C347.93 214.318 347.369 214.59 346.959 215.133C346.553 215.672 346.344 216.422 346.332 217.383V218.01C346.332 218.99 346.537 219.762 346.947 220.324C347.361 220.883 347.93 221.162 348.652 221.162C349.379 221.162 349.941 220.898 350.34 220.371C350.738 219.84 350.943 219.08 350.955 218.092V217.459ZM356.891 218.549H354.887V222H353.756V213.469H356.58C357.541 213.469 358.279 213.688 358.795 214.125C359.314 214.562 359.574 215.199 359.574 216.035C359.574 216.566 359.43 217.029 359.141 217.424C358.855 217.818 358.457 218.113 357.945 218.309L359.949 221.93V222H358.742L356.891 218.549ZM354.887 217.629H356.615C357.174 217.629 357.617 217.484 357.945 217.195C358.277 216.906 358.443 216.52 358.443 216.035C358.443 215.508 358.285 215.104 357.969 214.822C357.656 214.541 357.203 214.398 356.609 214.395H354.887V217.629ZM362.363 222H361.238V213.469H362.363V222ZM370.701 219.293C370.596 220.195 370.262 220.893 369.699 221.385C369.141 221.873 368.396 222.117 367.467 222.117C366.459 222.117 365.65 221.756 365.041 221.033C364.436 220.311 364.133 219.344 364.133 218.133V217.312C364.133 216.52 364.273 215.822 364.555 215.221C364.84 214.619 365.242 214.158 365.762 213.838C366.281 213.514 366.883 213.352 367.566 213.352C368.473 213.352 369.199 213.605 369.746 214.113C370.293 214.617 370.611 215.316 370.701 216.211H369.57C369.473 215.531 369.26 215.039 368.932 214.734C368.607 214.43 368.152 214.277 367.566 214.277C366.848 214.277 366.283 214.543 365.873 215.074C365.467 215.605 365.264 216.361 365.264 217.342V218.168C365.264 219.094 365.457 219.83 365.844 220.377C366.23 220.924 366.771 221.197 367.467 221.197C368.092 221.197 368.57 221.057 368.902 220.775C369.238 220.49 369.461 219.996 369.57 219.293H370.701ZM376.953 219.773H373.379L372.576 222H371.416L374.674 213.469H375.658L378.922 222H377.768L376.953 219.773ZM373.719 218.848H376.619L375.166 214.857L373.719 218.848ZM381.201 221.08H385.244V222H380.07V213.469H381.201V221.08ZM385.59 212.25H387.805V223.828H385.59V222.938H386.721V213.141H385.59V212.25Z" fill="white"/>
<path d="M121.271 213.141H120.152V222.938H121.271V223.828H119.062V212.25H121.271V213.141ZM123.516 221.08H127.559V222H122.385V213.469H123.516V221.08ZM130.049 222H128.924V213.469H130.049V222ZM137.83 214.395H135.088V222H133.969V214.395H131.232V213.469H137.83V214.395ZM143.918 218.057H140.221V221.08H144.516V222H139.096V213.469H144.457V214.395H140.221V217.137H143.918V218.057ZM149.045 218.549H147.041V222H145.91V213.469H148.734C149.695 213.469 150.434 213.688 150.949 214.125C151.469 214.562 151.729 215.199 151.729 216.035C151.729 216.566 151.584 217.029 151.295 217.424C151.01 217.818 150.611 218.113 150.1 218.309L152.104 221.93V222H150.896L149.045 218.549ZM147.041 217.629H148.77C149.328 217.629 149.771 217.484 150.1 217.195C150.432 216.906 150.598 216.52 150.598 216.035C150.598 215.508 150.439 215.104 150.123 214.822C149.811 214.541 149.357 214.398 148.764 214.395H147.041V217.629ZM158.021 219.773H154.447L153.645 222H152.484L155.742 213.469H156.727L159.99 222H158.836L158.021 219.773ZM154.787 218.848H157.688L156.234 214.857L154.787 218.848ZM162.27 221.08H166.312V222H161.139V213.469H162.27V221.08ZM166.658 212.25H168.873V223.828H166.658V222.938H167.789V213.141H166.658V212.25Z" fill="white"/>
<path d="M216.494 262.141H215.375V271.938H216.494V272.828H214.285V261.25H216.494V262.141ZM220.121 267.197C219.156 266.92 218.453 266.58 218.012 266.178C217.574 265.771 217.355 265.271 217.355 264.678C217.355 264.006 217.623 263.451 218.158 263.014C218.697 262.572 219.396 262.352 220.256 262.352C220.842 262.352 221.363 262.465 221.82 262.691C222.281 262.918 222.637 263.23 222.887 263.629C223.141 264.027 223.268 264.463 223.268 264.936H222.137C222.137 264.42 221.973 264.016 221.645 263.723C221.316 263.426 220.854 263.277 220.256 263.277C219.701 263.277 219.268 263.4 218.955 263.646C218.646 263.889 218.492 264.227 218.492 264.66C218.492 265.008 218.639 265.303 218.932 265.545C219.229 265.783 219.73 266.002 220.438 266.201C221.148 266.4 221.703 266.621 222.102 266.863C222.504 267.102 222.801 267.381 222.992 267.701C223.188 268.021 223.285 268.398 223.285 268.832C223.285 269.523 223.016 270.078 222.477 270.496C221.938 270.91 221.217 271.117 220.314 271.117C219.729 271.117 219.182 271.006 218.674 270.783C218.166 270.557 217.773 270.248 217.496 269.857C217.223 269.467 217.086 269.023 217.086 268.527H218.217C218.217 269.043 218.406 269.451 218.785 269.752C219.168 270.049 219.678 270.197 220.314 270.197C220.908 270.197 221.363 270.076 221.68 269.834C221.996 269.592 222.154 269.262 222.154 268.844C222.154 268.426 222.008 268.104 221.715 267.877C221.422 267.646 220.891 267.42 220.121 267.197ZM229.555 267.057H225.857V270.08H230.152V271H224.732V262.469H230.094V263.395H225.857V266.137H229.555V267.057ZM234.682 267.549H232.678V271H231.547V262.469H234.371C235.332 262.469 236.07 262.688 236.586 263.125C237.105 263.562 237.365 264.199 237.365 265.035C237.365 265.566 237.221 266.029 236.932 266.424C236.646 266.818 236.248 267.113 235.736 267.309L237.74 270.93V271H236.533L234.682 267.549ZM232.678 266.629H234.406C234.965 266.629 235.408 266.484 235.736 266.195C236.068 265.906 236.234 265.52 236.234 265.035C236.234 264.508 236.076 264.104 235.76 263.822C235.447 263.541 234.994 263.398 234.4 263.395H232.678V266.629ZM240.154 271H239.029V262.469H240.154V271ZM248.779 267.01C248.779 267.846 248.639 268.576 248.357 269.201C248.076 269.822 247.678 270.297 247.162 270.625C246.646 270.953 246.045 271.117 245.357 271.117C244.686 271.117 244.09 270.953 243.57 270.625C243.051 270.293 242.646 269.822 242.357 269.213C242.072 268.6 241.926 267.891 241.918 267.086V266.471C241.918 265.65 242.061 264.926 242.346 264.297C242.631 263.668 243.033 263.188 243.553 262.855C244.076 262.52 244.674 262.352 245.346 262.352C246.029 262.352 246.631 262.518 247.15 262.85C247.674 263.178 248.076 263.656 248.357 264.285C248.639 264.91 248.779 265.639 248.779 266.471V267.01ZM247.66 266.459C247.66 265.447 247.457 264.672 247.051 264.133C246.645 263.59 246.076 263.318 245.346 263.318C244.635 263.318 244.074 263.59 243.664 264.133C243.258 264.672 243.049 265.422 243.037 266.383V267.01C243.037 267.99 243.242 268.762 243.652 269.324C244.066 269.883 244.635 270.162 245.357 270.162C246.084 270.162 246.646 269.898 247.045 269.371C247.443 268.84 247.648 268.08 247.66 267.092V266.459ZM256.473 262.469V268.27C256.469 269.074 256.215 269.732 255.711 270.244C255.211 270.756 254.531 271.043 253.672 271.105L253.373 271.117C252.439 271.117 251.695 270.865 251.141 270.361C250.586 269.857 250.305 269.164 250.297 268.281V262.469H251.41V268.246C251.41 268.863 251.58 269.344 251.92 269.688C252.26 270.027 252.744 270.197 253.373 270.197C254.01 270.197 254.496 270.027 254.832 269.688C255.172 269.348 255.342 268.869 255.342 268.252V262.469H256.473ZM260.762 267.197C259.797 266.92 259.094 266.58 258.652 266.178C258.215 265.771 257.996 265.271 257.996 264.678C257.996 264.006 258.264 263.451 258.799 263.014C259.338 262.572 260.037 262.352 260.896 262.352C261.482 262.352 262.004 262.465 262.461 262.691C262.922 262.918 263.277 263.23 263.527 263.629C263.781 264.027 263.908 264.463 263.908 264.936H262.777C262.777 264.42 262.613 264.016 262.285 263.723C261.957 263.426 261.494 263.277 260.896 263.277C260.342 263.277 259.908 263.4 259.596 263.646C259.287 263.889 259.133 264.227 259.133 264.66C259.133 265.008 259.279 265.303 259.572 265.545C259.869 265.783 260.371 266.002 261.078 266.201C261.789 266.4 262.344 266.621 262.742 266.863C263.145 267.102 263.441 267.381 263.633 267.701C263.828 268.021 263.926 268.398 263.926 268.832C263.926 269.523 263.656 270.078 263.117 270.496C262.578 270.91 261.857 271.117 260.955 271.117C260.369 271.117 259.822 271.006 259.314 270.783C258.807 270.557 258.414 270.248 258.137 269.857C257.863 269.467 257.727 269.023 257.727 268.527H258.857C258.857 269.043 259.047 269.451 259.426 269.752C259.809 270.049 260.318 270.197 260.955 270.197C261.549 270.197 262.004 270.076 262.32 269.834C262.637 269.592 262.795 269.262 262.795 268.844C262.795 268.426 262.648 268.104 262.355 267.877C262.062 267.646 261.531 267.42 260.762 267.197ZM264.436 261.25H266.65V272.828H264.436V271.938H265.566V262.141H264.436V261.25Z" fill="white"/>
<path d="M305.428 262.141H304.309V271.938H305.428V272.828H303.219V261.25H305.428V262.141ZM309.67 267.549H307.666V271H306.535V262.469H309.359C310.32 262.469 311.059 262.688 311.574 263.125C312.094 263.562 312.354 264.199 312.354 265.035C312.354 265.566 312.209 266.029 311.92 266.424C311.635 266.818 311.236 267.113 310.725 267.309L312.729 270.93V271H311.521L309.67 267.549ZM307.666 266.629H309.395C309.953 266.629 310.396 266.484 310.725 266.195C311.057 265.906 311.223 265.52 311.223 265.035C311.223 264.508 311.064 264.104 310.748 263.822C310.436 263.541 309.982 263.398 309.389 263.395H307.666V266.629ZM320.492 271H319.361V267.057H315.061V271H313.936V262.469H315.061V266.137H319.361V262.469H320.492V271ZM327.312 267.057H323.615V270.08H327.91V271H322.49V262.469H327.852V263.395H323.615V266.137H327.312V267.057ZM335.322 263.395H332.58V271H331.461V263.395H328.725V262.469H335.322V263.395ZM342.986 267.01C342.986 267.846 342.846 268.576 342.564 269.201C342.283 269.822 341.885 270.297 341.369 270.625C340.854 270.953 340.252 271.117 339.564 271.117C338.893 271.117 338.297 270.953 337.777 270.625C337.258 270.293 336.854 269.822 336.564 269.213C336.279 268.6 336.133 267.891 336.125 267.086V266.471C336.125 265.65 336.268 264.926 336.553 264.297C336.838 263.668 337.24 263.188 337.76 262.855C338.283 262.52 338.881 262.352 339.553 262.352C340.236 262.352 340.838 262.518 341.357 262.85C341.881 263.178 342.283 263.656 342.564 264.285C342.846 264.91 342.986 265.639 342.986 266.471V267.01ZM341.867 266.459C341.867 265.447 341.664 264.672 341.258 264.133C340.852 263.59 340.283 263.318 339.553 263.318C338.842 263.318 338.281 263.59 337.871 264.133C337.465 264.672 337.256 265.422 337.244 266.383V267.01C337.244 267.99 337.449 268.762 337.859 269.324C338.273 269.883 338.842 270.162 339.564 270.162C340.291 270.162 340.854 269.898 341.252 269.371C341.65 268.84 341.855 268.08 341.867 267.092V266.459ZM347.803 267.549H345.799V271H344.668V262.469H347.492C348.453 262.469 349.191 262.688 349.707 263.125C350.227 263.562 350.486 264.199 350.486 265.035C350.486 265.566 350.342 266.029 350.053 266.424C349.768 266.818 349.369 267.113 348.857 267.309L350.861 270.93V271H349.654L347.803 267.549ZM345.799 266.629H347.527C348.086 266.629 348.529 266.484 348.857 266.195C349.189 265.906 349.355 265.52 349.355 265.035C349.355 264.508 349.197 264.104 348.881 263.822C348.568 263.541 348.115 263.398 347.521 263.395H345.799V266.629ZM353.275 271H352.15V262.469H353.275V271ZM361.613 268.293C361.508 269.195 361.174 269.893 360.611 270.385C360.053 270.873 359.309 271.117 358.379 271.117C357.371 271.117 356.562 270.756 355.953 270.033C355.348 269.311 355.045 268.344 355.045 267.133V266.312C355.045 265.52 355.186 264.822 355.467 264.221C355.752 263.619 356.154 263.158 356.674 262.838C357.193 262.514 357.795 262.352 358.479 262.352C359.385 262.352 360.111 262.605 360.658 263.113C361.205 263.617 361.523 264.316 361.613 265.211H360.482C360.385 264.531 360.172 264.039 359.844 263.734C359.52 263.43 359.064 263.277 358.479 263.277C357.76 263.277 357.195 263.543 356.785 264.074C356.379 264.605 356.176 265.361 356.176 266.342V267.168C356.176 268.094 356.369 268.83 356.756 269.377C357.143 269.924 357.684 270.197 358.379 270.197C359.004 270.197 359.482 270.057 359.814 269.775C360.15 269.49 360.373 268.996 360.482 268.293H361.613ZM367.865 268.773H364.291L363.488 271H362.328L365.586 262.469H366.57L369.834 271H368.68L367.865 268.773ZM364.631 267.848H367.531L366.078 263.857L364.631 267.848ZM372.113 270.08H376.156V271H370.982V262.469H372.113V270.08ZM376.502 261.25H378.717V272.828H376.502V271.938H377.633V262.141H376.502V261.25Z" fill="white"/>
</svg>
